<?xml version="1.0" encoding="UTF-8" standalone="no"?>
<!-- Created with Inkscape (http://www.inkscape.org/) -->

<svg
   xmlns:dc="http://purl.org/dc/elements/1.1/"
   xmlns:cc="http://creativecommons.org/ns#"
   xmlns:rdf="http://www.w3.org/1999/02/22-rdf-syntax-ns#"
   xmlns:svg="http://www.w3.org/2000/svg"
   xmlns="http://www.w3.org/2000/svg"
   xmlns:xlink="http://www.w3.org/1999/xlink"
   xmlns:sodipodi="http://sodipodi.sourceforge.net/DTD/sodipodi-0.dtd"
   xmlns:inkscape="http://www.inkscape.org/namespaces/inkscape"
   width="52.373566mm"
   height="15.522222mm"
   viewBox="0 0 185.57563 54.999994"
   id="svg5994"
   version="1.1"
   inkscape:version="0.91 r"
   sodipodi:docname="apple_button.svg">
  <defs
     id="defs5996">
    <linearGradient
       y2="145.5137"
       x2="66.931602"
       y1="32.210899"
       x1="66.931602"
       gradientUnits="userSpaceOnUse"
       id="SVGID_3_-0">
      <stop
         id="stop4587-8"
         style="stop-color: rgb(37, 124, 176);"
         offset="0" />
      <stop
         id="stop4589-5"
         style="stop-color: rgb(74, 147, 181);"
         offset="0.2863" />
      <stop
         id="stop4591-2"
         style="stop-color: rgb(120, 188, 187);"
         offset="0.767" />
      <stop
         id="stop4593-5"
         style="stop-color: rgb(137, 207, 189);"
         offset="1" />
    </linearGradient>
    <clipPath
       id="SVGID_2_-3">
      <path
         inkscape:connector-curvature="0"
         id="use4584-5"
         d="M 110.844,73.646 87.781,60.331 c 0,0 -42.016,-24.261 -44.486,-25.687 -2.47,-1.426 -4.931,-0.562 -4.931,2.418 0,4.965 0,51.8 0,51.8 0,0 0,50.615 0,52.851 0,2.234 1.759,3.197 3.905,1.959 2.145,-1.24 45.512,-26.279 45.512,-26.279 l 23.062,-13.314 c 0,0 19.568,-11.297 22.169,-12.798 2.601,-1.503 2.351,-3.563 0.156,-4.745 -2.194,-1.183 -22.324,-12.89 -22.324,-12.89 z" />
    </clipPath>
    <linearGradient
       y2="60.3311"
       x2="110.8442"
       y1="60.3311"
       x1="38.3647"
       gradientUnits="userSpaceOnUse"
       id="SVGID_4_-1">
      <stop
         id="stop4598-4"
         style="stop-color: rgb(82, 193, 173);"
         offset="0" />
      <stop
         id="stop4600-0"
         style="stop-color: rgb(222, 232, 154);"
         offset="1" />
    </linearGradient>
    <clipPath
       id="clipPath6020">
      <path
         inkscape:connector-curvature="0"
         id="use6022"
         d="M 110.844,73.646 87.781,60.331 c 0,0 -42.016,-24.261 -44.486,-25.687 -2.47,-1.426 -4.931,-0.562 -4.931,2.418 0,4.965 0,51.8 0,51.8 0,0 0,50.615 0,52.851 0,2.234 1.759,3.197 3.905,1.959 2.145,-1.24 45.512,-26.279 45.512,-26.279 l 23.062,-13.314 c 0,0 19.568,-11.297 22.169,-12.798 2.601,-1.503 2.351,-3.563 0.156,-4.745 -2.194,-1.183 -22.324,-12.89 -22.324,-12.89 z" />
    </clipPath>
    <linearGradient
       y2="145.9258"
       x2="74.603996"
       y1="88.863297"
       x1="74.603996"
       gradientUnits="userSpaceOnUse"
       id="SVGID_5_-7">
      <stop
         id="stop4605-0"
         style="stop-color: rgb(236, 65, 61);"
         offset="0" />
      <stop
         id="stop4607-3"
         style="stop-color: rgb(218, 68, 82);"
         offset="0.1668" />
      <stop
         id="stop4609-6"
         style="stop-color: rgb(176, 72, 122);"
         offset="0.5748" />
      <stop
         id="stop4611-2"
         style="stop-color: rgb(149, 74, 146);"
         offset="0.8619" />
      <stop
         id="stop4613-6"
         style="stop-color: rgb(138, 74, 157);"
         offset="1" />
    </linearGradient>
    <clipPath
       id="clipPath6030">
      <path
         inkscape:connector-curvature="0"
         id="use6032"
         d="M 110.844,73.646 87.781,60.331 c 0,0 -42.016,-24.261 -44.486,-25.687 -2.47,-1.426 -4.931,-0.562 -4.931,2.418 0,4.965 0,51.8 0,51.8 0,0 0,50.615 0,52.851 0,2.234 1.759,3.197 3.905,1.959 2.145,-1.24 45.512,-26.279 45.512,-26.279 l 23.062,-13.314 c 0,0 19.568,-11.297 22.169,-12.798 2.601,-1.503 2.351,-3.563 0.156,-4.745 -2.194,-1.183 -22.324,-12.89 -22.324,-12.89 z" />
    </clipPath>
    <linearGradient
       y2="104.0781"
       x2="116.3496"
       y1="73.6465"
       x1="116.3496"
       gradientUnits="userSpaceOnUse"
       id="SVGID_6_-4">
      <stop
         id="stop4618-8"
         style="stop-color: rgb(245, 136, 121);"
         offset="0" />
      <stop
         id="stop4620-5"
         style="stop-color: rgb(246, 144, 121);"
         offset="0.1194" />
      <stop
         id="stop4622-2"
         style="stop-color: rgb(252, 184, 119);"
         offset="0.7128" />
      <stop
         id="stop4624-6"
         style="stop-color: rgb(254, 200, 116);"
         offset="1" />
    </linearGradient>
    <clipPath
       id="clipPath6039">
      <path
         inkscape:connector-curvature="0"
         id="use6041"
         d="M 110.844,73.646 87.781,60.331 c 0,0 -42.016,-24.261 -44.486,-25.687 -2.47,-1.426 -4.931,-0.562 -4.931,2.418 0,4.965 0,51.8 0,51.8 0,0 0,50.615 0,52.851 0,2.234 1.759,3.197 3.905,1.959 2.145,-1.24 45.512,-26.279 45.512,-26.279 l 23.062,-13.314 c 0,0 19.568,-11.297 22.169,-12.798 2.601,-1.503 2.351,-3.563 0.156,-4.745 -2.194,-1.183 -22.324,-12.89 -22.324,-12.89 z" />
    </clipPath>
    <linearGradient
       inkscape:collect="always"
       xlink:href="#SVGID_1_-1-2"
       id="linearGradient7392"
       gradientUnits="userSpaceOnUse"
       gradientTransform="matrix(1.3753782,0,0,-1.3753782,835.20595,905.06851)"
       x1="98.960899"
       y1="0.90280002"
       x2="98.960899"
       y2="36.9487" />
    <linearGradient
       gradientTransform="matrix(1,0,0,-1,0,41)"
       y2="36.9487"
       x2="98.960899"
       y1="0.90280002"
       x1="98.960899"
       gradientUnits="userSpaceOnUse"
       id="SVGID_1_-1-2">
      <stop
         id="stop4749-9"
         style="stop-color:#1A1A1A;stop-opacity:0.1"
         offset="0" />
      <stop
         id="stop4751-8"
         style="stop-color:#212121;stop-opacity:0.1506"
         offset="0.1235" />
      <stop
         id="stop4753-4"
         style="stop-color:#353535;stop-opacity:0.2265"
         offset="0.3085" />
      <stop
         id="stop4755-8"
         style="stop-color:#575757;stop-opacity:0.3181"
         offset="0.5321" />
      <stop
         id="stop4757-3"
         style="stop-color:#858585;stop-opacity:0.4212"
         offset="0.7834" />
      <stop
         id="stop4759-5"
         style="stop-color:#B3B3B3;stop-opacity:0.51"
         offset="1" />
    </linearGradient>
  </defs>
  <sodipodi:namedview
     id="base"
     pagecolor="#ffffff"
     bordercolor="#666666"
     borderopacity="1.0"
     inkscape:pageopacity="0.0"
     inkscape:pageshadow="2"
     inkscape:zoom="0.35"
     inkscape:cx="-39.571562"
     inkscape:cy="189.28571"
     inkscape:document-units="px"
     inkscape:current-layer="layer1"
     showgrid="false"
     fit-margin-top="0"
     fit-margin-left="0"
     fit-margin-right="0"
     fit-margin-bottom="0"
     inkscape:window-width="1440"
     inkscape:window-height="851"
     inkscape:window-x="0"
     inkscape:window-y="0"
     inkscape:window-maximized="1" />
  <metadata
     id="metadata5999">
    <rdf:RDF>
      <cc:Work
         rdf:about="">
        <dc:format>image/svg+xml</dc:format>
        <dc:type
           rdf:resource="http://purl.org/dc/dcmitype/StillImage" />
        <dc:title></dc:title>
      </cc:Work>
    </rdf:RDF>
  </metadata>
  <g
     inkscape:label="Layer 1"
     inkscape:groupmode="layer"
     id="layer1"
     transform="translate(-414.57162,-666.64792)">
    <g
       transform="translate(-420.63433,-182.03008)"
       id="g5962">
      <path
         id="path4738"
         d="m 1019.5506,897.18484 c 0,2.9103 -2.3574,5.2677 -5.2732,5.2677 l -172.56729,0 c -2.91442,0 -5.28007,-2.3574 -5.28007,-5.2677 l 0,-42.00818 c 0,-2.90892 2.36565,-5.27457 5.28007,-5.27457 l 172.56599,0 c 2.9171,0 5.2732,2.36565 5.2732,5.27457 l 0,42.00818 0,0 z"
         inkscape:connector-curvature="0"
         style="fill:#ffffff" />
      <path
         id="path4740"
         d="m 1014.2774,903.678 -172.56729,0 c -3.58561,0 -6.50416,-2.91168 -6.50416,-6.49316 l 0,-42.0068 c 0,-3.58424 2.91855,-6.50004 6.50416,-6.50004 l 172.56599,0 c 3.5815,0 6.5041,2.9158 6.5041,6.50004 l 0,42.0068 c 0,3.58148 -2.9199,6.49316 -6.5028,6.49316 l 0,0 z"
         inkscape:connector-curvature="0"
         style="fill:#a6a6a6" />
      <path
         id="path4742"
         d="m 1019.5506,897.18484 c 0,2.9103 -2.3574,5.2677 -5.2732,5.2677 l -172.56729,0 c -2.91442,0 -5.28007,-2.3574 -5.28007,-5.2677 l 0,-42.00818 c 0,-2.90892 2.36565,-5.27457 5.28007,-5.27457 l 172.56599,0 c 2.9171,0 5.2732,2.36565 5.2732,5.27457 l 0,42.00818 0,0 z"
         inkscape:connector-curvature="0" />
      <path
         id="path4744"
         d="m 876.64334,875.88848 c -0.0399,-4.43284 3.62963,-6.58943 3.79742,-6.68984 -2.07819,-3.02996 -5.29933,-3.44394 -6.43126,-3.47695 -2.70537,-0.28471 -5.3296,1.61882 -6.70772,1.61882 -1.40564,0 -3.52785,-1.59132 -5.8151,-1.54455 -2.94331,0.0454 -5.69682,1.74948 -7.20699,4.39571 -3.1166,5.3956 -0.79221,13.32466 2.19373,17.68598 1.49366,2.13734 3.23902,4.52087 5.52352,4.43697 2.23499,-0.0908 3.06985,-1.42351 5.76696,-1.42351 2.67236,0 3.45633,1.42351 5.78622,1.36987 2.39866,-0.0371 3.90882,-2.14559 5.35022,-4.3008 1.7261,-2.4468 2.41929,-4.85921 2.4468,-4.983 -0.055,-0.0192 -4.65703,-1.77699 -4.7038,-7.0887 z"
         inkscape:connector-curvature="0"
         style="fill:#ffffff" />
      <path
         id="path4746"
         d="m 872.24213,862.85265 c 1.20208,-1.50329 2.02456,-3.54848 1.79625,-5.62392 -1.73986,0.077 -3.9157,1.20345 -5.16867,2.67373 -1.10856,1.29561 -2.09883,3.41919 -1.84301,5.41624 1.95441,0.14579 3.96109,-0.98615 5.21543,-2.46605 z"
         inkscape:connector-curvature="0"
         style="fill:#ffffff" />
      <path
         style="fill:url(#linearGradient7392)"
         id="path4761"
         d="m 1014.2774,848.678 -92.43225,0 36.20408,55 56.22817,0 c 3.5815,0 6.5042,-2.91168 6.5042,-6.49729 l 0,-42.00267 c 0,-3.58424 -2.9213,-6.50004 -6.5042,-6.50004 z"
         inkscape:connector-curvature="0" />
      <g
         transform="matrix(1.3753782,0,0,1.3753782,835.20595,848.678)"
         id="g4763">
        <path
           id="path4765"
           d="m 53.665,31.504 -2.271,0 -1.244,-3.909 -4.324,0 -1.185,3.909 -2.211,0 4.285,-13.308 2.646,0 4.304,13.308 z M 49.775,25.955 48.65,22.48 c -0.119,-0.355 -0.343,-1.191 -0.671,-2.507 l -0.04,0 c -0.132,0.566 -0.343,1.402 -0.632,2.507 l -1.106,3.475 3.574,0 z"
           inkscape:connector-curvature="0"
           style="fill:#ffffff" />
        <path
           id="path4767"
           d="m 64.663,26.588 c 0,1.632 -0.443,2.922 -1.33,3.869 -0.794,0.843 -1.781,1.264 -2.958,1.264 -1.271,0 -2.185,-0.453 -2.74,-1.361 l 0,5.035 -2.132,0 0,-10.333 c 0,-1.025 -0.027,-2.076 -0.079,-3.154 l 1.875,0 0.119,1.521 0.04,0 c 0.711,-1.146 1.79,-1.719 3.238,-1.719 1.132,0 2.077,0.447 2.833,1.342 0.755,0.897 1.134,2.075 1.134,3.536 z m -2.172,0.078 c 0,-0.934 -0.21,-1.704 -0.632,-2.311 -0.461,-0.631 -1.08,-0.947 -1.856,-0.947 -0.526,0 -1.004,0.176 -1.431,0.523 -0.428,0.35 -0.708,0.807 -0.839,1.373 -0.066,0.264 -0.099,0.479 -0.099,0.649 l 0,1.601 c 0,0.697 0.214,1.286 0.642,1.768 0.428,0.48 0.984,0.721 1.668,0.721 0.803,0 1.428,-0.311 1.875,-0.928 0.448,-0.619 0.672,-1.435 0.672,-2.449 z"
           inkscape:connector-curvature="0"
           style="fill:#ffffff" />
        <path
           id="path4769"
           d="m 75.7,26.588 c 0,1.632 -0.443,2.922 -1.33,3.869 -0.795,0.843 -1.781,1.264 -2.959,1.264 -1.271,0 -2.185,-0.453 -2.74,-1.361 l 0,5.035 -2.132,0 0,-10.333 c 0,-1.025 -0.027,-2.076 -0.079,-3.154 l 1.875,0 0.119,1.521 0.04,0 c 0.71,-1.146 1.789,-1.719 3.238,-1.719 1.131,0 2.076,0.447 2.834,1.342 0.754,0.897 1.134,2.075 1.134,3.536 z m -2.173,0.078 c 0,-0.934 -0.211,-1.704 -0.633,-2.311 -0.461,-0.631 -1.078,-0.947 -1.854,-0.947 -0.526,0 -1.004,0.176 -1.433,0.523 -0.428,0.35 -0.707,0.807 -0.838,1.373 -0.065,0.264 -0.1,0.479 -0.1,0.649 l 0,1.601 c 0,0.697 0.215,1.286 0.641,1.768 0.428,0.479 0.984,0.721 1.67,0.721 0.804,0 1.429,-0.311 1.875,-0.928 0.448,-0.619 0.672,-1.435 0.672,-2.449 z"
           inkscape:connector-curvature="0"
           style="fill:#ffffff" />
        <path
           id="path4771"
           d="m 88.04,27.771 c 0,1.133 -0.396,2.054 -1.183,2.765 -0.866,0.776 -2.075,1.165 -3.625,1.165 -1.432,0 -2.58,-0.276 -3.446,-0.829 l 0.493,-1.777 c 0.935,0.554 1.962,0.83 3.08,0.83 0.804,0 1.429,-0.182 1.875,-0.543 0.447,-0.362 0.673,-0.846 0.673,-1.45 0,-0.541 -0.187,-0.994 -0.554,-1.363 -0.369,-0.368 -0.979,-0.711 -1.836,-1.026 -2.33,-0.869 -3.496,-2.14 -3.496,-3.812 0,-1.092 0.412,-1.986 1.234,-2.685 0.822,-0.698 1.912,-1.047 3.268,-1.047 1.211,0 2.22,0.211 3.021,0.632 l -0.535,1.738 c -0.754,-0.408 -1.605,-0.612 -2.557,-0.612 -0.752,0 -1.342,0.185 -1.764,0.553 -0.355,0.329 -0.535,0.73 -0.535,1.206 0,0.525 0.205,0.961 0.613,1.303 0.354,0.315 1,0.658 1.934,1.026 1.146,0.462 1.988,1 2.527,1.618 0.543,0.618 0.813,1.389 0.813,2.308 z"
           inkscape:connector-curvature="0"
           style="fill:#ffffff" />
        <path
           id="path4773"
           d="m 95.107,23.508 -2.35,0 0,4.659 c 0,1.185 0.414,1.776 1.244,1.776 0.381,0 0.697,-0.032 0.947,-0.099 l 0.059,1.619 c -0.42,0.157 -0.973,0.236 -1.658,0.236 -0.842,0 -1.5,-0.257 -1.975,-0.771 -0.473,-0.514 -0.711,-1.375 -0.711,-2.587 l 0,-4.837 -1.4,0 0,-1.6 1.4,0 0,-1.757 2.094,-0.632 0,2.389 2.35,0 0,1.604 z"
           inkscape:connector-curvature="0"
           style="fill:#ffffff" />
        <path
           id="path4775"
           d="m 105.689,26.627 c 0,1.475 -0.422,2.686 -1.264,3.633 -0.881,0.975 -2.053,1.461 -3.514,1.461 -1.41,0 -2.531,-0.467 -3.367,-1.4 -0.836,-0.935 -1.254,-2.113 -1.254,-3.534 0,-1.487 0.432,-2.705 1.293,-3.652 0.863,-0.948 2.025,-1.422 3.486,-1.422 1.408,0 2.539,0.468 3.395,1.402 0.818,0.906 1.225,2.076 1.225,3.512 z m -2.21,0.049 c 0,-0.879 -0.19,-1.633 -0.571,-2.264 -0.447,-0.762 -1.087,-1.143 -1.916,-1.143 -0.854,0 -1.509,0.381 -1.955,1.143 -0.382,0.631 -0.572,1.398 -0.572,2.304 0,0.88 0.19,1.636 0.572,2.265 0.461,0.762 1.104,1.143 1.937,1.143 0.815,0 1.454,-0.389 1.916,-1.162 0.392,-0.646 0.589,-1.405 0.589,-2.286 z"
           inkscape:connector-curvature="0"
           style="fill:#ffffff" />
        <path
           id="path4777"
           d="m 112.622,23.783 c -0.211,-0.039 -0.437,-0.059 -0.672,-0.059 -0.75,0 -1.33,0.282 -1.738,0.85 -0.354,0.5 -0.532,1.132 -0.532,1.895 l 0,5.035 -2.132,0 0,-6.574 c 0,-1.105 -0.021,-2.113 -0.062,-3.021 l 1.857,0 0.078,1.836 0.059,0 c 0.226,-0.631 0.58,-1.14 1.066,-1.521 0.475,-0.343 0.988,-0.514 1.541,-0.514 0.197,0 0.375,0.014 0.533,0.039 l 0.002,2.034 0,0 z"
           inkscape:connector-curvature="0"
           style="fill:#ffffff" />
        <path
           id="path4779"
           d="m 122.157,26.252 c 0,0.382 -0.025,0.704 -0.078,0.967 l -6.396,0 c 0.024,0.948 0.334,1.674 0.928,2.174 0.539,0.446 1.236,0.67 2.092,0.67 0.947,0 1.811,-0.15 2.588,-0.453 l 0.334,1.479 c -0.908,0.396 -1.98,0.593 -3.217,0.593 -1.488,0 -2.656,-0.438 -3.506,-1.312 -0.848,-0.875 -1.273,-2.051 -1.273,-3.524 0,-1.446 0.395,-2.651 1.186,-3.612 0.828,-1.026 1.947,-1.539 3.355,-1.539 1.383,0 2.43,0.513 3.141,1.539 0.563,0.813 0.846,1.821 0.846,3.018 z m -2.033,-0.553 c 0.015,-0.633 -0.125,-1.178 -0.414,-1.639 -0.369,-0.594 -0.937,-0.89 -1.698,-0.89 -0.697,0 -1.265,0.289 -1.697,0.869 -0.355,0.461 -0.566,1.015 -0.631,1.658 l 4.44,0.002 0,0 z"
           inkscape:connector-curvature="0"
           style="fill:#ffffff" />
      </g>
      <g
         transform="matrix(1.3753782,0,0,1.3753782,835.20595,848.678)"
         id="g4781">
        <path
           id="path4783"
           d="m 48.747,13.433 -1.117,0 -0.611,-1.921 -2.125,0 -0.583,1.921 -1.087,0 2.106,-6.541 1.3,0 2.117,6.541 z M 46.835,10.706 46.282,8.998 C 46.224,8.823 46.117,8.416 45.952,7.766 l -0.02,0 c -0.068,0.281 -0.165,0.689 -0.311,1.232 l -0.543,1.708 1.757,0 z"
           inkscape:connector-curvature="0"
           style="fill:#ffffff" />
        <path
           id="path4785"
           d="m 54.013,8.717 -1.786,4.716 -1.019,0 -1.728,-4.716 1.126,0 0.806,2.494 c 0.136,0.417 0.252,0.815 0.339,1.193 l 0.029,0 c 0.078,-0.339 0.194,-0.737 0.339,-1.193 l 0.796,-2.494 1.098,0 z"
           inkscape:connector-curvature="0"
           style="fill:#ffffff" />
        <path
           id="path4787"
           d="m 57.815,13.433 -0.078,-0.543 -0.029,0 c -0.32,0.437 -0.786,0.65 -1.378,0.65 -0.844,0 -1.446,-0.592 -1.446,-1.388 0,-1.164 1.009,-1.766 2.756,-1.766 l 0,-0.087 c 0,-0.621 -0.33,-0.932 -0.98,-0.932 -0.466,0 -0.874,0.117 -1.232,0.35 L 55.215,9.028 c 0.437,-0.272 0.98,-0.408 1.621,-0.408 1.232,0 1.854,0.65 1.854,1.951 l 0,1.737 c 0,0.476 0.02,0.845 0.068,1.126 l -0.943,-10e-4 0,0 z m -0.146,-2.349 c -1.165,0 -1.747,0.282 -1.747,0.951 0,0.495 0.301,0.737 0.718,0.737 0.534,0 1.029,-0.407 1.029,-0.96 l 0,-0.728 z"
           inkscape:connector-curvature="0"
           style="fill:#ffffff" />
        <path
           id="path4789"
           d="m 61.024,7.94 c -0.349,0 -0.621,-0.272 -0.621,-0.631 0,-0.359 0.281,-0.621 0.641,-0.621 0.359,0 0.65,0.262 0.64,0.621 0,0.379 -0.271,0.631 -0.66,0.631 z m 0.544,5.493 -1.048,0 0,-4.716 1.048,0 0,4.716 z"
           inkscape:connector-curvature="0"
           style="fill:#ffffff" />
        <path
           id="path4791"
           d="m 64.478,13.433 -1.048,0 0,-6.88 1.048,0 0,6.88 z"
           inkscape:connector-curvature="0"
           style="fill:#ffffff" />
        <path
           id="path4793"
           d="m 68.932,13.433 -0.078,-0.543 -0.029,0 c -0.32,0.437 -0.786,0.65 -1.378,0.65 -0.844,0 -1.446,-0.592 -1.446,-1.388 0,-1.164 1.009,-1.766 2.756,-1.766 l 0,-0.087 c 0,-0.621 -0.33,-0.932 -0.98,-0.932 -0.466,0 -0.874,0.117 -1.232,0.35 l -0.214,-0.69 c 0.437,-0.272 0.98,-0.408 1.621,-0.408 1.232,0 1.854,0.65 1.854,1.951 l 0,1.737 c 0,0.476 0.021,0.845 0.067,1.126 l -0.941,0 z m -0.146,-2.349 c -1.165,0 -1.747,0.282 -1.747,0.951 0,0.495 0.301,0.737 0.718,0.737 0.534,0 1.029,-0.407 1.029,-0.96 l 0,-0.728 z"
           inkscape:connector-curvature="0"
           style="fill:#ffffff" />
        <path
           id="path4795"
           d="m 74.052,13.54 c -0.669,0 -1.163,-0.282 -1.483,-0.835 l -0.021,0 -0.06,0.728 -0.893,0 c 0.029,-0.378 0.039,-0.806 0.039,-1.271 l 0,-5.609 1.049,0 0,2.854 0.02,0 c 0.311,-0.524 0.814,-0.786 1.504,-0.786 1.136,0 1.932,0.971 1.932,2.387 0,1.464 -0.884,2.532 -2.087,2.532 z M 73.839,9.444 c -0.603,0 -1.155,0.524 -1.155,1.252 l 0,0.825 c 0,0.65 0.496,1.184 1.137,1.184 0.785,0 1.252,-0.64 1.252,-1.659 -10e-4,-0.951 -0.487,-1.602 -1.234,-1.602 z"
           inkscape:connector-curvature="0"
           style="fill:#ffffff" />
        <path
           id="path4797"
           d="m 78.736,13.433 -1.047,0 0,-6.88 1.047,0 0,6.88 z"
           inkscape:connector-curvature="0"
           style="fill:#ffffff" />
        <path
           id="path4799"
           d="m 84.441,11.327 -3.146,0 c 0.021,0.893 0.611,1.397 1.485,1.397 0.466,0 0.893,-0.078 1.271,-0.223 l 0.163,0.728 c -0.446,0.194 -0.97,0.291 -1.581,0.291 -1.476,0 -2.349,-0.932 -2.349,-2.377 0,-1.446 0.894,-2.533 2.231,-2.533 1.203,0 1.961,0.893 1.961,2.242 0.004,0.184 -0.005,0.349 -0.035,0.475 z M 83.48,10.58 c 0,-0.728 -0.369,-1.242 -1.039,-1.242 -0.602,0 -1.076,0.524 -1.146,1.242 l 2.185,0 z"
           inkscape:connector-curvature="0"
           style="fill:#ffffff" />
        <path
           id="path4801"
           d="m 90.793,13.54 c -1.378,0 -2.271,-1.029 -2.271,-2.426 0,-1.456 0.912,-2.494 2.35,-2.494 1.357,0 2.271,0.98 2.271,2.417 0,1.474 -0.942,2.503 -2.35,2.503 z m 0.04,-4.154 c -0.757,0 -1.242,0.708 -1.242,1.698 0,0.971 0.495,1.679 1.232,1.679 0.737,0 1.231,-0.757 1.231,-1.699 0.001,-0.96 -0.484,-1.678 -1.221,-1.678 z"
           inkscape:connector-curvature="0"
           style="fill:#ffffff" />
        <path
           id="path4803"
           d="m 98.777,13.433 -1.047,0 0,-2.708 c 0,-0.834 -0.32,-1.252 -0.951,-1.252 -0.621,0 -1.049,0.534 -1.049,1.155 l 0,2.805 -1.047,0 0,-3.368 c 0,-0.417 -0.011,-0.864 -0.039,-1.349 l 0.922,0 0.049,0.728 0.029,0 c 0.28,-0.504 0.854,-0.825 1.494,-0.825 0.989,0 1.639,0.757 1.639,1.989 l 0,2.825 0,0 z"
           inkscape:connector-curvature="0"
           style="fill:#ffffff" />
        <path
           id="path4805"
           d="m 105.634,9.503 -1.153,0 0,2.29 c 0,0.583 0.203,0.874 0.61,0.874 0.185,0 0.341,-0.02 0.466,-0.049 l 0.029,0.796 c -0.204,0.078 -0.477,0.117 -0.814,0.117 -0.826,0 -1.319,-0.456 -1.319,-1.65 l 0,-2.378 -0.688,0 0,-0.786 0.688,0 0,-0.864 1.028,-0.311 0,1.174 1.153,0 0,0.787 z"
           inkscape:connector-curvature="0"
           style="fill:#ffffff" />
        <path
           id="path4807"
           d="m 111.184,13.433 -1.049,0 0,-2.688 c 0,-0.844 -0.32,-1.271 -0.951,-1.271 -0.543,0 -1.047,0.369 -1.047,1.116 l 0,2.843 -1.049,0 0,-6.88 1.049,0 0,2.833 0.02,0 c 0.33,-0.514 0.806,-0.767 1.417,-0.767 0.999,0 1.61,0.776 1.61,2.009 l 0,2.805 z"
           inkscape:connector-curvature="0"
           style="fill:#ffffff" />
        <path
           id="path4809"
           d="m 116.539,11.327 -3.145,0 c 0.02,0.893 0.61,1.397 1.484,1.397 0.467,0 0.893,-0.078 1.271,-0.223 l 0.164,0.728 c -0.446,0.194 -0.971,0.291 -1.582,0.291 -1.476,0 -2.349,-0.932 -2.349,-2.377 0,-1.446 0.894,-2.533 2.231,-2.533 1.203,0 1.961,0.893 1.961,2.242 0.004,0.184 -0.006,0.349 -0.035,0.475 z m -0.961,-0.747 c 0,-0.728 -0.368,-1.242 -1.038,-1.242 -0.603,0 -1.077,0.524 -1.146,1.242 l 2.184,0 z"
           inkscape:connector-curvature="0"
           style="fill:#ffffff" />
      </g>
    </g>
  </g>
</svg>
