<?xml version="1.0" encoding="UTF-8" standalone="no"?>
<!-- Created with Inkscape (http://www.inkscape.org/) -->

<svg
   xmlns:dc="http://purl.org/dc/elements/1.1/"
   xmlns:cc="http://creativecommons.org/ns#"
   xmlns:rdf="http://www.w3.org/1999/02/22-rdf-syntax-ns#"
   xmlns:svg="http://www.w3.org/2000/svg"
   xmlns="http://www.w3.org/2000/svg"
   xmlns:sodipodi="http://sodipodi.sourceforge.net/DTD/sodipodi-0.dtd"
   xmlns:inkscape="http://www.inkscape.org/namespaces/inkscape"
   width="38.967594mm"
   height="28.821863mm"
   viewBox="0 0 138.07416 102.12471"
   id="svg6506"
   version="1.1"
   inkscape:version="0.91 r"
   sodipodi:docname="bake_icon.svg">
  <defs
     id="defs6508" />
  <sodipodi:namedview
     id="base"
     pagecolor="#ffffff"
     bordercolor="#666666"
     borderopacity="1.0"
     inkscape:pageopacity="0.0"
     inkscape:pageshadow="2"
     inkscape:zoom="0.35"
     inkscape:cx="313.56506"
     inkscape:cy="-77.323262"
     inkscape:document-units="px"
     inkscape:current-layer="layer1"
     showgrid="false"
     fit-margin-top="0"
     fit-margin-left="0"
     fit-margin-right="0"
     fit-margin-bottom="0"
     inkscape:window-width="1440"
     inkscape:window-height="851"
     inkscape:window-x="0"
     inkscape:window-y="0"
     inkscape:window-maximized="1" />
  <metadata
     id="metadata6511">
    <rdf:RDF>
      <cc:Work
         rdf:about="">
        <dc:format>image/svg+xml</dc:format>
        <dc:type
           rdf:resource="http://purl.org/dc/dcmitype/StillImage" />
        <dc:title></dc:title>
      </cc:Work>
    </rdf:RDF>
  </metadata>
  <g
     inkscape:label="Layer 1"
     inkscape:groupmode="layer"
     id="layer1"
     transform="translate(-61.434941,-352.91423)">
    <path
       style="color:#000000;font-style:normal;font-variant:normal;font-weight:normal;font-stretch:normal;font-size:medium;line-height:normal;font-family:sans-serif;text-indent:0;text-align:start;text-decoration:none;text-decoration-line:none;text-decoration-style:solid;text-decoration-color:#000000;letter-spacing:normal;word-spacing:normal;text-transform:none;direction:ltr;block-progression:tb;writing-mode:lr-tb;baseline-shift:baseline;text-anchor:start;white-space:normal;clip-rule:nonzero;display:inline;overflow:visible;visibility:visible;opacity:1;isolation:auto;mix-blend-mode:normal;color-interpolation:sRGB;color-interpolation-filters:linearRGB;solid-color:#000000;solid-opacity:1;fill:#ffffff;fill-opacity:1;fill-rule:evenodd;stroke:none;stroke-width:5;stroke-linecap:butt;stroke-linejoin:round;stroke-miterlimit:4;stroke-dasharray:none;stroke-dashoffset:0;stroke-opacity:1;color-rendering:auto;image-rendering:auto;shape-rendering:auto;text-rendering:auto;enable-background:accumulate"
       d="m 111.63216,352.92323 c -0.80074,-0.1227 -2.63721,0.9905 -4.13866,4.4661 -0.67409,1.5877 -1.1928,3.5769 -1.34023,5.864 -0.20276,3.6743 0.38444,7.1792 1.25544,10.7383 l 0.0105,0.058 c 0.83124,3.7142 1.51302,5.9371 1.7292,8.5791 0.14946,1.5275 0.1369,2.9181 0.0322,4.1734 -0.24726,3.1951 -1.02349,5.385 -0.25673,6.1092 0.55013,0.5195 2.71293,-0.3839 4.44035,-4.3801 0.67843,-1.5957 1.19957,-3.5958 1.35179,-5.8961 0.2077,-3.661 -0.36386,-7.1692 -1.23368,-10.7216 l -0.0145,-0.057 c -0.84156,-3.7571 -1.53419,-5.9566 -1.76127,-8.6189 -0.1536,-1.5154 -0.1444,-2.8901 -0.0421,-4.1335 0.23636,-3.1629 1.00516,-5.3338 0.24267,-6.0566 -0.0681,-0.064 -0.16031,-0.107 -0.27474,-0.1245 z m 17.78208,0 c -0.80075,-0.1227 -2.63333,0.9905 -4.13485,4.4661 -0.67409,1.5877 -1.19274,3.5769 -1.34023,5.864 -0.2027,3.6743 0.3845,7.1792 1.25551,10.7383 l 0.0105,0.058 c 0.83117,3.7142 1.5117,5.9371 1.72788,8.5791 0.14946,1.5275 0.13809,2.9181 0.0335,4.1734 -0.24726,3.1951 -1.02349,5.385 -0.25673,6.1092 0.55013,0.5195 2.71286,-0.3839 4.44034,-4.3801 0.67843,-1.5957 1.19833,-3.5958 1.35049,-5.8961 0.20769,-3.661 -0.36262,-7.1692 -1.23237,-10.7216 l -0.0151,-0.057 c -0.84156,-3.7571 -1.53287,-5.9566 -1.75996,-8.6189 -0.15367,-1.5154 -0.1444,-2.8901 -0.0421,-4.1335 0.23628,-3.1629 1.00384,-5.3338 0.24134,-6.0566 -0.0681,-0.064 -0.163,-0.107 -0.27729,-0.1245 z m 17.78596,0 c -0.80075,-0.1227 -2.6334,0.9905 -4.13492,4.4661 -0.67402,1.5877 -1.19273,3.5769 -1.34016,5.864 -0.20276,3.6743 0.38319,7.1792 1.25419,10.7383 l 0.0118,0.058 c 0.83118,3.7142 1.51171,5.9371 1.72789,8.5791 0.14946,1.5275 0.13671,2.9181 0.0322,4.1734 -0.24726,3.1951 -1.02349,5.385 -0.25673,6.1092 0.55013,0.5195 2.71418,-0.3839 4.44166,-4.3801 0.67836,-1.5957 1.19826,-3.5958 1.35048,-5.8961 0.2077,-3.661 -0.36261,-7.1692 -1.23237,-10.7216 l -0.0151,-0.057 c -0.84163,-3.7571 -1.53294,-5.9566 -1.76003,-8.6189 -0.1536,-1.5154 -0.14571,-2.8901 -0.0434,-4.1335 0.23636,-3.1629 1.00516,-5.3338 0.24267,-6.0566 -0.0682,-0.064 -0.16294,-0.107 -0.2773,-0.1245 z m -11.2544,42.572 a 1.6433242,1.6433242 0 0 0 -0.39666,0.045 l -72.850999,17.2133 a 1.6433242,1.6433242 0 0 0 -1.2632,1.5996 l 0,0 0,17.7474 a 1.6433242,1.6433242 0 0 0 1.11939,1.5571 l 63.356629,21.297 a 1.6433242,1.6433242 0 0 0 1.32609,-0.1272 l 71.16552,-24.5459 a 1.6433242,1.6433242 0 0 0 1.10652,-1.5534 l 0,-18.2788 0,0 a 1.6433242,1.6433242 0 0 0 -1.29653,-1.6072 l -61.93681,-13.3096 a 1.6433242,1.6433242 0 0 0 -0.32607,-0.037 z m 0,3.3274 55.36167,11.8975 -25.79123,7.8179 a 1.6433242,1.6433242 0 0 0 0.0631,-0.9294 c -0.53744,-2.6912 -2.8006,-4.541 -5.49683,-5.7896 -2.69629,-1.2486 -5.99549,-1.9573 -9.31724,-2.104 -1.03131,-0.045 -2.06216,-0.03 -3.07967,0.039 a 1.6433489,1.6433489 0 0 0 -0.0296,-0.3967 c -0.53475,-2.6835 -2.7847,-4.5261 -5.46219,-5.7511 -2.6775,-1.225 -5.95054,-1.9025 -9.25435,-2.0193 -3.3038,-0.1167 -6.63435,0.3231 -9.41734,1.5341 -2.78299,1.2109 -5.10924,3.3515 -5.71129,6.4186 a 1.6433242,1.6433242 0 0 0 0.0105,0.7227 c -2.30976,-0.8773 -4.96642,-1.3895 -7.67277,-1.5097 -3.30741,-0.1468 -6.67878,0.2806 -9.53289,1.511 -2.854029,1.2303 -5.260999,3.3969 -6.036049,6.5354 a 1.6436265,1.6436265 0 0 0 3.19135,0.7882 c 0.48782,-1.9756 1.92085,-3.3462 4.146409,-4.3056 2.2255,-0.9594 5.17293,-1.3745 8.08613,-1.2452 2.91319,0.1293 5.79358,0.8024 7.86666,1.8126 2.07301,1.0103 3.15657,2.2502 3.29526,3.3685 a 1.6433242,1.6433242 0 1 0 3.26068,-0.4044 c -0.29932,-2.4131 -2.04724,-4.2043 -4.26709,-5.4673 a 1.6433242,1.6433242 0 0 0 0.87679,-1.1734 c 0.35716,-1.8198 1.6475,-3.1032 3.79721,-4.0385 2.14972,-0.9354 5.06915,-1.3652 7.9899,-1.262 2.92069,0.1033 5.84682,0.7359 8.00397,1.7228 2.15714,0.9869 3.37754,2.2582 3.60594,3.4044 a 1.6433489,1.6433489 0 0 0 0.0513,0.1926 c -1.10604,0.2379 -2.1693,0.5614 -3.15921,0.9898 -2.77897,1.2024 -5.08834,3.3796 -5.59831,6.4827 a 1.6433242,1.6433242 0 1 0 3.24268,0.5328 c 0.30116,-1.8326 1.53445,-3.0804 3.65991,-4.0001 2.12539,-0.9197 5.05173,-1.3288 7.99115,-1.199 2.93935,0.1299 5.89598,0.7918 8.08099,1.8036 2.18501,1.0118 3.42868,2.3123 3.65603,3.4507 a 1.6433242,1.6433242 0 0 0 0.65339,1.0449 l -36.59495,11.0926 -56.766049,-15.9001 66.296379,-15.6665 z m 60.27571,13.8424 0,14.8924 -68.13462,23.4997 0.0732,-17.7628 68.06146,-20.6293 z m -131.501559,3.855 60.153779,16.8488 -0.0745,17.7448 -60.079309,-20.1942 0,-14.3994 z"
       id="path5804"
       inkscape:connector-curvature="0" />
  </g>
</svg>
