<?xml version="1.0" encoding="UTF-8" standalone="no"?>
<!-- Created with Inkscape (http://www.inkscape.org/) -->

<svg
   xmlns:dc="http://purl.org/dc/elements/1.1/"
   xmlns:cc="http://creativecommons.org/ns#"
   xmlns:rdf="http://www.w3.org/1999/02/22-rdf-syntax-ns#"
   xmlns:svg="http://www.w3.org/2000/svg"
   xmlns="http://www.w3.org/2000/svg"
   xmlns:sodipodi="http://sodipodi.sourceforge.net/DTD/sodipodi-0.dtd"
   xmlns:inkscape="http://www.inkscape.org/namespaces/inkscape"
   width="43.584171mm"
   height="18.30228mm"
   viewBox="0 0 154.4321 64.8506"
   id="svg6628"
   version="1.1"
   inkscape:version="0.91 r"
   sodipodi:docname="google_rating.svg">
  <defs
     id="defs6630">
    <clipPath
       clipPathUnits="userSpaceOnUse"
       id="clipPath10074">
      <rect
         style="fill:#ffffff;fill-opacity:1;fill-rule:evenodd;stroke:none;stroke-width:1px;stroke-linecap:butt;stroke-linejoin:miter;stroke-opacity:1"
         id="rect10076"
         width="1200"
         height="2009.8448"
         x="1364.9861"
         y="166.16736" />
    </clipPath>
    <clipPath
       clipPathUnits="userSpaceOnUse"
       id="clipPath10062">
      <rect
         style="fill:#ffffff;fill-opacity:1;fill-rule:evenodd;stroke:none;stroke-width:1px;stroke-linecap:butt;stroke-linejoin:miter;stroke-opacity:1"
         id="rect10064"
         width="1200"
         height="2009.8448"
         x="1334.2468"
         y="136.16736" />
    </clipPath>
  </defs>
  <sodipodi:namedview
     id="base"
     pagecolor="#ffffff"
     bordercolor="#666666"
     borderopacity="1.0"
     inkscape:pageopacity="0.0"
     inkscape:pageshadow="2"
     inkscape:zoom="0.35"
     inkscape:cx="-309.21257"
     inkscape:cy="-179.00325"
     inkscape:document-units="px"
     inkscape:current-layer="layer1"
     showgrid="false"
     fit-margin-top="0"
     fit-margin-left="0"
     fit-margin-right="0"
     fit-margin-bottom="0"
     inkscape:window-width="1440"
     inkscape:window-height="851"
     inkscape:window-x="0"
     inkscape:window-y="0"
     inkscape:window-maximized="1" />
  <metadata
     id="metadata6633">
    <rdf:RDF>
      <cc:Work
         rdf:about="">
        <dc:format>image/svg+xml</dc:format>
        <dc:type
           rdf:resource="http://purl.org/dc/dcmitype/StillImage" />
        <dc:title></dc:title>
      </cc:Work>
    </rdf:RDF>
  </metadata>
  <g
     inkscape:label="Layer 1"
     inkscape:groupmode="layer"
     id="layer1"
     transform="translate(-257.06971,-288.50836)">
    <g
       transform="translate(-1241.8004,-1694.0674)"
       id="g6616">
      <path
         transform="translate(8.8053096,24.123556)"
         clip-path="url(#clipPath10074)"
         inkscape:connector-curvature="0"
         id="path5077-5-2"
         d="m 1507.793,1958.4522 -5.4172,11.2177 -12.311,1.8959 8.9931,8.619 -2.0009,12.2947 10.9761,-5.8908 11.0745,5.7023 -2.2111,-12.259 8.8456,-8.7706 -12.3409,-1.6856 -5.6082,-11.1236 z m 39.5849,0 -5.4172,11.2177 -12.311,1.8959 8.9931,8.619 -2.0009,12.2947 10.9762,-5.8908 11.0744,5.7023 -2.2111,-12.259 8.8457,-8.7706 -12.341,-1.6856 -5.6082,-11.1236 z m 39.5848,0 -5.417,11.2177 -12.3124,1.8959 8.9944,8.619 -2.0009,12.2947 10.9748,-5.8908 11.0759,5.7023 -2.2111,-12.259 8.8456,-8.7706 -12.3411,-1.6856 -5.6082,-11.1236 z m 39.585,0 -5.4185,11.2177 -12.311,1.8959 8.9944,8.619 -2.0008,12.2947 10.9747,-5.8908 11.0745,5.7023 -2.2097,-12.259 8.8456,-8.7706 -12.3424,-1.6856 -5.6068,-11.1236 z"
         style="fill:#575757;fill-opacity:1;fill-rule:evenodd;stroke:none;stroke-width:2.29633737;stroke-linecap:butt;stroke-linejoin:miter;stroke-miterlimit:4;stroke-dasharray:none;stroke-opacity:1" />
      <g
         clip-path="url(#clipPath10062)"
         transform="translate(39.5446,54.123556)"
         id="g10016">
        <text
           xml:space="preserve"
           style="color:#000000;font-style:normal;font-variant:normal;font-weight:normal;font-stretch:normal;font-size:25px;line-height:125%;font-family:'Tw Cen MT';-inkscape-font-specification:'Tw Cen MT';text-indent:0;text-align:start;text-decoration:none;text-decoration-line:none;text-decoration-style:solid;text-decoration-color:#000000;letter-spacing:0px;word-spacing:0px;text-transform:none;direction:ltr;block-progression:tb;writing-mode:lr-tb;baseline-shift:baseline;text-anchor:start;white-space:normal;clip-rule:nonzero;display:inline;overflow:visible;visibility:visible;opacity:1;isolation:auto;mix-blend-mode:normal;color-interpolation:sRGB;color-interpolation-filters:linearRGB;solid-color:#000000;solid-opacity:1;fill:#575757;fill-opacity:1;fill-rule:nonzero;stroke:none;stroke-width:3;stroke-linecap:butt;stroke-linejoin:miter;stroke-miterlimit:4;stroke-dasharray:none;stroke-dashoffset:0;stroke-opacity:1;color-rendering:auto;image-rendering:auto;shape-rendering:auto;text-rendering:auto;enable-background:accumulate"
           x="1492.5634"
           y="1992.1071"
           id="text9989"
           sodipodi:linespacing="125%"><tspan
             sodipodi:role="line"
             id="tspan9991"
             x="1492.5634"
             y="1992.1071">3374</tspan></text>
        <path
           style="fill:#575757;fill-opacity:1;fill-rule:evenodd;stroke:none;stroke-width:1px;stroke-linecap:butt;stroke-linejoin:miter;stroke-opacity:1"
           d="m 1569.75,1975.5792 a 5.8536906,5.8536906 0 0 0 -5.8537,5.8536 5.8536906,5.8536906 0 0 0 5.8537,5.8537 5.8536906,5.8536906 0 0 0 5.8537,-5.8537 5.8536906,5.8536906 0 0 0 -5.8537,-5.8536 z m -0.1626,11.7073 c -7.7487,0.03 -9.1057,6.0163 -9.1057,6.0163 l 18.5366,0 c 0,0 -1.6822,-6.0458 -9.4309,-6.0163 z"
           id="path10011"
           inkscape:connector-curvature="0" />
      </g>
    </g>
  </g>
</svg>
