<?xml version="1.0" encoding="UTF-8" standalone="no"?>
<!-- Created with Inkscape (http://www.inkscape.org/) -->

<svg
   xmlns:dc="http://purl.org/dc/elements/1.1/"
   xmlns:cc="http://creativecommons.org/ns#"
   xmlns:rdf="http://www.w3.org/1999/02/22-rdf-syntax-ns#"
   xmlns:svg="http://www.w3.org/2000/svg"
   xmlns="http://www.w3.org/2000/svg"
   xmlns:xlink="http://www.w3.org/1999/xlink"
   xmlns:sodipodi="http://sodipodi.sourceforge.net/DTD/sodipodi-0.dtd"
   xmlns:inkscape="http://www.inkscape.org/namespaces/inkscape"
   width="47.452389mm"
   height="15.522223mm"
   viewBox="0 0 168.13839 55.000001"
   id="svg5994"
   version="1.1"
   inkscape:version="0.91 r"
   sodipodi:docname="google.svg">
  <defs
     id="defs5996">
    <linearGradient
       y2="145.5137"
       x2="66.931602"
       y1="32.210899"
       x1="66.931602"
       gradientUnits="userSpaceOnUse"
       id="SVGID_3_-0">
      <stop
         id="stop4587-8"
         style="stop-color: rgb(37, 124, 176);"
         offset="0" />
      <stop
         id="stop4589-5"
         style="stop-color: rgb(74, 147, 181);"
         offset="0.2863" />
      <stop
         id="stop4591-2"
         style="stop-color: rgb(120, 188, 187);"
         offset="0.767" />
      <stop
         id="stop4593-5"
         style="stop-color: rgb(137, 207, 189);"
         offset="1" />
    </linearGradient>
    <clipPath
       id="SVGID_2_-3">
      <use
         id="use4584-5"
         overflow="visible"
         xlink:href="#SVGID_1_-8"
         style="overflow:visible"
         x="0"
         y="0"
         width="100%"
         height="100%" />
    </clipPath>
    <linearGradient
       y2="60.3311"
       x2="110.8442"
       y1="60.3311"
       x1="38.3647"
       gradientUnits="userSpaceOnUse"
       id="SVGID_4_-1">
      <stop
         id="stop4598-4"
         style="stop-color: rgb(82, 193, 173);"
         offset="0" />
      <stop
         id="stop4600-0"
         style="stop-color: rgb(222, 232, 154);"
         offset="1" />
    </linearGradient>
    <clipPath
       id="clipPath6020">
      <use
         id="use6022"
         overflow="visible"
         xlink:href="#SVGID_1_-8"
         style="overflow:visible"
         x="0"
         y="0"
         width="100%"
         height="100%" />
    </clipPath>
    <linearGradient
       y2="145.9258"
       x2="74.603996"
       y1="88.863297"
       x1="74.603996"
       gradientUnits="userSpaceOnUse"
       id="SVGID_5_-7">
      <stop
         id="stop4605-0"
         style="stop-color: rgb(236, 65, 61);"
         offset="0" />
      <stop
         id="stop4607-3"
         style="stop-color: rgb(218, 68, 82);"
         offset="0.1668" />
      <stop
         id="stop4609-6"
         style="stop-color: rgb(176, 72, 122);"
         offset="0.5748" />
      <stop
         id="stop4611-2"
         style="stop-color: rgb(149, 74, 146);"
         offset="0.8619" />
      <stop
         id="stop4613-6"
         style="stop-color: rgb(138, 74, 157);"
         offset="1" />
    </linearGradient>
    <clipPath
       id="clipPath6030">
      <use
         id="use6032"
         overflow="visible"
         xlink:href="#SVGID_1_-8"
         style="overflow:visible"
         x="0"
         y="0"
         width="100%"
         height="100%" />
    </clipPath>
    <linearGradient
       y2="104.0781"
       x2="116.3496"
       y1="73.6465"
       x1="116.3496"
       gradientUnits="userSpaceOnUse"
       id="SVGID_6_-4">
      <stop
         id="stop4618-8"
         style="stop-color: rgb(245, 136, 121);"
         offset="0" />
      <stop
         id="stop4620-5"
         style="stop-color: rgb(246, 144, 121);"
         offset="0.1194" />
      <stop
         id="stop4622-2"
         style="stop-color: rgb(252, 184, 119);"
         offset="0.7128" />
      <stop
         id="stop4624-6"
         style="stop-color: rgb(254, 200, 116);"
         offset="1" />
    </linearGradient>
    <clipPath
       id="clipPath6039">
      <use
         id="use6041"
         overflow="visible"
         xlink:href="#SVGID_1_-8"
         style="overflow:visible"
         x="0"
         y="0"
         width="100%"
         height="100%" />
    </clipPath>
  </defs>
  <sodipodi:namedview
     id="base"
     pagecolor="#ffffff"
     bordercolor="#666666"
     borderopacity="1.0"
     inkscape:pageopacity="0.0"
     inkscape:pageshadow="2"
     inkscape:zoom="0.35"
     inkscape:cx="447.64062"
     inkscape:cy="233.21429"
     inkscape:document-units="px"
     inkscape:current-layer="layer1"
     showgrid="false"
     fit-margin-top="0"
     fit-margin-left="0"
     fit-margin-right="0"
     fit-margin-bottom="0"
     inkscape:window-width="1440"
     inkscape:window-height="851"
     inkscape:window-x="0"
     inkscape:window-y="0"
     inkscape:window-maximized="1" />
  <metadata
     id="metadata5999">
    <rdf:RDF>
      <cc:Work
         rdf:about="">
        <dc:format>image/svg+xml</dc:format>
        <dc:type
           rdf:resource="http://purl.org/dc/dcmitype/StillImage" />
        <dc:title></dc:title>
      </cc:Work>
    </rdf:RDF>
  </metadata>
  <g
     inkscape:label="Layer 1"
     inkscape:groupmode="layer"
     id="layer1"
     transform="translate(72.64062,-710.57649)">
    <g
       id="g5845"
       transform="translate(-695.02466,-139.84896)">
      <path
         id="path4577"
         d="m 790.52242,897.99223 c 0,4.10451 -3.32707,7.43322 -7.43093,7.43322 l -153.27488,0 c -4.10419,3.3e-4 -7.43257,-3.32838 -7.43257,-7.43322 l 0,-40.13421 c 0,-4.10419 3.32838,-7.43257 7.43257,-7.43257 l 153.27455,0 c 4.10386,0 7.43093,3.32838 7.43093,7.43257 l 0,40.13421 z"
         inkscape:connector-curvature="0" />
      <g
         transform="matrix(0.32872913,0,0,0.32872913,622.38404,850.42545)"
         id="PLAY_2_">
        <defs
           id="defs4580">
          <path
             d="M 110.844,73.646 87.781,60.331 c 0,0 -42.016,-24.261 -44.486,-25.687 -2.47,-1.426 -4.931,-0.562 -4.931,2.418 0,4.965 0,51.8 0,51.8 0,0 0,50.615 0,52.851 0,2.234 1.759,3.197 3.905,1.959 2.145,-1.24 45.512,-26.279 45.512,-26.279 l 23.062,-13.314 c 0,0 19.568,-11.297 22.169,-12.798 2.601,-1.503 2.351,-3.563 0.156,-4.745 -2.194,-1.183 -22.324,-12.89 -22.324,-12.89 z"
             id="SVGID_1_-8"
             inkscape:connector-curvature="0" />
        </defs>
        <clipPath
           id="clipPath4422">
          <use
             id="use4424"
             overflow="visible"
             xlink:href="#SVGID_1_-8"
             style="overflow:visible"
             x="0"
             y="0"
             width="100%"
             height="100%" />
        </clipPath>
        <linearGradient
           y2="145.5137"
           x2="66.931602"
           y1="32.210899"
           x1="66.931602"
           gradientUnits="userSpaceOnUse"
           id="linearGradient4426">
          <stop
             id="stop4428"
             style="stop-color: rgb(37, 124, 176);"
             offset="0" />
          <stop
             id="stop4430"
             style="stop-color: rgb(74, 147, 181);"
             offset="0.2863" />
          <stop
             id="stop4432"
             style="stop-color: rgb(120, 188, 187);"
             offset="0.767" />
          <stop
             id="stop4434"
             style="stop-color: rgb(137, 207, 189);"
             offset="1" />
        </linearGradient>
        <polygon
           id="polygon4595"
           points="38.365,88.862 38.365,145.514 95.499,88.863 38.365,32.211 "
           clip-path="url(#SVGID_2_-3)"
           style="fill:url(#SVGID_3_-0)" />
        <linearGradient
           y2="60.3311"
           x2="110.8442"
           y1="60.3311"
           x1="38.3647"
           gradientUnits="userSpaceOnUse"
           id="linearGradient4437">
          <stop
             id="stop4439"
             style="stop-color: rgb(82, 193, 173);"
             offset="0" />
          <stop
             id="stop4441"
             style="stop-color: rgb(222, 232, 154);"
             offset="1" />
        </linearGradient>
        <polygon
           id="polygon4602"
           points="95.499,88.863 110.844,73.646 87.781,60.331 38.365,31.799 38.365,32.211 "
           clip-path="url(#SVGID_2_-3)"
           style="fill:url(#SVGID_4_-1)" />
        <linearGradient
           y2="145.9258"
           x2="74.603996"
           y1="88.863297"
           x1="74.603996"
           gradientUnits="userSpaceOnUse"
           id="linearGradient4444">
          <stop
             id="stop4446"
             style="stop-color: rgb(236, 65, 61);"
             offset="0" />
          <stop
             id="stop4448"
             style="stop-color: rgb(218, 68, 82);"
             offset="0.1668" />
          <stop
             id="stop4450"
             style="stop-color: rgb(176, 72, 122);"
             offset="0.5748" />
          <stop
             id="stop4452"
             style="stop-color: rgb(149, 74, 146);"
             offset="0.8619" />
          <stop
             id="stop4454"
             style="stop-color: rgb(138, 74, 157);"
             offset="1" />
        </linearGradient>
        <polygon
           id="polygon4615"
           points="95.499,88.863 38.365,145.514 38.365,145.926 87.781,117.393 110.843,104.078 "
           clip-path="url(#SVGID_2_-3)"
           style="fill:url(#SVGID_5_-7)" />
        <linearGradient
           y2="104.0781"
           x2="116.3496"
           y1="73.6465"
           x1="116.3496"
           gradientUnits="userSpaceOnUse"
           id="linearGradient4457">
          <stop
             id="stop4459"
             style="stop-color: rgb(245, 136, 121);"
             offset="0" />
          <stop
             id="stop4461"
             style="stop-color: rgb(246, 144, 121);"
             offset="0.1194" />
          <stop
             id="stop4463"
             style="stop-color: rgb(252, 184, 119);"
             offset="0.7128" />
          <stop
             id="stop4465"
             style="stop-color: rgb(254, 200, 116);"
             offset="1" />
        </linearGradient>
        <polygon
           id="polygon4626"
           points="95.499,88.863 110.843,104.078 137.2,88.862 110.844,73.646 "
           clip-path="url(#SVGID_2_-3)"
           style="fill:url(#SVGID_6_-4)" />
      </g>
      <path
         id="path4628"
         d="m 753.2373,886.918 c -0.70545,0 -1.3491,-0.13018 -1.93194,-0.3902 -0.58284,-0.26036 -1.07264,-0.66075 -1.46811,-1.20052 l -0.11834,0 c 0.0789,0.63247 0.11834,1.23208 0.11834,1.79848 l 0,4.45723 -1.6397,0 0,-15.69451 1.33399,0 0.22682,1.48257 0.0789,0 c 0.42209,-0.59336 0.91321,-1.02103 1.47304,-1.28468 0.55983,-0.26364 1.20249,-0.39546 1.92668,-0.39546 1.43655,0 2.54535,0.49112 3.32575,1.47271 0.78074,0.98159 1.17127,2.35896 1.17127,4.13081 0,1.77908 -0.39711,3.16073 -1.19033,4.14659 -0.79388,0.98487 -1.89578,1.47698 -3.30636,1.47698 z m -0.23734,-9.8336 c -1.10683,0 -1.90729,0.3067 -2.40137,0.91912 -0.49408,0.61275 -0.74786,1.58809 -0.76134,2.92569 l 0,0.36522 c 0,1.52234 0.25378,2.6111 0.76134,3.26691 0.50756,0.65581 1.32149,0.9829 2.44082,0.9829 0.93622,0 1.66928,-0.37837 2.19985,-1.13609 0.52991,-0.75739 0.7952,-1.80176 0.7952,-3.13344 0,-1.35009 -0.26529,-2.38691 -0.7952,-3.10814 -0.53024,-0.72189 -1.27711,-1.08217 -2.2393,-1.08217 z"
         inkscape:connector-curvature="0"
         style="fill:#f9f9f9" />
      <path
         id="path4630"
         d="m 761.53278,886.7201 -1.64036,0 0,-15.37794 1.64036,0 0,15.37794 z"
         inkscape:connector-curvature="0"
         style="fill:#f9f9f9" />
      <path
         id="path4632"
         d="m 770.965,886.7201 -0.32642,-1.54174 -0.0789,0 c -0.54043,0.67916 -1.07889,1.13905 -1.61603,1.37869 -0.53682,0.24096 -1.20742,0.36095 -2.01084,0.36095 -1.07396,0 -1.9155,-0.27679 -2.52529,-0.83004 -0.6098,-0.55325 -0.9142,-1.34023 -0.9142,-2.36192 0,-2.18704 1.7495,-3.33364 5.24783,-3.43949 l 1.83891,-0.0595 0,-0.67193 c 0,-0.85009 -0.1831,-1.47796 -0.54897,-1.88263 -0.36522,-0.40565 -0.95102,-0.60815 -1.7541,-0.60815 -0.90302,0 -1.92438,0.27679 -3.06376,0.83004 l -0.50427,-1.25508 c 0.53419,-0.28994 1.11834,-0.51709 1.75476,-0.68179 0.63576,-0.16469 1.27284,-0.2472 1.91221,-0.2472 1.29125,0 2.24818,0.28632 2.87112,0.85963 0.62229,0.5733 0.93359,1.49243 0.93359,2.7577 l 0,7.39214 -1.21564,0 z m -3.70609,-1.15581 c 1.02071,0 1.82281,-0.28007 2.4063,-0.8399 0.58251,-0.55983 0.87475,-1.34417 0.87475,-2.35271 l 0,-0.9783 -1.64135,0.0687 c -1.30439,0.047 -2.24423,0.24885 -2.82148,0.60881 -0.57626,0.35897 -0.86456,0.91748 -0.86456,1.6752 0,0.5927 0.17916,1.04437 0.53879,1.35338 0.3593,0.30999 0.86127,0.46482 1.50755,0.46482 z"
         inkscape:connector-curvature="0"
         style="fill:#f9f9f9" />
      <path
         id="path4634"
         d="m 773.13297,875.88848 1.7587,0 2.37211,6.17715 c 0.52038,1.41025 0.84352,2.42799 0.9691,3.05422 l 0.0789,0 c 0.0858,-0.33662 0.26562,-0.91091 0.53846,-1.7255 0.2735,-0.81393 1.1683,-3.31523 2.68309,-7.50587 l 1.76001,0 -4.65546,12.33425 c -0.46088,1.21892 -0.99966,2.08381 -1.61636,2.59531 -0.61571,0.51019 -1.37212,0.76495 -2.26724,0.76495 -0.50099,0 -0.99507,-0.0559 -1.48323,-0.16765 l 0,-1.31426 c 0.36226,0.0789 0.76791,0.11867 1.21597,0.11867 1.12688,0 1.92997,-0.63247 2.41156,-1.89775 l 0.60256,-1.54141 -4.36816,-10.89211 z"
         inkscape:connector-curvature="0"
         style="fill:#f9f9f9" />
      <path
         id="path4636"
         d="m 722.84662,876.89505 c 0.52071,0.43096 1.60814,1.33628 1.60814,3.05915 0,1.67553 -0.95167,2.47007 -1.90334,3.21662 -0.29454,0.29421 -0.63445,0.61242 -0.63445,1.11143 0,0.49737 0.33958,0.76955 0.58974,0.97369 l 0.81591,0.63314 c 0.99671,0.83859 1.90203,1.60946 1.90203,3.17322 0,2.12951 -2.06179,4.28104 -5.95789,4.28104 -3.28565,0 -4.87078,-1.56278 -4.87078,-3.24028 0,-0.81525 0.40598,-1.97008 1.74457,-2.76396 1.40367,-0.86094 3.308,-0.97304 4.32706,-1.04273 -0.31821,-0.40729 -0.67981,-0.83793 -0.67981,-1.53911 0,-0.38461 0.11374,-0.61143 0.22649,-0.88461 -0.25016,0.023 -0.49901,0.0457 -0.72583,0.0457 -2.40071,0 -3.76001,-1.78993 -3.76001,-3.5562 0,-1.0424 0.47633,-2.19854 1.44937,-3.03581 1.29191,-1.06475 2.83233,-1.24654 4.05685,-1.24654 l 4.66598,0 -1.45003,0.81558 -1.404,0 z m -1.60913,10.05977 c -0.18113,-0.0237 -0.29487,-0.0237 -0.52038,-0.0237 -0.20381,0 -1.42898,0.0463 -2.37934,0.36423 -0.49835,0.17982 -1.9487,0.72353 -1.9487,2.33299 0,1.60782 1.56409,2.76494 3.98847,2.76494 2.17355,0 3.33035,-1.04437 3.33035,-2.44772 0,-1.15778 -0.74786,-1.76691 -2.4704,-2.99077 z m 0.65746,-4.30537 c 0.52038,-0.52169 0.56509,-1.24588 0.56509,-1.65416 0,-1.63083 -0.9737,-4.16829 -2.8537,-4.16829 -0.58974,0 -1.22353,0.29421 -1.58612,0.74786 -0.38461,0.47567 -0.49901,1.08678 -0.49901,1.67652 0,1.51774 0.88362,4.03285 2.83299,4.03285 0.5664,0 1.17685,-0.27186 1.54075,-0.63478 z"
         inkscape:connector-curvature="0"
         style="fill:#f9f9f9" />
      <path
         id="path4638"
         d="m 708.58339,886.59223 c -3.59597,0 -5.5187,-2.80505 -5.5187,-5.33889 0,-2.96349 2.41977,-5.49569 5.85927,-5.49569 3.32345,0 5.40463,2.60024 5.40463,5.3379 3.3e-4,2.66796 -2.05719,5.49668 -5.7452,5.49668 z m 2.82707,-1.83201 c 0.54372,-0.72452 0.67949,-1.62885 0.67949,-2.51182 0,-1.99111 -0.95003,-5.79056 -3.75508,-5.79056 -0.74621,0 -1.49243,0.29454 -2.03516,0.77054 -0.88231,0.79059 -1.04141,1.78631 -1.04141,2.76001 0,2.23766 1.10847,5.9237 3.84613,5.9237 0.88198,0 1.78697,-0.42899 2.30603,-1.15187 z"
         inkscape:connector-curvature="0"
         style="fill:#f9f9f9" />
      <path
         id="path4640"
         d="m 696.32344,886.59223 c -3.59663,0 -5.51969,-2.80505 -5.51969,-5.33889 0,-2.96349 2.42076,-5.49569 5.85927,-5.49569 3.32443,0 5.40529,2.60024 5.40529,5.3379 3.3e-4,2.66796 -2.05752,5.49668 -5.74487,5.49668 z m 2.82773,-1.83201 c 0.54273,-0.72452 0.67882,-1.62885 0.67882,-2.51182 0,-1.99111 -0.95068,-5.79056 -3.75573,-5.79056 -0.74588,0 -1.49276,0.29454 -2.03516,0.77054 -0.88231,0.79059 -1.04043,1.78631 -1.04043,2.76001 0,2.23766 1.10782,5.9237 3.84581,5.9237 0.8823,0 1.78664,-0.42899 2.30669,-1.15187 z"
         inkscape:connector-curvature="0"
         style="fill:#f9f9f9" />
      <path
         id="path4642"
         d="m 689.07595,886.23753 -3.25245,0.75049 c -1.31952,0.20513 -2.50163,0.3856 -3.75178,0.3856 -6.27741,0 -8.66432,-4.61667 -8.66432,-8.23269 0,-4.41122 3.38789,-8.50357 9.18765,-8.50357 1.22846,0 2.40992,0.18146 3.47862,0.47732 1.70544,0.47764 2.5013,1.06836 3.00195,1.40991 l -1.88822,1.79651 -0.79552,0.18113 0.56837,-0.90992 c -0.77284,-0.74983 -2.18408,-2.13674 -4.86651,-2.13674 -3.59334,0 -6.30009,2.73009 -6.30009,6.70936 0,4.27414 3.09334,8.29942 8.04992,8.29942 1.45692,0 2.20577,-0.2952 2.88854,-0.5687 l 0,-3.6604 -3.43325,0.18179 1.81853,-0.97896 4.82147,0 -0.59072,0.56838 c -0.16042,0.13708 -0.18245,0.1831 -0.22781,0.36324 -0.0237,0.20513 -0.045,0.86522 -0.045,1.09237 l 0,2.77546 z"
         inkscape:connector-curvature="0"
         style="fill:#f9f9f9" />
      <path
         id="path4644"
         d="m 730.03428,885.5827 c -0.75081,-0.0684 -0.90795,-0.20414 -0.90795,-1.09204 l 0,-0.25049 0,-12.62057 c 0.005,-0.049 0.008,-0.0993 0.0122,-0.14661 0.0917,-0.79552 0.31886,-0.93195 1.02464,-1.34187 l -3.2531,0 -1.7061,0.81886 1.73865,0 0,0.0102 -0.001,-0.008 0,13.28855 0,0.75115 c 0,0.45397 -0.0897,0.523 -0.61341,1.20446 l 4.02562,0 0.84155,-0.49901 c -0.38626,-0.047 -0.7735,-0.069 -1.16075,-0.1144 z"
         inkscape:connector-curvature="0"
         style="fill:#f9f9f9" />
      <path
         id="path4646"
         d="m 739.28801,885.79177 c -0.24753,0.13577 -0.49605,0.29454 -0.74359,0.40664 -0.74654,0.33859 -1.51412,0.42932 -2.19295,0.42932 -0.7209,0 -1.85107,-0.0467 -3.00393,-0.88132 -1.60222,-1.13017 -2.30241,-3.0723 -2.30241,-4.76559 0,-3.49998 2.84547,-5.21627 5.17156,-5.21627 0.81328,0 1.64989,0.20282 2.3274,0.6328 1.1282,0.74392 1.42176,1.71498 1.57889,2.2347 l -5.30602,2.14628 -1.7393,0.13543 c 0.56377,2.86816 2.5059,4.53811 4.65217,4.53811 1.15154,0 1.9875,-0.40565 2.75508,-0.78895 l -1.1969,1.12885 z m -2.12228,-6.73105 c 0.42834,-0.15747 0.65417,-0.29356 0.65417,-0.60947 0,-0.90269 -1.01577,-1.94213 -2.23634,-1.94213 -0.90433,0 -2.59696,0.70052 -2.59696,3.13903 0,0.38396 0.0454,0.79027 0.0687,1.19822 l 4.11043,-1.78565 z"
         inkscape:connector-curvature="0"
         style="fill:#f9f9f9" />
      <path
         id="path4648"
         d="m 741.46781,875.91905 0,1.49013 -0.18113,0 0,-1.49013 -0.49309,0 0,-0.1545 1.16699,0 0,0.1545 -0.49277,0 z"
         inkscape:connector-curvature="0"
         style="fill:#f9f9f9" />
      <path
         id="path4650"
         d="m 743.49936,877.40918 0,-1.50394 -0.008,0 -0.45891,1.50394 -0.14168,0 -0.46285,-1.50394 -0.006,0 0,1.50394 -0.16436,0 0,-1.64463 0.28172,0 0.4188,1.32938 0.006,0 0.41255,-1.32938 0.28567,0 0,1.64463 -0.16272,0 z"
         inkscape:connector-curvature="0"
         style="fill:#f9f9f9" />
      <path
         id="path4652"
         d="m 677.92414,866.20938 -1.13017,0 c 0,-0.15549 -0.10717,-0.59566 -0.3215,-1.32083 l -1.63148,0 c -0.22123,0.71334 -0.33202,1.15351 -0.33202,1.32083 l -1.06278,0 c 0,-0.0917 0.27482,-0.84516 0.82446,-2.26001 0.54963,-1.41485 0.82445,-2.19427 0.82445,-2.3376 l 1.33497,0 c 0,0.13413 0.24885,0.90204 0.74687,2.30407 0.49802,1.40203 0.7472,2.16632 0.7472,2.29354 z m -1.63148,-1.99539 c -0.40269,-1.21465 -0.60388,-1.87145 -0.60388,-1.9704 l -0.0565,0 c 0,0.0917 -0.20841,0.74852 -0.62491,1.9704 l 1.28533,0 z"
         inkscape:connector-curvature="0"
         style="fill:#f9f9fa" />
      <path
         id="path4654"
         d="m 682.4777,866.20938 -0.87212,0 c 0,-0.0966 -0.3238,-0.60618 -0.97107,-1.52892 -0.67784,-0.97238 -1.06409,-1.63707 -1.15811,-1.99506 l -0.0565,0 c 0.0588,0.51545 0.0884,0.98159 0.0884,1.39842 0,0.58152 0.0164,1.29026 0.0493,2.12589 l -0.86883,0 c 0.0352,-0.72978 0.0529,-1.53122 0.0529,-2.40466 0,-0.85929 -0.0177,-1.59039 -0.0529,-2.19295 l 1.04864,0 c 0,0.12492 0.2906,0.62294 0.87212,1.49375 0.619,0.92504 0.97468,1.55259 1.0664,1.8823 l 0.0529,0 c -0.0565,-0.52498 -0.0848,-0.99572 -0.0848,-1.41255 0,-0.63773 -0.0164,-1.29256 -0.0493,-1.9635 l 0.88297,0 c -0.0332,0.58383 -0.0493,1.31492 -0.0493,2.19295 -3.3e-4,0.88461 0.0161,1.68606 0.0493,2.40433 z"
         inkscape:connector-curvature="0"
         style="fill:#f9f9fa" />
      <path
         id="path4656"
         d="m 687.59568,863.75147 c 0,0.66864 -0.21433,1.25246 -0.64266,1.75147 -0.42867,0.49934 -1.02893,0.74852 -1.80111,0.74852 -0.34845,0 -0.82873,-0.0141 -1.44082,-0.0424 0.0306,-0.71104 0.046,-1.51281 0.046,-2.40465 0,-0.85667 -0.0154,-1.58776 -0.046,-2.19296 l 0.61801,0 c 0.10125,0 0.25181,-0.004 0.452,-0.0105 0.19987,-0.007 0.3307,-0.0105 0.39185,-0.0105 0.84976,0 1.4658,0.21203 1.84877,0.63576 0.38264,0.42373 0.57396,0.93195 0.57396,1.5253 z m -0.96383,0.15187 c 0,-0.452 -0.13182,-0.83267 -0.39546,-1.14266 -0.26364,-0.30933 -0.66634,-0.46416 -1.20775,-0.46416 -0.10125,0 -0.23998,0.0105 -0.41683,0.0319 0.0233,0.47107 0.0352,0.96285 0.0352,1.476 0,0.56278 0.0118,1.12063 0.0352,1.67389 0.15286,0.0306 0.30605,0.046 0.45891,0.046 0.50624,0 0.88099,-0.15746 1.12458,-0.47173 0.24359,-0.31426 0.36621,-0.69723 0.36621,-1.14924 z"
         inkscape:connector-curvature="0"
         style="fill:#f9f9fa" />
      <path
         id="path4658"
         d="m 692.31525,866.20938 -1.04536,0 c -0.27318,-0.83333 -0.48258,-1.34779 -0.62853,-1.54306 -0.14596,-0.19559 -0.38133,-0.29322 -0.70611,-0.29322 -0.13675,0 -0.26726,10e-4 -0.39185,0.004 0,0.60519 0.0105,1.21597 0.0319,1.83267 l -0.98159,0 c 0.0306,-0.71104 0.046,-1.51281 0.046,-2.40465 0,-0.85667 -0.0154,-1.58777 -0.046,-2.19296 l 0.61078,0 c 0.0707,0 0.21828,-0.004 0.44313,-0.0105 0.22485,-0.007 0.43261,-0.0105 0.62327,-0.0105 1.08053,0 1.62096,0.3695 1.62096,1.10881 0,0.58612 -0.30835,0.9944 -0.92504,1.2255 l 0,0.0529 c 0.23767,0.0657 0.44608,0.25147 0.62491,0.55588 0.1785,0.30473 0.41979,0.86324 0.72354,1.67553 z m -1.32413,-3.24883 c 0,-0.46844 -0.30144,-0.70282 -0.904,-0.70282 -0.22124,0 -0.41683,0.0164 -0.58612,0.0493 0.026,0.36489 0.0388,0.84056 0.0388,1.42668 0.12951,0.005 0.23898,0.007 0.3284,0.007 0.74851,3.3e-4 1.12293,-0.25969 1.12293,-0.78007 z"
         inkscape:connector-curvature="0"
         style="fill:#f9f9fa" />
      <path
         id="path4660"
         d="m 697.37702,863.82576 c 0,0.72255 -0.22124,1.32182 -0.66404,1.7975 -0.44279,0.47534 -0.99013,0.71334 -1.642,0.71334 -0.62163,0 -1.142,-0.21828 -1.5608,-0.65516 -0.41913,-0.43655 -0.62853,-0.99178 -0.62853,-1.66468 0,-0.72255 0.22123,-1.32182 0.66403,-1.7975 0.44247,-0.47534 0.9898,-0.71334 1.642,-0.71334 0.62163,0 1.14168,0.21762 1.56081,0.65319 0.41913,0.43556 0.62853,0.99079 0.62853,1.66665 z m -0.97436,0.10224 c 0,-0.49211 -0.1259,-0.89119 -0.37771,-1.19723 -0.25213,-0.30605 -0.56278,-0.45891 -0.93227,-0.45891 -0.34385,0 -0.63576,0.15418 -0.87574,0.46252 -0.23997,0.30835 -0.36061,0.6979 -0.36061,1.16896 0,0.48948 0.12656,0.8879 0.37968,1.19526 0.25312,0.30737 0.56311,0.46088 0.93063,0.46088 0.34352,0 0.63576,-0.15483 0.87574,-0.46449 0.23997,-0.30934 0.36028,-0.69855 0.36028,-1.16699 z"
         inkscape:connector-curvature="0"
         style="fill:#f9f9fa" />
      <path
         id="path4662"
         d="m 699.37372,866.20938 -0.99934,0 c 0.0306,-0.72978 0.046,-1.53122 0.046,-2.40465 0,-0.8593 -0.0154,-1.5904 -0.046,-2.19296 l 0.99934,0 c -0.0306,0.59336 -0.046,1.32412 -0.046,2.19296 0,0.88724 0.0154,1.68901 0.046,2.40465 z"
         inkscape:connector-curvature="0"
         style="fill:#f9f9fa" />
      <path
         id="path4664"
         d="m 704.49203,863.75147 c 0,0.66864 -0.21433,1.25246 -0.64267,1.75147 -0.42866,0.49934 -1.02892,0.74852 -1.8011,0.74852 -0.34846,0 -0.82873,-0.0141 -1.44082,-0.0424 0.0306,-0.71104 0.046,-1.51281 0.046,-2.40465 0,-0.85667 -0.0154,-1.58776 -0.046,-2.19296 l 0.61801,0 c 0.10125,0 0.2518,-0.004 0.452,-0.0105 0.19987,-0.007 0.3307,-0.0105 0.39185,-0.0105 0.84976,0 1.4658,0.21203 1.84877,0.63576 0.38264,0.42373 0.57396,0.93195 0.57396,1.5253 z m -0.96383,0.15187 c 0,-0.452 -0.13182,-0.83267 -0.39547,-1.14266 -0.26364,-0.30933 -0.66633,-0.46416 -1.20775,-0.46416 -0.10124,0 -0.23997,0.0105 -0.41682,0.0319 0.0233,0.47107 0.0352,0.96285 0.0352,1.476 0,0.56278 0.0118,1.12063 0.0352,1.67389 0.15286,0.0306 0.30605,0.046 0.45891,0.046 0.50624,0 0.88099,-0.15746 1.12458,-0.47173 0.24359,-0.31426 0.36621,-0.69723 0.36621,-1.14924 z"
         inkscape:connector-curvature="0"
         style="fill:#f9f9fa" />
      <path
         id="path4666"
         d="m 711.28226,866.20938 -1.13017,0 c 0,-0.15549 -0.10717,-0.59566 -0.32183,-1.32083 l -1.63148,0 c -0.22124,0.71334 -0.33202,1.15351 -0.33202,1.32083 l -1.06245,0 c 0,-0.0917 0.27482,-0.84516 0.82445,-2.26001 0.54964,-1.41485 0.82446,-2.19427 0.82446,-2.3376 l 1.33496,0 c 0,0.13413 0.24918,0.90204 0.74688,2.30407 0.49769,1.40203 0.7472,2.16632 0.7472,2.29354 z m -1.63148,-1.99539 c -0.4027,-1.21465 -0.60421,-1.87145 -0.60421,-1.9704 l -0.0565,0 c 0,0.0917 -0.20809,0.74852 -0.62458,1.9704 l 1.28533,0 z"
         inkscape:connector-curvature="0"
         style="fill:#f9f9fa" />
      <path
         id="path4668"
         d="m 715.40123,862.81558 c 0,0.56278 -0.20907,0.9783 -0.62688,1.24654 -0.41782,0.26824 -0.93031,0.40269 -1.5378,0.40269 -0.11078,0 -0.18934,-0.002 -0.23668,-0.007 0,0.4428 0.0128,1.02629 0.0388,1.75147 l -0.99243,0 c 0.0306,-0.68014 0.046,-1.48191 0.046,-2.40465 0,-0.84747 -0.0154,-1.57856 -0.046,-2.19296 l 0.61439,0 c 0.0871,0 0.25411,-0.004 0.50131,-0.0105 0.24721,-0.007 0.46121,-0.0105 0.64267,-0.0105 0.44707,0 0.82511,0.10125 1.13346,0.30375 0.30834,0.2025 0.46317,0.5092 0.46317,0.9211 z m -0.9109,0.19428 c 0,-0.50361 -0.33432,-0.75575 -1.00296,-0.75575 -0.16732,0 -0.34385,0.0177 -0.52958,0.0529 0.026,0.44509 0.0388,0.94871 0.0388,1.51149 0.0588,0.005 0.12722,0.007 0.2048,0.007 0.8593,3.2e-4 1.28895,-0.27153 1.28895,-0.81558 z"
         inkscape:connector-curvature="0"
         style="fill:#f9f9fa" />
      <path
         id="path4670"
         d="m 719.63658,862.81558 c 0,0.56278 -0.20907,0.9783 -0.62656,1.24654 -0.41781,0.26824 -0.93063,0.40269 -1.53812,0.40269 -0.11078,0 -0.18935,-0.002 -0.23669,-0.007 0,0.4428 0.0128,1.02629 0.0388,1.75147 l -0.99243,0 c 0.0306,-0.68014 0.046,-1.48191 0.046,-2.40465 0,-0.84747 -0.0154,-1.57856 -0.046,-2.19296 l 0.6144,0 c 0.0871,0 0.2541,-0.004 0.50131,-0.0105 0.2472,-0.007 0.4612,-0.0105 0.64266,-0.0105 0.44707,0 0.82511,0.10125 1.13346,0.30375 0.30835,0.2025 0.46318,0.5092 0.46318,0.9211 z m -0.91091,0.19428 c 0,-0.50361 -0.33432,-0.75575 -1.00295,-0.75575 -0.16732,0 -0.34385,0.0177 -0.52958,0.0529 0.026,0.44509 0.0388,0.94871 0.0388,1.51149 0.0588,0.005 0.12722,0.007 0.2048,0.007 0.85929,3.2e-4 1.28894,-0.27153 1.28894,-0.81558 z"
         inkscape:connector-curvature="0"
         style="fill:#f9f9fa" />
      <path
         id="path4672"
         d="m 726.56126,863.82576 c 0,0.72255 -0.22123,1.32182 -0.66403,1.7975 -0.4428,0.47567 -0.99014,0.71334 -1.642,0.71334 -0.62163,0 -1.14201,-0.21828 -1.56081,-0.65516 -0.4188,-0.43655 -0.62853,-0.99178 -0.62853,-1.66468 0,-0.72255 0.22123,-1.32182 0.66403,-1.7975 0.4428,-0.47567 0.99013,-0.71334 1.642,-0.71334 0.62163,0 1.14201,0.21762 1.56081,0.65319 0.4188,0.43556 0.62853,0.99079 0.62853,1.66665 z m -0.97468,0.10224 c 0,-0.49211 -0.12591,-0.89119 -0.37771,-1.19723 -0.25181,-0.30605 -0.56279,-0.45891 -0.93228,-0.45891 -0.34385,0 -0.63576,0.15418 -0.87573,0.46252 -0.23997,0.30835 -0.36029,0.6979 -0.36029,1.16896 0,0.48948 0.12656,0.8879 0.37968,1.19526 0.25312,0.30737 0.56312,0.46088 0.93031,0.46088 0.34385,0 0.63576,-0.15483 0.87573,-0.46449 0.2403,-0.30934 0.36029,-0.69855 0.36029,-1.16699 z"
         inkscape:connector-curvature="0"
         style="fill:#f9f9fa" />
      <path
         id="path4674"
         d="m 731.34756,866.20938 -0.87212,0 c 0,-0.0966 -0.32347,-0.60618 -0.97107,-1.52892 -0.67784,-0.97238 -1.06409,-1.63707 -1.15811,-1.99506 l -0.0565,0 c 0.0588,0.51545 0.0884,0.98159 0.0884,1.39842 0,0.58152 0.0164,1.29026 0.0493,2.12589 l -0.86884,0 c 0.0352,-0.72978 0.0529,-1.53122 0.0529,-2.40466 0,-0.85929 -0.0177,-1.59039 -0.0529,-2.19295 l 1.04865,0 c 0,0.12492 0.29093,0.62294 0.87212,1.49375 0.61932,0.92504 0.97468,1.55259 1.0664,1.8823 l 0.0529,0 c -0.0565,-0.52498 -0.0848,-0.99572 -0.0848,-1.41255 0,-0.63773 -0.0164,-1.29256 -0.0493,-1.9635 l 0.88297,0 c -0.0332,0.58383 -0.0493,1.31492 -0.0493,2.19295 0,0.88461 0.0164,1.68606 0.0493,2.40433 z"
         inkscape:connector-curvature="0"
         style="fill:#f9f9fa" />
    </g>
  </g>
</svg>
