<?xml version="1.0" encoding="UTF-8" standalone="no"?>
<!-- Created with Inkscape (http://www.inkscape.org/) -->

<svg
   xmlns:dc="http://purl.org/dc/elements/1.1/"
   xmlns:cc="http://creativecommons.org/ns#"
   xmlns:rdf="http://www.w3.org/1999/02/22-rdf-syntax-ns#"
   xmlns:svg="http://www.w3.org/2000/svg"
   xmlns="http://www.w3.org/2000/svg"
   xmlns:sodipodi="http://sodipodi.sourceforge.net/DTD/sodipodi-0.dtd"
   xmlns:inkscape="http://www.inkscape.org/namespaces/inkscape"
   width="18.351664mm"
   height="26.460554mm"
   viewBox="0 0 65.025582 93.757869"
   id="svg6506"
   version="1.1"
   inkscape:version="0.91 r"
   sodipodi:docname="grate_icon.svg">
  <defs
     id="defs6508" />
  <sodipodi:namedview
     id="base"
     pagecolor="#ffffff"
     bordercolor="#666666"
     borderopacity="1.0"
     inkscape:pageopacity="0.0"
     inkscape:pageshadow="2"
     inkscape:zoom="0.35"
     inkscape:cx="78.813699"
     inkscape:cy="-128.38562"
     inkscape:document-units="px"
     inkscape:current-layer="layer1"
     showgrid="false"
     fit-margin-top="0"
     fit-margin-left="0"
     fit-margin-right="0"
     fit-margin-bottom="0"
     inkscape:window-width="1440"
     inkscape:window-height="851"
     inkscape:window-x="0"
     inkscape:window-y="0"
     inkscape:window-maximized="1" />
  <metadata
     id="metadata6511">
    <rdf:RDF>
      <cc:Work
         rdf:about="">
        <dc:format>image/svg+xml</dc:format>
        <dc:type
           rdf:resource="http://purl.org/dc/dcmitype/StillImage" />
        <dc:title></dc:title>
      </cc:Work>
    </rdf:RDF>
  </metadata>
  <g
     inkscape:label="Layer 1"
     inkscape:groupmode="layer"
     id="layer1"
     transform="translate(-296.1863,-310.21871)">
    <path
       style="color:#000000;font-style:normal;font-variant:normal;font-weight:normal;font-stretch:normal;font-size:medium;line-height:normal;font-family:sans-serif;text-indent:0;text-align:start;text-decoration:none;text-decoration-line:none;text-decoration-style:solid;text-decoration-color:#000000;letter-spacing:normal;word-spacing:normal;text-transform:none;direction:ltr;block-progression:tb;writing-mode:lr-tb;baseline-shift:baseline;text-anchor:start;white-space:normal;clip-rule:nonzero;display:inline;overflow:visible;visibility:visible;opacity:1;isolation:auto;mix-blend-mode:normal;color-interpolation:sRGB;color-interpolation-filters:linearRGB;solid-color:#000000;solid-opacity:1;fill:#ffffff;fill-opacity:1;fill-rule:evenodd;stroke:none;stroke-width:5;stroke-linecap:butt;stroke-linejoin:round;stroke-miterlimit:4;stroke-dasharray:none;stroke-dashoffset:0;stroke-opacity:1;color-rendering:auto;image-rendering:auto;shape-rendering:auto;text-rendering:auto;enable-background:accumulate"
       d="m 327.14916,310.22214 c -0.61758,-0.017 -1.23657,0.029 -1.84825,0.1414 -3.26242,0.6001 -6.20047,3.056 -7.81194,6.9676 -0.94738,2.2996 -1.39446,5.1583 -1.34561,8.4533 l -9.59209,2.4635 a 1.6756427,1.6756427 0 0 0 -1.23697,1.3717 l 0,0 -9.10909,60.1483 a 1.6756427,1.6756427 0 0 0 1.03015,1.8051 l 30.45437,12.2833 a 1.6756427,1.6756427 0 0 0 1.27102,-0.01 l 0,0 31.22147,-13.0516 a 1.6756427,1.6756427 0 0 0 1.00267,-1.8457 l -10.94688,-60.1038 0,0 a 1.6756427,1.6756427 0 0 0 -1.31425,-1.3429 l -10.54892,-2.1311 c -0.18611,-4.9738 -1.61094,-8.8857 -3.87323,-11.4822 -1.86005,-2.1347 -4.26878,-3.3892 -6.73333,-3.6297 -0.20535,-0.02 -0.41063,-0.034 -0.61651,-0.04 z m -0.46994,3.3484 c 0.2593,-0.012 0.52027,-0.01 0.78144,0.017 1.56717,0.1424 3.14855,0.9405 4.51206,2.5053 1.55195,1.7813 2.72633,4.6654 3.0119,8.596 l -7.77917,-1.572 a 1.6756427,1.6756427 0 0 0 -0.74873,0.019 l -6.99511,1.7959 c 0.0429,-2.5551 0.4497,-4.684 1.12572,-6.3249 1.26552,-3.0718 3.27669,-4.5721 5.31963,-4.9479 0.25534,-0.047 0.51296,-0.077 0.77226,-0.089 z m 0.23959,12.9064 14.62636,2.9569 -14.32531,4.1272 -7.05797,-1.8915 c -0.23175,-1.148 -0.44802,-2.2812 -0.55894,-3.3143 l 7.31586,-1.8783 z m -10.56729,2.7148 c 0.059,0.4877 0.1762,1.0204 0.25783,1.5262 l -3.03677,-0.8129 2.77894,-0.7133 z m 30.92163,2.0786 10.37227,56.9543 -27.69641,11.5792 -1.01701,-63.2492 18.34115,-5.2843 z m -38.92859,0.7029 17.23649,4.618 1.01701,63.2126 -26.88347,-10.8435 8.62997,-56.9871 z m 36.61831,2.0381 a 1.7274368,3.582832 0 0 0 -1.72781,3.5826 1.7274368,3.582832 0 0 0 1.72781,3.5839 1.7274368,3.582832 0 0 0 1.72655,-3.5839 1.7274368,3.582832 0 0 0 -1.72655,-3.5826 z m -34.3721,1.7527 a 1.7274368,3.582832 0 0 0 -1.72654,3.5826 1.7274368,3.582832 0 0 0 1.72654,3.584 1.7274368,3.582832 0 0 0 1.72782,-3.584 1.7274368,3.582832 0 0 0 -1.72782,-3.5826 z m 28.80504,0.039 a 1.7274368,3.582832 0 0 0 -1.72648,3.5826 1.7274368,3.582832 0 0 0 1.72648,3.5827 1.7274368,3.582832 0 0 0 1.72788,-3.5827 1.7274368,3.582832 0 0 0 -1.72788,-3.5826 z m -23.23804,1.7527 a 1.7274368,3.582832 0 0 0 -1.72781,3.5826 1.7274368,3.582832 0 0 0 1.72781,3.5826 1.7274368,3.582832 0 0 0 1.72655,-3.5826 1.7274368,3.582832 0 0 0 -1.72655,-3.5826 z m 17.4799,0.5498 a 1.7274368,3.582832 0 0 0 -1.72648,3.5839 1.7274368,3.582832 0 0 0 1.72648,3.5826 1.7274368,3.582832 0 0 0 1.72788,-3.5826 1.7274368,3.582832 0 0 0 -1.72788,-3.5839 z m -11.72176,1.7527 a 1.7274368,3.582832 0 0 0 -1.72782,3.5839 1.7274368,3.582832 0 0 0 1.72782,3.5826 1.7274368,3.582832 0 0 0 1.72654,-3.5826 1.7274368,3.582832 0 0 0 -1.72654,-3.5839 z m 24.4423,3.7462 a 1.7274368,3.582832 0 0 0 -1.72782,3.5826 1.7274368,3.582832 0 0 0 1.72782,3.5827 1.7274368,3.582832 0 0 0 1.72654,-3.5827 1.7274368,3.582832 0 0 0 -1.72654,-3.5826 z m -37.16284,1.7528 a 1.7274368,3.582832 0 0 0 -1.72648,3.5826 1.7274368,3.582832 0 0 0 1.72648,3.5826 1.7274368,3.582832 0 0 0 1.72788,-3.5826 1.7274368,3.582832 0 0 0 -1.72788,-3.5826 z m 31.35236,0.6819 a 1.7274368,3.582832 0 0 0 -1.72782,3.5826 1.7274368,3.582832 0 0 0 1.72782,3.584 1.7274368,3.582832 0 0 0 1.72782,-3.584 1.7274368,3.582832 0 0 0 -1.72782,-3.5826 z m -25.54181,1.7527 a 1.7274368,3.582832 0 0 0 -1.72789,3.5827 1.7274368,3.582832 0 0 0 1.72789,3.5839 1.7274368,3.582832 0 0 0 1.72781,-3.5839 1.7274368,3.582832 0 0 0 -1.72781,-3.5827 z m 19.27185,0.9346 a 1.7274368,3.582832 0 0 0 -1.72782,3.5826 1.7274368,3.582832 0 0 0 1.72782,3.5827 1.7274368,3.582832 0 0 0 1.72781,-3.5827 1.7274368,3.582832 0 0 0 -1.72781,-3.5826 z m -13.00196,1.7527 a 1.7274368,3.582832 0 0 0 -1.72781,3.5826 1.7274368,3.582832 0 0 0 1.72781,3.5827 1.7274368,3.582832 0 0 0 1.72789,-3.5827 1.7274368,3.582832 0 0 0 -1.72789,-3.5826 z m 26.43719,2.5983 a 1.7274368,3.582832 0 0 0 -1.72654,3.5826 1.7274368,3.582832 0 0 0 1.72654,3.5827 1.7274368,3.582832 0 0 0 1.72782,-3.5827 1.7274368,3.582832 0 0 0 -1.72782,-3.5826 z m -39.87235,1.7527 a 1.7274368,3.582832 0 0 0 -1.72789,3.5826 1.7274368,3.582832 0 0 0 1.72789,3.5827 1.7274368,3.582832 0 0 0 1.72647,-3.5827 1.7274368,3.582832 0 0 0 -1.72647,-3.5826 z m 32.96363,1.0616 a 1.7274368,3.582832 0 0 0 -1.72782,3.5839 1.7274368,3.582832 0 0 0 1.72782,3.5827 1.7274368,3.582832 0 0 0 1.72654,-3.5827 1.7274368,3.582832 0 0 0 -1.72654,-3.5839 z m -26.05498,1.7527 a 1.7274368,3.582832 0 0 0 -1.72648,3.5839 1.7274368,3.582832 0 0 0 1.72648,3.5827 1.7274368,3.582832 0 0 0 1.72788,-3.5827 1.7274368,3.582832 0 0 0 -1.72788,-3.5839 z m 19.40019,1.0629 a 1.7274368,3.582832 0 0 0 -1.72654,3.5826 1.7274368,3.582832 0 0 0 1.72654,3.5826 1.7274368,3.582832 0 0 0 1.72782,-3.5826 1.7274368,3.582832 0 0 0 -1.72782,-3.5826 z m -12.7454,1.7527 a 1.7274368,3.582832 0 0 0 -1.72782,3.5826 1.7274368,3.582832 0 0 0 1.72782,3.5826 1.7274368,3.582832 0 0 0 1.72654,-3.5826 1.7274368,3.582832 0 0 0 -1.72654,-3.5826 z m 28.10086,2.3417 a 1.7274368,3.582832 0 0 0 -1.72781,3.5827 1.7274368,3.582832 0 0 0 1.72781,3.5826 1.7274368,3.582832 0 0 0 1.72782,-3.5826 1.7274368,3.582832 0 0 0 -1.72782,-3.5827 z m -5.24631,1.6637 a 1.7274368,3.582832 0 0 0 -1.72782,3.5826 1.7274368,3.582832 0 0 0 1.72782,3.5827 1.7274368,3.582832 0 0 0 1.72782,-3.5827 1.7274368,3.582832 0 0 0 -1.72782,-3.5826 z m -38.21001,0.089 a 1.7274368,3.582832 0 0 0 -1.72782,3.5826 1.7274368,3.582832 0 0 0 1.72782,3.5827 1.7274368,3.582832 0 0 0 1.72788,-3.5827 1.7274368,3.582832 0 0 0 -1.72788,-3.5826 z m 5.24638,1.6637 a 1.7274368,3.582832 0 0 0 -1.72789,3.5826 1.7274368,3.582832 0 0 0 1.72789,3.5827 1.7274368,3.582832 0 0 0 1.72781,-3.5827 1.7274368,3.582832 0 0 0 -1.72781,-3.5826 z m 27.33376,0.5511 a 1.7274368,3.582832 0 0 0 -1.72781,3.5826 1.7274368,3.582832 0 0 0 1.72781,3.5827 1.7274368,3.582832 0 0 0 1.72782,-3.5827 1.7274368,3.582832 0 0 0 -1.72782,-3.5826 z m -21.70397,1.7527 a 1.7274368,3.582832 0 0 0 -1.72781,3.5826 1.7274368,3.582832 0 0 0 1.72781,3.5826 1.7274368,3.582832 0 0 0 1.72789,-3.5826 1.7274368,3.582832 0 0 0 -1.72789,-3.5826 z m 16.45766,1.4451 a 1.7274368,3.582832 0 0 0 -1.72782,3.5839 1.7274368,3.582832 0 0 0 1.72782,3.5826 1.7274368,3.582832 0 0 0 1.72782,-3.5826 1.7274368,3.582832 0 0 0 -1.72782,-3.5839 z m -11.21127,1.7527 a 1.7274368,3.582832 0 0 0 -1.72789,3.584 1.7274368,3.582832 0 0 0 1.72789,3.5826 1.7274368,3.582832 0 0 0 1.72781,-3.5826 1.7274368,3.582832 0 0 0 -1.72781,-3.584 z m 28.61396,0.5511 a 1.7274368,3.582832 0 0 0 -1.72782,3.5826 1.7274368,3.582832 0 0 0 1.72782,3.5826 1.7274368,3.582832 0 0 0 1.72654,-3.5826 1.7274368,3.582832 0 0 0 -1.72654,-3.5826 z m -46.01665,1.7527 a 1.7274368,3.582832 0 0 0 -1.72655,3.5826 1.7274368,3.582832 0 0 0 1.72655,3.5826 1.7274368,3.582832 0 0 0 1.72781,-3.5826 1.7274368,3.582832 0 0 0 -1.72781,-3.5826 z m 40.64199,0.5511 a 1.7274368,3.582832 0 0 0 -1.72781,3.5826 1.7274368,3.582832 0 0 0 1.72781,3.5826 1.7274368,3.582832 0 0 0 1.72789,-3.5826 1.7274368,3.582832 0 0 0 -1.72789,-3.5826 z m -35.26741,1.7526 a 1.7274368,3.582832 0 0 0 -1.72781,3.5827 1.7274368,3.582832 0 0 0 1.72781,3.5826 1.7274368,3.582832 0 0 0 1.72782,-3.5826 1.7274368,3.582832 0 0 0 -1.72782,-3.5827 z m 29.63762,0.5498 a 1.7274368,3.582832 0 0 0 -1.72789,3.5826 1.7274368,3.582832 0 0 0 1.72789,3.584 1.7274368,3.582832 0 0 0 1.72647,-3.584 1.7274368,3.582832 0 0 0 -1.72647,-3.5826 z m -24.00775,1.7527 a 1.7274368,3.582832 0 0 0 -1.72654,3.5827 1.7274368,3.582832 0 0 0 1.72654,3.5839 1.7274368,3.582832 0 0 0 1.72782,-3.5839 1.7274368,3.582832 0 0 0 -1.72782,-3.5827 z m 17.99299,0.6793 a 1.7274368,3.582832 0 0 0 -1.72781,3.5827 1.7274368,3.582832 0 0 0 1.72781,3.5826 1.7274368,3.582832 0 0 0 1.72789,-3.5826 1.7274368,3.582832 0 0 0 -1.72789,-3.5827 z m -11.9783,1.7528 a 1.7274368,3.582832 0 0 0 -1.72782,3.5826 1.7274368,3.582832 0 0 0 1.72782,3.5827 1.7274368,3.582832 0 0 0 1.72781,-3.5827 1.7274368,3.582832 0 0 0 -1.72781,-3.5826 z m 30.78819,0.1662 a 1.7274368,3.582832 0 0 0 -1.72788,3.5826 1.7274368,3.582832 0 0 0 1.72788,3.5827 1.7274368,3.582832 0 0 0 1.72782,-3.5827 1.7274368,3.582832 0 0 0 -1.72782,-3.5826 z m -49.59801,1.7527 a 1.7274368,3.582832 0 0 0 -1.72782,3.5826 1.7274368,3.582832 0 0 0 1.72782,3.5827 1.7274368,3.582832 0 0 0 1.72781,-3.5827 1.7274368,3.582832 0 0 0 -1.72781,-3.5826 z m 43.32805,0.6781 a 1.7274368,3.582832 0 0 0 -1.72782,3.5826 1.7274368,3.582832 0 0 0 1.72782,3.5839 1.7274368,3.582832 0 0 0 1.72781,-3.5839 1.7274368,3.582832 0 0 0 -1.72781,-3.5826 z m -37.05809,1.7527 a 1.7274368,3.582832 0 0 0 -1.72789,3.5826 1.7274368,3.582832 0 0 0 1.72789,3.5839 1.7274368,3.582832 0 0 0 1.72782,-3.5839 1.7274368,3.582832 0 0 0 -1.72782,-3.5826 z m 30.40464,0.6793 a 1.7274368,3.582832 0 0 0 -1.72788,3.5827 1.7274368,3.582832 0 0 0 1.72788,3.5826 1.7274368,3.582832 0 0 0 1.72782,-3.5826 1.7274368,3.582832 0 0 0 -1.72782,-3.5827 z m -23.7512,1.7527 a 1.7274368,3.582832 0 0 0 -1.72781,3.5826 1.7274368,3.582832 0 0 0 1.72781,3.5827 1.7274368,3.582832 0 0 0 1.72782,-3.5827 1.7274368,3.582832 0 0 0 -1.72782,-3.5826 z m 17.60951,0.9346 a 1.7274368,3.582832 0 0 0 -1.72781,3.5826 1.7274368,3.582832 0 0 0 1.72781,3.5827 1.7274368,3.582832 0 0 0 1.72655,-3.5827 1.7274368,3.582832 0 0 0 -1.72655,-3.5826 z m -11.46782,1.7527 a 1.7274368,3.582832 0 0 0 -1.72654,3.5827 1.7274368,3.582832 0 0 0 1.72654,3.5826 1.7274368,3.582832 0 0 0 1.72782,-3.5826 1.7274368,3.582832 0 0 0 -1.72782,-3.5827 z"
       id="path5639"
       inkscape:connector-curvature="0" />
  </g>
</svg>
