<?xml version="1.0" encoding="UTF-8" standalone="no"?>
<!-- Created with Inkscape (http://www.inkscape.org/) -->

<svg
   xmlns:dc="http://purl.org/dc/elements/1.1/"
   xmlns:cc="http://creativecommons.org/ns#"
   xmlns:rdf="http://www.w3.org/1999/02/22-rdf-syntax-ns#"
   xmlns:svg="http://www.w3.org/2000/svg"
   xmlns="http://www.w3.org/2000/svg"
   xmlns:sodipodi="http://sodipodi.sourceforge.net/DTD/sodipodi-0.dtd"
   xmlns:inkscape="http://www.inkscape.org/namespaces/inkscape"
   width="37.102211mm"
   height="41.225266mm"
   viewBox="0 0 131.46453 146.07377"
   id="svg5639"
   version="1.1"
   inkscape:version="0.91 r"
   sodipodi:docname="pot_icon.svg">
  <defs
     id="defs5641" />
  <sodipodi:namedview
     id="base"
     pagecolor="#ffffff"
     bordercolor="#666666"
     borderopacity="1.0"
     inkscape:pageopacity="0.0"
     inkscape:pageshadow="2"
     inkscape:zoom="0.35"
     inkscape:cx="-295.87957"
     inkscape:cy="-30.221478"
     inkscape:document-units="px"
     inkscape:current-layer="layer1"
     showgrid="false"
     fit-margin-top="0"
     fit-margin-left="0"
     fit-margin-right="0"
     fit-margin-bottom="0"
     inkscape:window-width="1440"
     inkscape:window-height="851"
     inkscape:window-x="0"
     inkscape:window-y="0"
     inkscape:window-maximized="1" />
  <metadata
     id="metadata5644">
    <rdf:RDF>
      <cc:Work
         rdf:about="">
        <dc:format>image/svg+xml</dc:format>
        <dc:type
           rdf:resource="http://purl.org/dc/dcmitype/StillImage" />
        <dc:title></dc:title>
      </cc:Work>
    </rdf:RDF>
  </metadata>
  <g
     inkscape:label="Layer 1"
     inkscape:groupmode="layer"
     id="layer1"
     transform="translate(-670.87959,-356.06695)">
    <g
       transform="translate(-82.742159,-133.32939)"
       id="g5654">
      <path
         sodipodi:nodetypes="ccccssssscccc"
         inkscape:connector-curvature="0"
         d="m 770.17992,558.67329 c -24.18518,7.2264 -10.00803,20.99719 0,22.42908 m 98.3482,-22.42908 c 24.18517,7.2264 10.00802,20.99719 0,22.42908 m 0,-22.42908 c -2e-5,8.00006 -22.01603,14.4854 -49.17415,14.4854 -27.15813,0 -49.17414,-6.48534 -49.17416,-14.4854 -3e-5,-8.00009 22.016,-14.48543 49.17416,-14.48543 27.15814,0 49.17417,6.48534 49.17415,14.48543 z m 0,0 0,59.9006 c -27.87504,18.11648 -73.42881,18.16852 -98.3482,0 l 0,-59.9006"
         style="fill:none;fill-rule:evenodd;stroke:#f4bd88;stroke-width:6.57867193;stroke-linecap:round;stroke-linejoin:miter;stroke-miterlimit:4;stroke-dasharray:none;stroke-opacity:1"
         id="path5894-6" />
      <path
         id="path5920"
         d="m 860.41353,563.22307 a 41.059464,9.18343 0 0 1 -41.05947,9.18343 41.059464,9.18343 0 0 1 -41.05946,-9.18343 41.059464,9.18343 0 0 1 41.05946,-9.18343 41.059464,9.18343 0 0 1 41.05947,9.18343 z"
         style="fill:#f4bd88;fill-opacity:1;fill-rule:evenodd;stroke:none;stroke-width:1.08249021px;stroke-linecap:butt;stroke-linejoin:miter;stroke-opacity:1"
         inkscape:connector-curvature="0" />
      <path
         inkscape:connector-curvature="0"
         id="path5936"
         d="m 799.41946,489.40717 c -0.9622,-0.14758 -3.16831,1.19004 -4.97256,5.36658 -0.81001,1.90775 -1.4332,4.29725 -1.61039,7.04551 -0.24363,4.41513 0.46097,8.62791 1.50761,12.90466 l 0.0132,0.0684 c 0.9988,4.46323 1.81747,7.13446 2.07724,10.30915 0.1796,1.83549 0.16446,3.50694 0.0386,5.01538 -0.29716,3.83951 -1.22977,6.47087 -0.30838,7.34105 0.66106,0.62436 3.2608,-0.46186 5.33661,-5.26381 0.81521,-1.91751 1.44036,-4.31991 1.62325,-7.08405 0.24957,-4.39915 -0.43676,-8.61444 -1.48191,-12.88323 l -0.0176,-0.0684 c -1.01131,-4.51481 -1.84295,-7.15713 -2.11581,-10.35627 -0.18464,-1.82104 -0.17389,-3.47411 -0.0513,-4.96828 0.284,-3.80068 1.20751,-6.40818 0.29124,-7.27678 -0.0818,-0.0776 -0.19232,-0.12894 -0.32979,-0.14999 z m 21.36783,0 c -0.9622,-0.14758 -3.16401,1.19004 -4.96828,5.36658 -0.81003,1.90775 -1.43321,4.29725 -1.61039,7.04551 -0.24363,4.41513 0.46097,8.62791 1.50761,12.90466 l 0.0132,0.0684 c 0.99882,4.46323 1.81747,7.13446 2.07724,10.30915 0.17959,1.83549 0.16446,3.50694 0.0386,5.01538 -0.29716,3.83951 -1.22975,6.47087 -0.30836,7.34105 0.66104,0.62436 3.26076,-0.46186 5.33659,-5.26381 0.81519,-1.91751 1.44038,-4.31991 1.62327,-7.08405 0.24957,-4.39915 -0.43678,-8.61444 -1.48193,-12.88323 l -0.0175,-0.0684 c -1.01129,-4.51481 -1.84295,-7.15713 -2.11579,-10.35627 -0.18464,-1.82104 -0.17389,-3.47411 -0.0513,-4.96828 0.28398,-3.80068 1.20752,-6.40818 0.29124,-7.27678 -0.0818,-0.0776 -0.1967,-0.12894 -0.33407,-0.14999 z m 21.37211,0 c -0.96217,-0.14758 -3.16401,1.19004 -4.96826,5.36658 -0.81001,1.90775 -1.43323,4.29725 -1.61041,7.04551 -0.24363,4.41513 0.46097,8.62791 1.50761,12.90466 l 0.0132,0.0684 c 0.99879,4.46323 1.81749,7.13446 2.07726,10.30915 0.1796,1.83549 0.16425,3.50694 0.0386,5.01538 -0.29716,3.83951 -1.22977,6.47087 -0.30838,7.34105 0.66107,0.62436 3.2608,-0.46186 5.33661,-5.26381 0.81519,-1.91751 1.44036,-4.31991 1.62325,-7.08405 0.24957,-4.39915 -0.43676,-8.61444 -1.48191,-12.88323 l -0.0176,-0.0684 c -1.01131,-4.51481 -1.84295,-7.15713 -2.11581,-10.35627 -0.18464,-1.82104 -0.17389,-3.47411 -0.0513,-4.96828 0.284,-3.80068 1.20754,-6.40818 0.29126,-7.27678 -0.082,-0.0776 -0.1967,-0.12894 -0.33409,-0.14999 z"
         style="fill:#f4bd88;fill-opacity:1;fill-rule:evenodd;stroke:none;stroke-width:1px;stroke-linecap:butt;stroke-linejoin:miter;stroke-opacity:1" />
    </g>
  </g>
</svg>
