<?xml version="1.0" encoding="UTF-8" standalone="no"?>
<!-- Created with Inkscape (http://www.inkscape.org/) -->

<svg
   xmlns:dc="http://purl.org/dc/elements/1.1/"
   xmlns:cc="http://creativecommons.org/ns#"
   xmlns:rdf="http://www.w3.org/1999/02/22-rdf-syntax-ns#"
   xmlns:svg="http://www.w3.org/2000/svg"
   xmlns="http://www.w3.org/2000/svg"
   xmlns:sodipodi="http://sodipodi.sourceforge.net/DTD/sodipodi-0.dtd"
   xmlns:inkscape="http://www.inkscape.org/namespaces/inkscape"
   width="156.47247mm"
   height="42.745571mm"
   viewBox="0 0 554.43002 151.46068"
   id="svg5654"
   version="1.1"
   inkscape:version="0.91 r"
   sodipodi:docname="three_icons.svg">
  <defs
     id="defs5656">
    <clipPath
       clipPathUnits="userSpaceOnUse"
       id="clipPath5983">
      <rect
         style="fill:#ffffff;fill-opacity:1;fill-rule:evenodd;stroke:none;stroke-width:1px;stroke-linecap:butt;stroke-linejoin:miter;stroke-opacity:1"
         id="rect5985"
         width="1200"
         height="2406.3242"
         x="38.92749"
         y="166.16736" />
    </clipPath>
    <clipPath
       clipPathUnits="userSpaceOnUse"
       id="clipPath5971">
      <rect
         style="fill:#ffffff;fill-opacity:1;fill-rule:evenodd;stroke:none;stroke-width:1px;stroke-linecap:butt;stroke-linejoin:miter;stroke-opacity:1"
         id="rect5973"
         width="1200"
         height="2406.3242"
         x="38.92749"
         y="166.16736" />
    </clipPath>
    <clipPath
       clipPathUnits="userSpaceOnUse"
       id="clipPath5967">
      <rect
         style="fill:#ffffff;fill-opacity:1;fill-rule:evenodd;stroke:none;stroke-width:1px;stroke-linecap:butt;stroke-linejoin:miter;stroke-opacity:1"
         id="rect5969"
         width="1200"
         height="2406.3242"
         x="38.92749"
         y="166.16736" />
    </clipPath>
  </defs>
  <sodipodi:namedview
     id="base"
     pagecolor="#ffffff"
     bordercolor="#666666"
     borderopacity="1.0"
     inkscape:pageopacity="0.0"
     inkscape:pageshadow="2"
     inkscape:zoom="0.35"
     inkscape:cx="5.0721436"
     inkscape:cy="-87.126799"
     inkscape:document-units="px"
     inkscape:current-layer="layer1"
     showgrid="false"
     fit-margin-top="0"
     fit-margin-left="0"
     fit-margin-right="0"
     fit-margin-bottom="0"
     inkscape:window-width="1440"
     inkscape:window-height="851"
     inkscape:window-x="0"
     inkscape:window-y="0"
     inkscape:window-maximized="1" />
  <metadata
     id="metadata5659">
    <rdf:RDF>
      <cc:Work
         rdf:about="">
        <dc:format>image/svg+xml</dc:format>
        <dc:type
           rdf:resource="http://purl.org/dc/dcmitype/StillImage" />
        <dc:title></dc:title>
      </cc:Work>
    </rdf:RDF>
  </metadata>
  <g
     inkscape:label="Layer 1"
     inkscape:groupmode="layer"
     id="layer1"
     transform="translate(-28.499285,-293.77472)">
    <g
       transform="translate(-515.86856,-195.62161)"
       id="g5615">
      <path
         clip-path="url(#clipPath5983)"
         inkscape:connector-curvature="0"
         id="path5001-3"
         d="m 611.67528,547.13261 c -15.35139,-15.35139 -40.44237,-15.35139 -55.79384,0 -15.35146,15.35143 -15.35146,40.44249 0,55.79391 13.16538,13.1653 33.47656,15.00435 48.68204,5.58853 l 24.00602,24.00602 c 1.33533,1.33539 4.04116,0.77661 6.06109,-1.2434 l 5.40048,-5.40045 c 2.01997,-2.01997 2.56962,-4.71657 1.23422,-6.05197 L 617.26388,595.8238 c 9.42047,-15.20621 7.57865,-35.52395 -5.5886,-48.69119 z m -9.39685,9.39687 c 10.27297,10.27301 10.27297,26.72716 0,37.00016 -10.27295,10.273 -26.72723,10.273 -37.00007,0 -10.27324,-10.273 -10.27324,-26.72715 0,-37.00016 10.27284,-10.27291 26.72712,-10.27291 37.00007,0 z"
         style="color:#000000;font-style:normal;font-variant:normal;font-weight:normal;font-stretch:normal;font-size:medium;line-height:normal;font-family:sans-serif;text-indent:0;text-align:start;text-decoration:none;text-decoration-line:none;text-decoration-style:solid;text-decoration-color:#000000;letter-spacing:normal;word-spacing:normal;text-transform:none;direction:ltr;block-progression:tb;writing-mode:lr-tb;baseline-shift:baseline;text-anchor:start;white-space:normal;clip-rule:nonzero;display:inline;overflow:visible;visibility:visible;opacity:1;isolation:auto;mix-blend-mode:normal;color-interpolation:sRGB;color-interpolation-filters:linearRGB;solid-color:#000000;solid-opacity:1;fill:#65a7e0;fill-opacity:1;fill-rule:evenodd;stroke:none;stroke-width:4;stroke-linecap:butt;stroke-linejoin:miter;stroke-miterlimit:4;stroke-dasharray:none;stroke-dashoffset:0;stroke-opacity:1;color-rendering:auto;image-rendering:auto;shape-rendering:auto;text-rendering:auto;enable-background:accumulate" />
      <path
         sodipodi:nodetypes="ccccssssscccc"
         inkscape:connector-curvature="0"
         d="m 770.17992,558.67329 c -24.18518,7.2264 -10.00803,20.99719 0,22.42908 m 98.3482,-22.42908 c 24.18517,7.2264 10.00802,20.99719 0,22.42908 m 0,-22.42908 c -2e-5,8.00006 -22.01603,14.4854 -49.17415,14.4854 -27.15813,0 -49.17414,-6.48534 -49.17416,-14.4854 -3e-5,-8.00009 22.016,-14.48543 49.17416,-14.48543 27.15814,0 49.17417,6.48534 49.17415,14.48543 z m 0,0 0,59.9006 c -27.87504,18.11648 -73.42881,18.16852 -98.3482,0 l 0,-59.9006"
         style="fill:none;fill-rule:evenodd;stroke:#f4bd88;stroke-width:6.57867193;stroke-linecap:round;stroke-linejoin:miter;stroke-miterlimit:4;stroke-dasharray:none;stroke-opacity:1"
         id="path5894-6" />
      <path
         id="path5920"
         d="m 860.41353,563.22307 a 41.059464,9.18343 0 0 1 -41.05947,9.18343 41.059464,9.18343 0 0 1 -41.05946,-9.18343 41.059464,9.18343 0 0 1 41.05946,-9.18343 41.059464,9.18343 0 0 1 41.05947,9.18343 z"
         style="fill:#f4bd88;fill-opacity:1;fill-rule:evenodd;stroke:none;stroke-width:1.08249021px;stroke-linecap:butt;stroke-linejoin:miter;stroke-opacity:1"
         inkscape:connector-curvature="0" />
      <path
         inkscape:connector-curvature="0"
         id="path5936"
         d="m 799.41946,489.40717 c -0.9622,-0.14758 -3.16831,1.19004 -4.97256,5.36658 -0.81001,1.90775 -1.4332,4.29725 -1.61039,7.04551 -0.24363,4.41513 0.46097,8.62791 1.50761,12.90466 l 0.0132,0.0684 c 0.9988,4.46323 1.81747,7.13446 2.07724,10.30915 0.1796,1.83549 0.16446,3.50694 0.0386,5.01538 -0.29716,3.83951 -1.22977,6.47087 -0.30838,7.34105 0.66106,0.62436 3.2608,-0.46186 5.33661,-5.26381 0.81521,-1.91751 1.44036,-4.31991 1.62325,-7.08405 0.24957,-4.39915 -0.43676,-8.61444 -1.48191,-12.88323 l -0.0176,-0.0684 c -1.01131,-4.51481 -1.84295,-7.15713 -2.11581,-10.35627 -0.18464,-1.82104 -0.17389,-3.47411 -0.0513,-4.96828 0.284,-3.80068 1.20751,-6.40818 0.29124,-7.27678 -0.0818,-0.0776 -0.19232,-0.12894 -0.32979,-0.14999 z m 21.36783,0 c -0.9622,-0.14758 -3.16401,1.19004 -4.96828,5.36658 -0.81003,1.90775 -1.43321,4.29725 -1.61039,7.04551 -0.24363,4.41513 0.46097,8.62791 1.50761,12.90466 l 0.0132,0.0684 c 0.99882,4.46323 1.81747,7.13446 2.07724,10.30915 0.17959,1.83549 0.16446,3.50694 0.0386,5.01538 -0.29716,3.83951 -1.22975,6.47087 -0.30836,7.34105 0.66104,0.62436 3.26076,-0.46186 5.33659,-5.26381 0.81519,-1.91751 1.44038,-4.31991 1.62327,-7.08405 0.24957,-4.39915 -0.43678,-8.61444 -1.48193,-12.88323 l -0.0175,-0.0684 c -1.01129,-4.51481 -1.84295,-7.15713 -2.11579,-10.35627 -0.18464,-1.82104 -0.17389,-3.47411 -0.0513,-4.96828 0.28398,-3.80068 1.20752,-6.40818 0.29124,-7.27678 -0.0818,-0.0776 -0.1967,-0.12894 -0.33407,-0.14999 z m 21.37211,0 c -0.96217,-0.14758 -3.16401,1.19004 -4.96826,5.36658 -0.81001,1.90775 -1.43323,4.29725 -1.61041,7.04551 -0.24363,4.41513 0.46097,8.62791 1.50761,12.90466 l 0.0132,0.0684 c 0.99879,4.46323 1.81749,7.13446 2.07726,10.30915 0.1796,1.83549 0.16425,3.50694 0.0386,5.01538 -0.29716,3.83951 -1.22977,6.47087 -0.30838,7.34105 0.66107,0.62436 3.2608,-0.46186 5.33661,-5.26381 0.81519,-1.91751 1.44036,-4.31991 1.62325,-7.08405 0.24957,-4.39915 -0.43676,-8.61444 -1.48191,-12.88323 l -0.0176,-0.0684 c -1.01131,-4.51481 -1.84295,-7.15713 -2.11581,-10.35627 -0.18464,-1.82104 -0.17389,-3.47411 -0.0513,-4.96828 0.284,-3.80068 1.20754,-6.40818 0.29126,-7.27678 -0.082,-0.0776 -0.1967,-0.12894 -0.33409,-0.14999 z"
         style="fill:#f4bd88;fill-opacity:1;fill-rule:evenodd;stroke:none;stroke-width:1px;stroke-linecap:butt;stroke-linejoin:miter;stroke-opacity:1" />
      <path
         d="m 1021.0081,567.35051 c 7.1029,14.38173 37.6416,14.27751 46.1941,0 m -12.5193,-26.26568 c 2.4428,-7.42408 14.7934,-7.12126 17.3853,0 m -55.9247,0 c 2.4428,-7.42408 14.7934,-7.12126 17.3853,0 m 56.3362,9.01498 a 45.758623,47.772908 0 0 1 -45.7587,47.77291 45.758623,47.772908 0 0 1 -45.75859,-47.77291 45.758623,47.772908 0 0 1 45.75859,-47.7729 45.758623,47.772908 0 0 1 45.7587,47.7729 z"
         style="fill:#ffffff;fill-opacity:1;fill-rule:evenodd;stroke:#7db588;stroke-width:4.63499737;stroke-linecap:round;stroke-linejoin:miter;stroke-miterlimit:4;stroke-dasharray:none;stroke-opacity:1"
         id="path6020"
         inkscape:connector-curvature="0" />
      <ellipse
         ry="12.723844"
         rx="52.224735"
         cy="625.81567"
         cx="1044.2556"
         id="path6024"
         style="fill:#ffffff;fill-opacity:1;fill-rule:evenodd;stroke:#7db588;stroke-width:4.63499737;stroke-linecap:butt;stroke-linejoin:miter;stroke-miterlimit:4;stroke-dasharray:none;stroke-opacity:1" />
      <path
         sodipodi:nodetypes="cc"
         inkscape:connector-curvature="0"
         id="path6049"
         d="m 1007.3121,623.57161 c 5.8174,-16.38711 23.1081,-17.56097 30.0799,0.26857"
         style="fill:#ffffff;fill-opacity:1;fill-rule:evenodd;stroke:#7db588;stroke-width:4.63499737;stroke-linecap:round;stroke-linejoin:miter;stroke-miterlimit:4;stroke-dasharray:none;stroke-opacity:1" />
      <path
         sodipodi:nodetypes="cc"
         inkscape:connector-curvature="0"
         id="path6049-0"
         d="m 1050.0144,622.52012 c 5.8174,-16.38711 23.1081,-17.56097 30.0799,0.26856"
         style="fill:#ffffff;fill-opacity:1;fill-rule:evenodd;stroke:#7db588;stroke-width:4.63499737;stroke-linecap:round;stroke-linejoin:miter;stroke-miterlimit:4;stroke-dasharray:none;stroke-opacity:1" />
      <path
         sodipodi:nodetypes="cc"
         inkscape:connector-curvature="0"
         id="path6049-4"
         d="m 1029.2152,627.35439 c 5.8174,-16.38711 23.1081,-17.56097 30.0799,0.26856"
         style="fill:#ffffff;fill-opacity:1;fill-rule:evenodd;stroke:#7db588;stroke-width:4.63499737;stroke-linecap:round;stroke-linejoin:miter;stroke-miterlimit:4;stroke-dasharray:none;stroke-opacity:1" />
      <path
         clip-path="url(#clipPath5971)"
         inkscape:connector-curvature="0"
         id="path4733-2-6"
         d="m 691.11296,563.29906 c -0.62637,-0.62637 -1.55181,-0.70828 -2.07715,-0.18294 l -1.40445,1.40445 c -0.52535,0.52535 -0.44459,1.45194 0.18178,2.07831 l 11.32707,11.32708 -11.32824,11.32824 c -0.6263,0.62631 -0.70597,1.55413 -0.18062,2.07947 l 1.40445,1.40445 c 0.52534,0.52534 1.45085,0.44336 2.07716,-0.18293 l 12.2765,-12.27651 1.22152,-1.22151 0.18293,-0.18295 c 0.23723,-0.23722 0.34512,-0.55776 0.3404,-0.89384 -5.6e-4,-0.0399 0.003,-0.079 -8.3e-4,-0.11926 0.002,-0.3318 -0.10476,-0.64662 -0.33926,-0.88111 l -0.18293,-0.18293 -1.22151,-1.22152 -12.2765,-12.2765 z"
         style="fill:#909090;fill-opacity:1;fill-rule:evenodd;stroke:none;stroke-width:1px;stroke-linecap:butt;stroke-linejoin:miter;stroke-opacity:1" />
      <path
         clip-path="url(#clipPath5967)"
         inkscape:connector-curvature="0"
         id="path4733-2-6-8"
         d="m 940.11296,563.29906 c -0.62637,-0.62637 -1.55181,-0.70828 -2.07715,-0.18294 l -1.40445,1.40445 c -0.52535,0.52535 -0.44459,1.45194 0.18178,2.07831 l 11.32707,11.32708 -11.32824,11.32824 c -0.6263,0.62631 -0.70597,1.55413 -0.18062,2.07947 l 1.40445,1.40445 c 0.52534,0.52534 1.45085,0.44336 2.07716,-0.18293 l 12.2765,-12.27651 1.22152,-1.22151 0.18293,-0.18295 c 0.23723,-0.23722 0.34512,-0.55776 0.3404,-0.89384 -5.6e-4,-0.0399 0.003,-0.079 -8.3e-4,-0.11926 0.002,-0.3318 -0.10476,-0.64662 -0.33926,-0.88111 l -0.18293,-0.18293 -1.22151,-1.22152 -12.2765,-12.2765 z"
         style="fill:#909090;fill-opacity:1;fill-rule:evenodd;stroke:none;stroke-width:1px;stroke-linecap:butt;stroke-linejoin:miter;stroke-opacity:1" />
    </g>
  </g>
</svg>
