<?xml version="1.0" encoding="UTF-8" standalone="no"?>
<!-- Created with Inkscape (http://www.inkscape.org/) -->

<svg
   xmlns:dc="http://purl.org/dc/elements/1.1/"
   xmlns:cc="http://creativecommons.org/ns#"
   xmlns:rdf="http://www.w3.org/1999/02/22-rdf-syntax-ns#"
   xmlns:svg="http://www.w3.org/2000/svg"
   xmlns="http://www.w3.org/2000/svg"
   xmlns:sodipodi="http://sodipodi.sourceforge.net/DTD/sodipodi-0.dtd"
   xmlns:inkscape="http://www.inkscape.org/namespaces/inkscape"
   width="262.22903mm"
   height="116.56828mm"
   viewBox="0 0 929.158 413.03722"
   id="svg4590"
   version="1.1"
   inkscape:version="0.91 r"
   sodipodi:docname="iconography.svg">
  <defs
     id="defs4592" />
  <sodipodi:namedview
     id="base"
     pagecolor="#ffffff"
     bordercolor="#666666"
     borderopacity="1.0"
     inkscape:pageopacity="0.0"
     inkscape:pageshadow="2"
     inkscape:zoom="0.7"
     inkscape:cx="445.81299"
     inkscape:cy="108.63566"
     inkscape:document-units="px"
     inkscape:current-layer="layer1"
     showgrid="false"
     fit-margin-top="0"
     fit-margin-left="0"
     fit-margin-right="0"
     fit-margin-bottom="0"
     inkscape:window-width="1440"
     inkscape:window-height="851"
     inkscape:window-x="0"
     inkscape:window-y="0"
     inkscape:window-maximized="1" />
  <metadata
     id="metadata4595">
    <rdf:RDF>
      <cc:Work
         rdf:about="">
        <dc:format>image/svg+xml</dc:format>
        <dc:type
           rdf:resource="http://purl.org/dc/dcmitype/StillImage" />
        <dc:title />
      </cc:Work>
    </rdf:RDF>
  </metadata>
  <g
     inkscape:label="Layer 1"
     inkscape:groupmode="layer"
     id="layer1"
     transform="translate(-9.7067397,-317.27216)">
    <g
       id="g4281">
      <path
         inkscape:connector-curvature="0"
         id="path5005"
         d="m 887.9661,342.61601 4.32055,47.571 12.1393,-9.4879 8.4146,14.5745 8.2911,-4.7869 -8.4146,-14.5745 14.2864,-5.769 -39.03735,-27.5272 z"
         style="fill:#ffffff;fill-opacity:1;stroke:#404040;stroke-width:5;stroke-miterlimit:4;stroke-dasharray:none;stroke-opacity:1" />
      <path
         sodipodi:nodetypes="cccccc"
         inkscape:connector-curvature="0"
         d="m 883.22368,637.94244 -2.40333,25.0151 30.2608,52.41324 c 8.27146,6.70952 26.61954,-3.03367 25.26871,-14.58889 l -30.2608,-52.41324 z"
         style="fill:#ffffff;fill-opacity:1;fill-rule:evenodd;stroke:#404040;stroke-width:4.88243961;stroke-linecap:butt;stroke-linejoin:miter;stroke-miterlimit:4;stroke-dasharray:none;stroke-opacity:1"
         id="path5433" />
      <path
         sodipodi:nodetypes="cccc"
         inkscape:connector-curvature="0"
         id="path5436"
         d="m 883.87127,639.55429 -0.98144,12.02041 c 5.28753,2.72018 12.51704,-2.72232 11.8642,-7.17703 z"
         style="fill:#404040;fill-opacity:1;fill-rule:evenodd;stroke:none;stroke-width:1px;stroke-linecap:butt;stroke-linejoin:miter;stroke-opacity:1" />
      <path
         sodipodi:nodetypes="cccccc"
         inkscape:connector-curvature="0"
         id="path5440"
         d="m 905.35874,705.33922 c 9.18888,2.7768 22.88699,-4.99131 24.92086,-14.6636 l 7.23882,11.3872 c -0.31158,6.07672 -5.69273,8.82022 -9.23667,12.77169 -4.80215,2.09486 -9.69357,3.9375 -15.87372,2.13907 z"
         style="fill:#404040;fill-opacity:1;fill-rule:evenodd;stroke:none;stroke-width:1px;stroke-linecap:butt;stroke-linejoin:miter;stroke-opacity:1" />
      <path
         sodipodi:nodetypes="cc"
         inkscape:connector-curvature="0"
         id="path5445"
         d="m 903.88438,701.34707 c 9.61754,1.71304 20.7831,-6.09494 24.29271,-14.02541"
         style="fill:none;fill-rule:evenodd;stroke:#404040;stroke-width:3.25495982;stroke-linecap:butt;stroke-linejoin:miter;stroke-miterlimit:4;stroke-dasharray:none;stroke-opacity:1" />
      <path
         sodipodi:nodetypes="cc"
         inkscape:connector-curvature="0"
         id="path5445-5"
         d="m 900.47154,695.43585 c 9.61754,1.71305 20.7831,-6.09493 24.29271,-14.0254"
         style="fill:none;fill-rule:evenodd;stroke:#404040;stroke-width:3.25495982;stroke-linecap:butt;stroke-linejoin:miter;stroke-miterlimit:4;stroke-dasharray:none;stroke-opacity:1" />
      <path
         inkscape:connector-curvature="0"
         id="path4259"
         d="m 908.59015,478.81271 c -14.6173,0 -26.51629,11.899 -26.51629,26.5163 0,12.6379 8.9011,23.2308 20.75709,25.8719 l 0,29.3238 11.5153,0 0,-29.3238 c 11.8574,-2.64 20.7602,-13.2329 20.7602,-25.8719 0,-14.6173 -11.8992,-26.5163 -26.5163,-26.5163 z m 0,4.7129 c 12.0701,0 21.8034,9.7331 21.8034,21.8034 0,12.0701 -9.7333,21.8064 -21.8034,21.8064 -12.0703,0 -21.80339,-9.7363 -21.80339,-21.8064 0,-12.0703 9.73309,-21.8034 21.80339,-21.8034 z"
         style="color:#000000;font-style:normal;font-variant:normal;font-weight:normal;font-stretch:normal;font-size:medium;line-height:normal;font-family:sans-serif;text-indent:0;text-align:start;text-decoration:none;text-decoration-line:none;text-decoration-style:solid;text-decoration-color:#000000;letter-spacing:normal;word-spacing:normal;text-transform:none;direction:ltr;block-progression:tb;writing-mode:lr-tb;baseline-shift:baseline;text-anchor:start;white-space:normal;clip-rule:nonzero;display:inline;overflow:visible;visibility:visible;opacity:1;isolation:auto;mix-blend-mode:normal;color-interpolation:sRGB;color-interpolation-filters:linearRGB;solid-color:#000000;solid-opacity:1;fill:#404040;fill-opacity:1;fill-rule:evenodd;stroke:none;stroke-width:3;stroke-linecap:butt;stroke-linejoin:miter;stroke-miterlimit:4;stroke-dasharray:none;stroke-dashoffset:0;stroke-opacity:1;color-rendering:auto;image-rendering:auto;shape-rendering:auto;text-rendering:auto;enable-background:accumulate" />
      <path
         style="opacity:1;fill:#404040;fill-opacity:1;stroke:none;stroke-width:13.08022404;stroke-linecap:butt;stroke-linejoin:round;stroke-miterlimit:4;stroke-dasharray:none;stroke-opacity:1"
         d="m 274.7029,321.56431 -74.98168,24.1937 75.36714,24.1949 53.43558,-17.3317 0,6.3665 c -2.13831,0.7351 -3.57513,2.7455 -3.57815,5.0067 0,2.6903 2.0195,4.9522 4.69191,5.2617 0.65147,2.5465 1.15045,5.8792 0.22705,8.3455 -1.70688,4.559 -3.88162,5.8603 -5.6529,10.4414 -1.77128,4.5811 -2.08244,12.2454 -2.08244,12.2454 9.52689,-2.1142 10.57495,3.8294 15.51329,0 0,0 -2.56191,-6.3992 -2.43415,-10.8708 0.12768,-4.4718 1.45021,-7.5351 1.9127,-12.1509 0.28952,-2.889 -1.38672,-7.2061 -2.68142,-10.0324 0.71793,-0.9275 1.10806,-2.067 1.10923,-3.2399 -0.007,-2.2571 -1.43434,-4.2648 -3.56709,-5.0034 l 0,-7.4912 17.70143,-5.7418 z m 0,17.3788 c 2.63613,0 4.77314,1.3209 4.77293,2.9501 1.4e-4,1.6293 -2.1368,2.9501 -4.77293,2.9501 -2.63612,0 -4.77313,-1.3208 -4.77286,-2.9501 -2.7e-4,-1.6292 2.13674,-2.9501 4.77286,-2.9501 z m 39.34845,23.6206 -38.94835,13.1937 -37.46944,-12.3305 c 0,0 -4.66635,27.0578 -3.13202,30.3208 1.53447,3.2629 12.98128,17.1896 40.60146,17.1896 27.6201,0 40.4042,-14.698 41.6466,-17.1896 1.24227,-2.4917 -2.69825,-31.184 -2.69825,-31.184 z"
         id="rect6435-7"
         inkscape:connector-curvature="0"
         sodipodi:nodetypes="ccccccccsccssccccccscscscccsssc" />
      <path
         style="color:#000000;font-style:normal;font-variant:normal;font-weight:normal;font-stretch:normal;font-size:medium;line-height:normal;font-family:sans-serif;text-indent:0;text-align:start;text-decoration:none;text-decoration-line:none;text-decoration-style:solid;text-decoration-color:#000000;letter-spacing:normal;word-spacing:normal;text-transform:none;direction:ltr;block-progression:tb;writing-mode:lr-tb;baseline-shift:baseline;text-anchor:start;white-space:normal;clip-rule:nonzero;display:inline;overflow:visible;visibility:visible;opacity:1;isolation:auto;mix-blend-mode:normal;color-interpolation:sRGB;color-interpolation-filters:linearRGB;solid-color:#000000;solid-opacity:1;fill:#404040;fill-opacity:1;fill-rule:nonzero;stroke:none;stroke-width:25;stroke-linecap:round;stroke-linejoin:round;stroke-miterlimit:4;stroke-dasharray:none;stroke-dashoffset:0;stroke-opacity:1;color-rendering:auto;image-rendering:auto;shape-rendering:auto;text-rendering:auto;enable-background:accumulate"
         d="m 28.09585,327.97061 c -6.39605,0 -11.65229,5.2568 -11.65229,11.6529 l 0,53.2547 c 0,6.396 5.25638,11.6529 11.65229,11.6529 l 95.13047,0 c 6.39605,0 11.65291,-5.2569 11.65291,-11.6529 l 0,-53.2547 c 0,-6.3961 -5.25686,-11.6529 -11.65291,-11.6529 z m 0,6.8821 95.13047,0 c 2.70238,0 4.77066,2.0683 4.77066,4.7708 l 0,5.0104 -104.67124,0 0,-5.0104 c 0,-2.7025 2.06773,-4.7708 4.77011,-4.7708 z m -4.77011,22.9637 104.67124,0 0,35.0618 c 0,2.7024 -2.06828,4.7707 -4.77066,4.7707 l -95.13047,0 c -2.70238,0 -4.77011,-2.0683 -4.77011,-4.7707 z m 6.82726,6.1826 0,15.7393 18.55969,0 0,-15.7393 z m 51.26101,21.4675 0,5.975 12.72193,0 0,-5.975 z m 18.54972,0 0,5.975 4.95724,0 0,-5.975 z m 7.20248,0 0,5.975 4.95786,0 0,-5.975 z m 7.20269,0 0,5.975 4.95766,0 0,-5.975 z"
         id="rect6077-5"
         inkscape:connector-curvature="0"
         sodipodi:nodetypes="ssssssssssssccssccsssscccccccccccccccccccccccccc" />
      <path
         inkscape:connector-curvature="0"
         id="rect6199-0"
         d="m 464.02712,320.06701 c -7.87457,0 -15.74921,1.9503 -22.10073,5.852 -7.36494,4.5243 -9.09306,11.6609 -11.99527,19.3035 -1.03528,2.7261 -1.86268,5.2742 -2.52597,7.4855 -0.90753,-0.7461 -1.81368,-1.343 -2.56899,-1.6805 -0.73387,-0.3277 -1.50024,-0.4908 -2.25624,-0.506 -2.26785,-0.045 -4.44994,1.2455 -5.43327,3.4468 -1.16468,2.6075 -0.25131,5.6119 2.02404,7.1701 -2.68245,3.4464 -4.64532,7.774 -4.64532,10.8906 l 0,17.0553 c 0,5.6391 4.26749,6.3757 9.76185,6.9097 l 0,11.7993 c 2.1e-4,2.5635 2.07777,4.6411 4.64133,4.6413 l 8.53367,0 c 2.56349,-2e-4 4.64243,-2.0778 4.64271,-4.6413 l 0,-11.7456 43.84569,0 0,11.7456 c 2.1e-4,2.5635 2.07791,4.6411 4.64133,4.6413 l 8.53381,0 c 2.56342,-2e-4 4.64113,-2.0778 4.64133,-4.6413 l 0,-11.7993 c 5.49443,-0.534 9.76185,-1.2706 9.76185,-6.9097 l 0,-17.0553 c 0,-3.1055 -1.99379,-7.4128 -4.70311,-10.8531 2.31761,-1.5463 3.25627,-4.5781 2.08176,-7.2076 -0.98333,-2.2013 -3.16535,-3.4919 -5.4332,-3.4468 -0.756,0.015 -1.52113,0.1783 -2.25493,0.506 -0.78974,0.3528 -1.74379,0.991 -2.69241,1.7852 -0.66797,-2.2338 -1.50705,-4.8218 -2.55827,-7.5902 -2.90215,-7.6426 -4.47606,-14.7792 -11.841,-19.3035 -6.35151,-3.9017 -14.22615,-5.852 -22.10066,-5.852 z m 0,6.613 c 6.42031,0 12.84137,1.3514 17.2419,4.0548 3.38704,2.0806 7.71253,10.8568 10.34302,17.7842 1.00106,2.6361 1.6805,4.9036 2.29246,6.9902 l -59.75345,0 c 0.61189,-2.0866 1.2901,-4.3541 2.29115,-6.9902 2.6305,-6.9274 6.95722,-15.7036 10.34433,-17.7842 4.40046,-2.7034 10.82022,-4.0548 17.24059,-4.0548 z m -32.28535,37.6139 c 0.90938,0.018 1.82976,0.2137 2.71262,0.608 3.5308,1.5771 9.81023,7.816 8.23302,11.347 -1.57708,3.5308 -10.41326,3.0172 -13.94413,1.4402 -3.53094,-1.5773 -5.11516,-5.7171 -3.53802,-9.2478 1.18289,-2.6483 3.80837,-4.2018 6.53651,-4.1474 z m 64.5707,0 c 2.72822,-0.054 5.35376,1.4991 6.53658,4.1474 1.57714,3.5307 -0.008,7.6705 -3.53671,9.2478 -3.53094,1.577 -12.36706,2.0906 -13.9442,-1.4402 -1.57714,-3.531 4.70215,-9.7699 8.23302,-11.347 0.88279,-0.3943 1.80186,-0.5899 2.71131,-0.608 z"
         style="opacity:1;fill:#404040;fill-opacity:1;stroke:none;stroke-width:10;stroke-linecap:round;stroke-linejoin:round;stroke-miterlimit:4;stroke-dasharray:none;stroke-opacity:1" />
      <path
         inkscape:connector-curvature="0"
         id="path6811"
         d="m 625.98912,317.27441 a 3.2867256,3.2867256 0 0 0 -2.56184,1.0827 l -17.09731,18.9552 0,-5.5301 -10.29568,0 0,16.9448 -16.81782,18.6449 a 3.2867256,3.2867256 0 0 0 2.44055,5.4875 l 7.20826,0 0,42.3701 74.00599,0 0,-42.3701 7.20825,0 a 3.2867256,3.2867256 0 0 0 2.44055,-5.4875 l -44.21163,-49.0148 a 3.2867256,3.2867256 0 0 0 -2.31932,-1.0827 z m -0.12123,8.1911 36.75158,40.7447 -73.50316,0 36.75158,-40.7447 z m -30.42989,47.3939 60.8604,0 0,35.7972 -23.71938,0 0,-21.9585 -13.4215,0 0,21.9585 -23.71952,0 0,-35.7972 z m 5.6942,3.6393 0,8.1191 6.03437,0 0,-8.1191 -6.03437,0 z m 7.12978,0 0,8.1191 6.03437,0 0,-8.1191 -6.03437,0 z m 29.72592,0 0,8.1191 6.03437,0 0,-8.1191 -6.03437,0 z m 7.12984,0 0,8.1191 6.0343,0 0,-8.1191 -6.0343,0 z m -43.98554,9.2145 0,8.119 6.03437,0 0,-8.119 -6.03437,0 z m 7.12978,0 0,8.119 6.03437,0 0,-8.119 -6.03437,0 z m 29.72592,0 0,8.119 6.03437,0 0,-8.119 -6.03437,0 z m 7.12984,0 0,8.119 6.0343,0 0,-8.119 -6.0343,0 z"
         style="color:#000000;font-style:normal;font-variant:normal;font-weight:normal;font-stretch:normal;font-size:medium;line-height:normal;font-family:sans-serif;text-indent:0;text-align:start;text-decoration:none;text-decoration-line:none;text-decoration-style:solid;text-decoration-color:#000000;letter-spacing:normal;word-spacing:normal;text-transform:none;direction:ltr;block-progression:tb;writing-mode:lr-tb;baseline-shift:baseline;text-anchor:start;white-space:normal;clip-rule:nonzero;display:inline;overflow:visible;visibility:visible;opacity:1;isolation:auto;mix-blend-mode:normal;color-interpolation:sRGB;color-interpolation-filters:linearRGB;solid-color:#000000;solid-opacity:1;fill:#404040;fill-opacity:1;fill-rule:nonzero;stroke:none;stroke-width:18;stroke-linecap:butt;stroke-linejoin:round;stroke-miterlimit:4;stroke-dasharray:none;stroke-dashoffset:0;stroke-opacity:1;color-rendering:auto;image-rendering:auto;shape-rendering:auto;text-rendering:auto;enable-background:accumulate" />
      <path
         sodipodi:nodetypes="cccsccccccscccccscccsccccccccccccsccsccsccccccccccscccccc"
         inkscape:connector-curvature="0"
         id="path4550"
         d="m 41.58353,476.45231 c -0.0718,-0.01 -0.14198,-0.01 -0.21036,0 -2.39327,0.1409 -2.78896,4.7676 -2.40412,9.7589 -4.25286,-1.8507 -8.46125,-1.3185 -14.07051,-2.2582 -7.31443,-1.2253 -0.10658,11.8188 4.15774,17.7162 -3.46661,4.0251 -6.18857,8.148 -8.83597,11.2191 0,0 -8.73736,1.2001 -10.02911,2.7474 -1.29167,1.5473 0.29392,13.8595 1.33222,15.6058 1.03858,1.7462 10.21122,2.0207 10.21122,2.0207 4.67452,5.8965 11.3671,9.6743 18.35126,12.0781 2.20518,8.105 4.74578,15.0043 6.96718,15.9557 5.47237,2.3437 15.43491,1.8957 19.13339,0 1.68812,-0.8651 1.94548,-6.0777 1.73272,-11.4873 3.37722,0.6587 6.84287,0.9985 10.32316,1.0122 3.47377,-0.012 6.9331,-0.3498 10.30475,-1.0048 -0.21214,5.4069 0.046,10.6151 1.73403,11.4799 3.69841,1.8957 13.66107,2.3437 19.13337,0 3.67504,-1.5739 8.21281,-19.4032 10.67144,-32.0629 0.16362,0.2412 0.34044,0.4743 0.53292,0.6946 1.65968,1.9017 4.28976,2.9875 7.24351,2.8533 2.9908,-0.1359 5.47574,-1.734 6.62262,-3.9726 1.14681,-2.2386 1.14434,-4.8315 0.47809,-7.3123 -0.22678,-0.8444 -0.56619,-1.6816 -0.95556,-2.5075 1.55254,-0.1918 3.23434,-0.3267 5.19941,-0.3138 3.19105,0.062 3.2228,-4.7457 0.0309,-4.7257 -3.15085,-0.021 -5.8658,0.2387 -8.23667,0.7028 -2.02142,-2.0396 -4.68256,-3.576 -7.90061,-4.063 -0.68006,-0.1029 -1.33889,-0.1576 -1.97834,-0.1735 -3.82788,-16.1956 -21.85464,-27.9496 -42.87968,-27.9589 -7.38473,0.014 -14.64425,1.4951 -21.09864,4.306 -3.40644,-5.1232 -8.09485,-6.0513 -13.7986,-9.6524 -0.67525,-0.4264 -1.25917,-0.6352 -1.76159,-0.6591 z m 37.81265,15.8 c 13.03666,0 22.83624,4.0968 22.83624,4.0968 l 0,8.3937 c 0,0 -6.80775,-4.0151 -22.83624,-4.0969 -16.0285,-0.082 -22.35337,4.0969 -22.35337,4.0969 l 0,-8.3937 c 0,0 9.31649,-4.0968 22.35337,-4.0968 z m 42.41382,22.9386 c 0.19187,0.021 0.38278,0.041 0.58282,0.072 1.12943,0.1709 2.16093,0.5698 3.09621,1.1069 -0.007,0.01 -0.01,0.01 -0.0137,0.01 -1.46375,0.6868 -2.70134,1.5124 -3.69992,2.4403 0.0908,-0.8996 0.12046,-1.5529 0.0831,-1.9074 0.007,-0.089 0.0117,-0.1784 0.0172,-0.2677 -0.009,-0.4833 -0.0309,-0.9664 -0.066,-1.4491 z m 7.37896,4.8124 c 0.54612,0.8835 0.96566,1.8087 1.21031,2.7197 0.44091,1.6417 0.30704,3.099 -0.11999,3.9325 -0.42703,0.8335 -0.95851,1.3301 -2.63104,1.4059 -1.70977,0.078 -2.83425,-0.5128 -3.46923,-1.2404 -0.63491,-0.7275 -0.85241,-1.5713 -0.51066,-2.6169 0.34168,-1.0457 1.37056,-2.4046 3.81434,-3.5511 0.49761,-0.2335 1.09218,-0.4448 1.70627,-0.6497 z"
         style="opacity:1;fill:#404040;fill-opacity:1;stroke:none;stroke-width:10;stroke-linecap:butt;stroke-linejoin:miter;stroke-miterlimit:4;stroke-dasharray:none;stroke-opacity:1" />
      <path
         inkscape:connector-curvature="0"
         id="rect4309"
         d="m 249.78561,480.49361 c -7.44534,0.01 -14.89584,0.3903 -16.17349,1.1279 -2.55545,1.4753 -2.48295,16.1726 -2.48295,16.1726 l 0,51.6154 c 0,5.171 4.26316,9.4343 9.43419,9.4343 l 68.27811,0 c 5.1711,0 9.43419,-4.2633 9.43419,-9.4343 l 0,-51.6154 c 0,-5.1709 -4.26309,-9.4342 -9.43419,-9.4342 l -40.03711,0 c -0.54187,-2.6587 -1.46932,-5.8787 -2.87872,-6.7384 -1.25491,-0.7653 -8.69475,-1.1348 -16.14003,-1.1279 z m -9.22225,14.2783 68.27811,0 c 1.72977,0 3.02227,1.2925 3.02227,3.0222 l 0,51.6154 c 0,1.7297 -1.2925,3.0224 -3.02227,3.0224 l -68.27811,0 c -1.72977,0 -3.02227,-1.2927 -3.02227,-3.0224 l 0,-51.6154 c 0,-1.7297 1.2925,-3.0222 3.02227,-3.0222 z m 1.10207,6.983 0,19.7609 19.58397,0 0,-19.7609 -19.58397,0 z m 23.245,0 0,19.7609 19.58404,0 0,-19.7609 -19.58404,0 z m 23.24493,0 0,19.7609 19.58486,0 0,-19.7609 -19.58486,0 z m -46.48993,24.6484 0,19.7602 19.58397,0 0,-19.7602 -19.58397,0 z m 23.245,0 0,19.7602 19.58404,0 0,-19.7602 -19.58404,0 z m 23.24493,0 0,19.7602 19.58486,0 0,-19.7602 -19.58486,0 z"
         style="color:#000000;font-style:normal;font-variant:normal;font-weight:normal;font-stretch:normal;font-size:medium;line-height:normal;font-family:sans-serif;text-indent:0;text-align:start;text-decoration:none;text-decoration-line:none;text-decoration-style:solid;text-decoration-color:#000000;letter-spacing:normal;word-spacing:normal;text-transform:none;direction:ltr;block-progression:tb;writing-mode:lr-tb;baseline-shift:baseline;text-anchor:start;white-space:normal;clip-rule:nonzero;display:inline;overflow:visible;visibility:visible;opacity:1;isolation:auto;mix-blend-mode:normal;color-interpolation:sRGB;color-interpolation-filters:linearRGB;solid-color:#000000;solid-opacity:1;fill:#404040;fill-opacity:1;fill-rule:nonzero;stroke:none;stroke-width:15;stroke-linecap:round;stroke-linejoin:miter;stroke-miterlimit:4;stroke-dasharray:none;stroke-dashoffset:0;stroke-opacity:1;color-rendering:auto;image-rendering:auto;shape-rendering:auto;text-rendering:auto;enable-background:accumulate" />
      <path
         sodipodi:nodetypes="sssssssssssssssssscccccccccccccccccccccccccccccccccccccccccccccccccc"
         inkscape:connector-curvature="0"
         id="rect4440"
         d="m 752.38959,632.55371 c -5.49051,0 -10.02047,4.5291 -10.02047,10.0196 l 0,66.0452 c 0,5.4905 4.52996,10.0205 10.02047,10.0205 l 50.72264,0 c 5.49059,0 10.02052,-4.53 10.02052,-10.0205 l 0,-66.0452 c 0,-5.4905 -4.52993,-10.0196 -10.02052,-10.0196 z m 0,7.0172 50.72264,0 c 1.72435,0 3.00331,1.278 3.00331,3.0024 l 0,66.0452 c 0,1.7244 -1.27896,3.0034 -3.00331,3.0034 l -50.72264,0 c -1.72434,0 -3.0033,-1.279 -3.0033,-3.0034 l 0,-66.0452 c 0,-1.7244 1.27896,-3.0024 3.0033,-3.0024 z m 1.26913,4.214 0,14.7688 48.41837,0 0,-14.7688 z m 1.73232,20.8091 0,10.7953 10.81444,0 0,-10.7953 z m 17.06961,0 0,10.7953 10.81445,0 0,-10.7953 z m 17.06962,0 0,10.7953 10.81444,0 0,-10.7953 z m -34.13923,15.7421 0,10.7952 10.81444,0 0,-10.7952 z m 17.06961,0 0,10.7952 10.81445,0 0,-10.7952 z m 17.06962,0 0,10.7952 10.81444,0 0,-10.7952 z m -34.13923,15.741 0,10.7953 10.81444,0 0,-10.7953 z m 17.06961,0 0,10.7953 10.81445,0 0,-10.7953 z m 17.06962,0 0,10.7953 10.81444,0 0,-10.7953 z"
         style="color:#000000;font-style:normal;font-variant:normal;font-weight:normal;font-stretch:normal;font-size:medium;line-height:normal;font-family:sans-serif;text-indent:0;text-align:start;text-decoration:none;text-decoration-line:none;text-decoration-style:solid;text-decoration-color:#000000;letter-spacing:normal;word-spacing:normal;text-transform:none;direction:ltr;block-progression:tb;writing-mode:lr-tb;baseline-shift:baseline;text-anchor:start;white-space:normal;clip-rule:nonzero;display:inline;overflow:visible;visibility:visible;opacity:1;isolation:auto;mix-blend-mode:normal;color-interpolation:sRGB;color-interpolation-filters:linearRGB;solid-color:#000000;solid-opacity:1;fill:#404040;fill-opacity:1;fill-rule:nonzero;stroke:none;stroke-width:15;stroke-linecap:round;stroke-linejoin:miter;stroke-miterlimit:4;stroke-dasharray:none;stroke-dashoffset:0;stroke-opacity:1;color-rendering:auto;image-rendering:auto;shape-rendering:auto;text-rendering:auto;enable-background:accumulate" />
      <g
         id="g4257">
        <path
           style="color:#000000;font-style:normal;font-variant:normal;font-weight:normal;font-stretch:normal;font-size:medium;line-height:normal;font-family:sans-serif;text-indent:0;text-align:start;text-decoration:none;text-decoration-line:none;text-decoration-style:solid;text-decoration-color:#000000;letter-spacing:normal;word-spacing:normal;text-transform:none;direction:ltr;block-progression:tb;writing-mode:lr-tb;baseline-shift:baseline;text-anchor:start;white-space:normal;clip-rule:nonzero;display:inline;overflow:visible;visibility:visible;opacity:1;isolation:auto;mix-blend-mode:normal;color-interpolation:sRGB;color-interpolation-filters:linearRGB;solid-color:#000000;solid-opacity:1;fill:#404040;fill-opacity:1;fill-rule:evenodd;stroke:none;stroke-width:5;stroke-linecap:butt;stroke-linejoin:miter;stroke-miterlimit:4;stroke-dasharray:none;stroke-dashoffset:0;stroke-opacity:1;color-rendering:auto;image-rendering:auto;shape-rendering:auto;text-rendering:auto;enable-background:accumulate"
           d="m 442.60014,471.70445 -3.43604,0.0378 0.47246,44.12085 -20.11828,6.30568 0,-50.44536 -3.43603,0 0,55.12291 27.01714,-8.46791 -0.49925,-46.67376 z"
           id="path7877"
           inkscape:connector-curvature="0" />
        <path
           inkscape:connector-curvature="0"
           id="path7631"
           style="fill:none;fill-rule:evenodd;stroke:#404040;stroke-width:5.33321762;stroke-linecap:butt;stroke-linejoin:round;stroke-miterlimit:4;stroke-dasharray:none;stroke-opacity:1"
           d="m 465.38814,510.15336 35.69645,11.89405 0.25866,28.17289 m -61.38597,-31.88326 37.63677,11.26965 0.43424,29.1969 m -31.91412,11.74905 72.21767,-26.58661 c 0.0625,-7.79369 0.12569,-19.73571 0.1885,-27.5294 m -108.98629,11.69057 0,28.84931 36.58012,13.57613 c 0.0467,-8.90435 0.0943,-21.95696 0.14143,-30.86125 M 482.19167,504.746 c -24.21925,7.79376 -48.43837,15.58744 -72.65755,23.3812 12.10956,3.89681 24.21912,7.79369 36.32874,11.69057 24.21919,-7.79376 48.43837,-15.58745 72.65755,-23.38114 -12.10962,-3.89687 -24.21911,-7.79375 -36.32874,-11.69063 z" />
        <path
           style="fill:none;fill-rule:evenodd;stroke:#404040;stroke-width:3.4360373;stroke-linecap:butt;stroke-linejoin:round;stroke-miterlimit:4;stroke-dasharray:none;stroke-opacity:1"
           d="m 409.53412,538.79156 36.67228,11.34071 31.5345,-10.65577"
           id="path7653"
           inkscape:connector-curvature="0" />
        <path
           style="fill:none;fill-rule:evenodd;stroke:#404040;stroke-width:3.4360373;stroke-linecap:butt;stroke-linejoin:round;stroke-miterlimit:4;stroke-dasharray:none;stroke-opacity:1"
           d="m 501.17049,531.40209 17.28416,-5.66871"
           id="path7655"
           inkscape:connector-curvature="0" />
        <path
           style="fill:none;fill-rule:evenodd;stroke:#404040;stroke-width:3.4360373;stroke-linecap:butt;stroke-linejoin:round;stroke-miterlimit:4;stroke-dasharray:none;stroke-opacity:1"
           d="m 409.53412,548.41247 36.62994,11.51155 31.72253,-10.6544"
           id="path7657"
           inkscape:connector-curvature="0" />
        <path
           style="fill:none;fill-rule:evenodd;stroke:#404040;stroke-width:3.4360373;stroke-linecap:butt;stroke-linejoin:round;stroke-miterlimit:4;stroke-dasharray:none;stroke-opacity:1"
           d="m 501.25103,540.16639 17.14527,-5.32455"
           id="path7659"
           inkscape:connector-curvature="0" />
        <path
           inkscape:connector-curvature="0"
           style="opacity:1;fill:#404040;fill-opacity:1;stroke:none;stroke-width:0.88388348;stroke-linecap:butt;stroke-linejoin:round;stroke-miterlimit:4;stroke-dasharray:none;stroke-opacity:1"
           d="m 462.51496,508.90157 -10.45551,3.99568 c -5.75115,2.19862 -10.40711,4.04926 -10.34625,4.11231 12.7453,4.67522 22.78421,8.11524 36.33398,12.99097 0.0865,0.0377 0.17318,0.0743 0.1946,0.0829 0.0693,0.0273 18.69887,-7.1341 18.89354,-7.2623 -12.11783,-5.1103 -21.45098,-8.70227 -34.62036,-13.91939 z"
           id="path7678"
           sodipodi:nodetypes="cccccccc" />
        <path
           inkscape:connector-curvature="0"
           style="opacity:1;fill:#404040;fill-opacity:1;stroke:none;stroke-width:5;stroke-linecap:butt;stroke-linejoin:round;stroke-miterlimit:4;stroke-dasharray:none;stroke-opacity:1"
           d="m 499.81311,524.67261 c -0.0337,-0.0323 -20.32794,6.13202 -20.46586,6.2162 -0.0158,0.01 0.0612,5.37094 0.17064,11.91329 0.10967,6.54236 0.20148,12.20653 0.20148,12.58628 0,0.37968 0.0495,0.69112 0.10638,0.6925 0.0563,0 4.63199,-1.58106 10.16724,-3.51727 l 10.06367,-3.52015 -0.0994,-12.16371 c -0.055,-6.69017 -0.11971,-12.18391 -0.14418,-12.20714 z"
           id="path7681"
           sodipodi:nodetypes="cccscsccc" />
        <path
           style="color:#000000;font-style:normal;font-variant:normal;font-weight:normal;font-stretch:normal;font-size:medium;line-height:normal;font-family:sans-serif;text-indent:0;text-align:start;text-decoration:none;text-decoration-line:none;text-decoration-style:solid;text-decoration-color:#000000;letter-spacing:normal;word-spacing:normal;text-transform:none;direction:ltr;block-progression:tb;writing-mode:lr-tb;baseline-shift:baseline;text-anchor:start;white-space:normal;clip-rule:nonzero;display:inline;overflow:visible;visibility:visible;opacity:1;isolation:auto;mix-blend-mode:normal;color-interpolation:sRGB;color-interpolation-filters:linearRGB;solid-color:#000000;solid-opacity:1;fill:#404040;fill-opacity:1;fill-rule:nonzero;stroke:none;stroke-width:5;stroke-linecap:butt;stroke-linejoin:round;stroke-miterlimit:4;stroke-dasharray:none;stroke-dashoffset:0;stroke-opacity:1;color-rendering:auto;image-rendering:auto;shape-rendering:auto;text-rendering:auto;enable-background:accumulate"
           d="m 429.34054,466.1182 c -3.34333,0 -6.36925,0.44023 -8.70823,1.22811 -1.16948,0.39398 -2.17322,0.8643 -2.99581,1.51935 -0.82258,0.65512 -1.55425,1.63171 -1.55425,2.85755 0,1.22591 0.73167,2.2025 1.55425,2.85761 0.82259,0.65505 1.82633,1.12537 2.99581,1.51935 2.33898,0.78788 5.3649,1.22811 8.70823,1.22811 3.34326,0 6.37048,-0.44023 8.70953,-1.22811 1.16949,-0.39398 2.17185,-0.8643 2.99444,-1.51935 0.82258,-0.65511 1.55563,-1.6317 1.55563,-2.85761 0,-1.22584 -0.73305,-2.20243 -1.55563,-2.85755 -0.82259,-0.65505 -1.82495,-1.12537 -2.99444,-1.51935 -2.33905,-0.78788 -5.36627,-1.22811 -8.70953,-1.22811 z m 0,3.43604 c 3.03052,0 5.77502,0.42916 7.61295,1.04827 0.91894,0.30952 1.60614,0.67655 1.95153,0.95164 0.34539,0.27502 0.25908,0.32148 0.25908,0.16906 0,-0.15236 0.0863,-0.1059 -0.25908,0.16912 -0.34539,0.27509 -1.03259,0.64212 -1.95153,0.95164 -1.83793,0.61911 -4.58243,1.04827 -7.61295,1.04827 -3.03052,0 -5.77371,-0.42916 -7.61165,-1.04827 -0.919,-0.30952 -1.60614,-0.67655 -1.9516,-0.95164 -0.34539,-0.27502 -0.25901,-0.32148 -0.25901,-0.16912 0,0.15242 -0.0864,0.10596 0.25901,-0.16906 0.34546,-0.27509 1.0326,-0.64212 1.9516,-0.95164 1.83794,-0.61911 4.58106,-1.04827 7.61165,-1.04827 z"
           id="path7874"
           inkscape:connector-curvature="0" />
        <path
           style="color:#000000;font-style:normal;font-variant:normal;font-weight:normal;font-stretch:normal;font-size:medium;line-height:normal;font-family:sans-serif;text-indent:0;text-align:start;text-decoration:none;text-decoration-line:none;text-decoration-style:solid;text-decoration-color:#000000;letter-spacing:normal;word-spacing:normal;text-transform:none;direction:ltr;block-progression:tb;writing-mode:lr-tb;baseline-shift:baseline;text-anchor:start;white-space:normal;clip-rule:nonzero;display:inline;overflow:visible;visibility:visible;opacity:1;isolation:auto;mix-blend-mode:normal;color-interpolation:sRGB;color-interpolation-filters:linearRGB;solid-color:#000000;solid-opacity:1;fill:#404040;fill-opacity:1;fill-rule:evenodd;stroke:none;stroke-width:3;stroke-linecap:round;stroke-linejoin:round;stroke-miterlimit:4;stroke-dasharray:none;stroke-dashoffset:0;stroke-opacity:1;color-rendering:auto;image-rendering:auto;shape-rendering:auto;text-rendering:auto;enable-background:accumulate"
           d="m 417.81902,477.67456 a 1.0309143,1.0309143 0 0 0 -0.83481,1.67239 c 2.16429,2.80442 6.8487,4.11252 11.72142,4.27086 4.87278,0.1584 10.01804,-0.9133 12.99653,-4.01721 a 1.0309143,1.0309143 0 1 0 -1.48711,-1.42671 c -2.28572,2.38186 -6.94231,3.52867 -11.44366,3.38229 -4.50134,-0.1463 -8.7634,-1.66627 -10.15507,-3.46957 a 1.0309143,1.0309143 0 0 0 -0.7973,-0.41205 z"
           id="path7897"
           inkscape:connector-curvature="0" />
        <path
           style="color:#000000;font-style:normal;font-variant:normal;font-weight:normal;font-stretch:normal;font-size:medium;line-height:normal;font-family:sans-serif;text-indent:0;text-align:start;text-decoration:none;text-decoration-line:none;text-decoration-style:solid;text-decoration-color:#000000;letter-spacing:normal;word-spacing:normal;text-transform:none;direction:ltr;block-progression:tb;writing-mode:lr-tb;baseline-shift:baseline;text-anchor:start;white-space:normal;clip-rule:nonzero;display:inline;overflow:visible;visibility:visible;opacity:1;isolation:auto;mix-blend-mode:normal;color-interpolation:sRGB;color-interpolation-filters:linearRGB;solid-color:#000000;solid-opacity:1;fill:#404040;fill-opacity:1;fill-rule:evenodd;stroke:none;stroke-width:3;stroke-linecap:round;stroke-linejoin:round;stroke-miterlimit:4;stroke-dasharray:none;stroke-dashoffset:0;stroke-opacity:1;color-rendering:auto;image-rendering:auto;shape-rendering:auto;text-rendering:auto;enable-background:accumulate"
           d="m 417.88348,483.68632 a 1.0309143,1.0309143 0 0 0 -0.83488,1.67232 c 2.16429,2.80449 6.84871,4.11252 11.72149,4.27093 4.87271,0.1584 10.01797,-0.9133 12.99653,-4.01721 a 1.0309143,1.0309143 0 1 0 -1.48718,-1.42678 c -2.28565,2.38186 -6.94224,3.53004 -11.44359,3.38367 -4.50134,-0.14631 -8.7634,-1.66758 -10.15514,-3.47088 a 1.0309143,1.0309143 0 0 0 -0.79723,-0.41205 z"
           id="path7897-0"
           inkscape:connector-curvature="0" />
        <path
           style="color:#000000;font-style:normal;font-variant:normal;font-weight:normal;font-stretch:normal;font-size:medium;line-height:normal;font-family:sans-serif;text-indent:0;text-align:start;text-decoration:none;text-decoration-line:none;text-decoration-style:solid;text-decoration-color:#000000;letter-spacing:normal;word-spacing:normal;text-transform:none;direction:ltr;block-progression:tb;writing-mode:lr-tb;baseline-shift:baseline;text-anchor:start;white-space:normal;clip-rule:nonzero;display:inline;overflow:visible;visibility:visible;opacity:1;isolation:auto;mix-blend-mode:normal;color-interpolation:sRGB;color-interpolation-filters:linearRGB;solid-color:#000000;solid-opacity:1;fill:#404040;fill-opacity:1;fill-rule:evenodd;stroke:none;stroke-width:3;stroke-linecap:round;stroke-linejoin:round;stroke-miterlimit:4;stroke-dasharray:none;stroke-dashoffset:0;stroke-opacity:1;color-rendering:auto;image-rendering:auto;shape-rendering:auto;text-rendering:auto;enable-background:accumulate"
           d="m 417.95056,489.87387 a 1.0309143,1.0309143 0 0 0 -0.8362,1.67101 c 2.16429,2.80443 6.84871,4.11253 11.72149,4.27086 4.87272,0.1584 10.01798,-0.91193 12.99654,-4.01584 a 1.0309218,1.0309218 0 1 0 -1.48719,-1.42808 c -2.28565,2.38186 -6.94093,3.52998 -11.44227,3.38367 -4.50128,-0.14631 -8.76472,-1.66627 -10.15645,-3.46957 a 1.0309143,1.0309143 0 0 0 -0.79592,-0.41205 z"
           id="path7897-0-1"
           inkscape:connector-curvature="0" />
        <path
           style="color:#000000;font-style:normal;font-variant:normal;font-weight:normal;font-stretch:normal;font-size:medium;line-height:normal;font-family:sans-serif;text-indent:0;text-align:start;text-decoration:none;text-decoration-line:none;text-decoration-style:solid;text-decoration-color:#000000;letter-spacing:normal;word-spacing:normal;text-transform:none;direction:ltr;block-progression:tb;writing-mode:lr-tb;baseline-shift:baseline;text-anchor:start;white-space:normal;clip-rule:nonzero;display:inline;overflow:visible;visibility:visible;opacity:1;isolation:auto;mix-blend-mode:normal;color-interpolation:sRGB;color-interpolation-filters:linearRGB;solid-color:#000000;solid-opacity:1;fill:#404040;fill-opacity:1;fill-rule:evenodd;stroke:none;stroke-width:3;stroke-linecap:round;stroke-linejoin:round;stroke-miterlimit:4;stroke-dasharray:none;stroke-dashoffset:0;stroke-opacity:1;color-rendering:auto;image-rendering:auto;shape-rendering:auto;text-rendering:auto;enable-background:accumulate"
           d="m 418.02175,496.56067 a 1.0309143,1.0309143 0 0 0 -0.83619,1.67239 c 2.16422,2.80442 6.84864,4.11252 11.72142,4.27092 4.87278,0.15834 10.01935,-0.91329 12.99791,-4.0172 A 1.0309598,1.0309598 0 0 0 440.41633,497.06 c -2.28565,2.38186 -6.94093,3.52867 -11.44221,3.38236 -4.50135,-0.14637 -8.76478,-1.66634 -10.15645,-3.46964 a 1.0309143,1.0309143 0 0 0 -0.79592,-0.41205 z"
           id="path7897-0-10"
           inkscape:connector-curvature="0" />
        <path
           style="color:#000000;font-style:normal;font-variant:normal;font-weight:normal;font-stretch:normal;font-size:medium;line-height:normal;font-family:sans-serif;text-indent:0;text-align:start;text-decoration:none;text-decoration-line:none;text-decoration-style:solid;text-decoration-color:#000000;letter-spacing:normal;word-spacing:normal;text-transform:none;direction:ltr;block-progression:tb;writing-mode:lr-tb;baseline-shift:baseline;text-anchor:start;white-space:normal;clip-rule:nonzero;display:inline;overflow:visible;visibility:visible;opacity:1;isolation:auto;mix-blend-mode:normal;color-interpolation:sRGB;color-interpolation-filters:linearRGB;solid-color:#000000;solid-opacity:1;fill:#404040;fill-opacity:1;fill-rule:evenodd;stroke:none;stroke-width:3;stroke-linecap:round;stroke-linejoin:round;stroke-miterlimit:4;stroke-dasharray:none;stroke-dashoffset:0;stroke-opacity:1;color-rendering:auto;image-rendering:auto;shape-rendering:auto;text-rendering:auto;enable-background:accumulate"
           d="m 418.09288,503.24349 a 1.0309143,1.0309143 0 0 0 -0.83489,1.67108 c 2.16429,2.80443 6.84733,4.11246 11.72012,4.27086 4.87278,0.1584 10.01934,-0.91193 12.99791,-4.01584 a 1.0309397,1.0309397 0 1 0 -1.48719,-1.42815 c -2.28565,2.38193 -6.94224,3.53005 -11.44358,3.38374 -4.50135,-0.14631 -8.76348,-1.66627 -10.15514,-3.46964 a 1.0309143,1.0309143 0 0 0 -0.79723,-0.41205 z"
           id="path7897-0-9"
           inkscape:connector-curvature="0" />
        <path
           style="color:#000000;font-style:normal;font-variant:normal;font-weight:normal;font-stretch:normal;font-size:medium;line-height:normal;font-family:sans-serif;text-indent:0;text-align:start;text-decoration:none;text-decoration-line:none;text-decoration-style:solid;text-decoration-color:#000000;letter-spacing:normal;word-spacing:normal;text-transform:none;direction:ltr;block-progression:tb;writing-mode:lr-tb;baseline-shift:baseline;text-anchor:start;white-space:normal;clip-rule:nonzero;display:inline;overflow:visible;visibility:visible;opacity:1;isolation:auto;mix-blend-mode:normal;color-interpolation:sRGB;color-interpolation-filters:linearRGB;solid-color:#000000;solid-opacity:1;fill:#404040;fill-opacity:1;fill-rule:evenodd;stroke:none;stroke-width:3;stroke-linecap:round;stroke-linejoin:round;stroke-miterlimit:4;stroke-dasharray:none;stroke-dashoffset:0;stroke-opacity:1;color-rendering:auto;image-rendering:auto;shape-rendering:auto;text-rendering:auto;enable-background:accumulate"
           d="m 418.16132,509.55453 a 1.0309143,1.0309143 0 0 0 -0.83619,1.67108 c 2.16429,2.80442 6.84871,4.11245 11.72142,4.27086 4.87278,0.1584 10.01804,-0.91193 12.99654,-4.01584 a 1.0309149,1.0309149 0 1 0 -1.48712,-1.42815 c -2.28572,2.38193 -6.94093,3.53004 -11.44228,3.38374 -4.50134,-0.14638 -8.76478,-1.66634 -10.15644,-3.46964 a 1.0309143,1.0309143 0 0 0 -0.79593,-0.41205 z"
           id="path7897-0-6"
           inkscape:connector-curvature="0" />
        <path
           style="color:#000000;font-style:normal;font-variant:normal;font-weight:normal;font-stretch:normal;font-size:medium;line-height:normal;font-family:sans-serif;text-indent:0;text-align:start;text-decoration:none;text-decoration-line:none;text-decoration-style:solid;text-decoration-color:#000000;letter-spacing:normal;word-spacing:normal;text-transform:none;direction:ltr;block-progression:tb;writing-mode:lr-tb;baseline-shift:baseline;text-anchor:start;white-space:normal;clip-rule:nonzero;display:inline;overflow:visible;visibility:visible;opacity:1;isolation:auto;mix-blend-mode:normal;color-interpolation:sRGB;color-interpolation-filters:linearRGB;solid-color:#000000;solid-opacity:1;fill:#404040;fill-opacity:1;fill-rule:evenodd;stroke:none;stroke-width:3;stroke-linecap:round;stroke-linejoin:round;stroke-miterlimit:4;stroke-dasharray:none;stroke-dashoffset:0;stroke-opacity:1;color-rendering:auto;image-rendering:auto;shape-rendering:auto;text-rendering:auto;enable-background:accumulate"
           d="m 418.22839,515.90721 a 1.0309143,1.0309143 0 0 0 -0.83482,1.67239 c 2.1643,2.80442 6.84734,4.11245 11.72012,4.27086 4.87272,0.1584 10.01935,-0.912 12.99784,-4.01584 a 1.0309149,1.0309149 0 1 0 -1.48711,-1.42815 c -2.28572,2.38193 -6.94231,3.53004 -11.44366,3.38374 -4.50134,-0.14638 -8.7634,-1.66634 -10.15507,-3.46964 a 1.0309143,1.0309143 0 0 0 -0.7973,-0.41336 z"
           id="path7897-0-7"
           inkscape:connector-curvature="0" />
        <path
           style="color:#000000;font-style:normal;font-variant:normal;font-weight:normal;font-stretch:normal;font-size:medium;line-height:normal;font-family:sans-serif;text-indent:0;text-align:start;text-decoration:none;text-decoration-line:none;text-decoration-style:solid;text-decoration-color:#000000;letter-spacing:normal;word-spacing:normal;text-transform:none;direction:ltr;block-progression:tb;writing-mode:lr-tb;baseline-shift:baseline;text-anchor:start;white-space:normal;clip-rule:nonzero;display:inline;overflow:visible;visibility:visible;opacity:1;isolation:auto;mix-blend-mode:normal;color-interpolation:sRGB;color-interpolation-filters:linearRGB;solid-color:#000000;solid-opacity:1;fill:#404040;fill-opacity:1;fill-rule:evenodd;stroke:none;stroke-width:5;stroke-linecap:butt;stroke-linejoin:miter;stroke-miterlimit:4;stroke-dasharray:none;stroke-dashoffset:0;stroke-opacity:1;color-rendering:auto;image-rendering:auto;shape-rendering:auto;text-rendering:auto;enable-background:accumulate"
           d="m 472.11343,480.5967 -3.43604,0.0378 0.47246,26.14151 -20.11827,6.30568 0,-32.46595 -3.43604,0 0,37.14349 27.01715,-8.46797 z"
           id="path7877-4"
           inkscape:connector-curvature="0"
           sodipodi:nodetypes="ccccccccc" />
        <path
           style="color:#000000;font-style:normal;font-variant:normal;font-weight:normal;font-stretch:normal;font-size:medium;line-height:normal;font-family:sans-serif;text-indent:0;text-align:start;text-decoration:none;text-decoration-line:none;text-decoration-style:solid;text-decoration-color:#000000;letter-spacing:normal;word-spacing:normal;text-transform:none;direction:ltr;block-progression:tb;writing-mode:lr-tb;baseline-shift:baseline;text-anchor:start;white-space:normal;clip-rule:nonzero;display:inline;overflow:visible;visibility:visible;opacity:1;isolation:auto;mix-blend-mode:normal;color-interpolation:sRGB;color-interpolation-filters:linearRGB;solid-color:#000000;solid-opacity:1;fill:#404040;fill-opacity:1;fill-rule:nonzero;stroke:none;stroke-width:5;stroke-linecap:butt;stroke-linejoin:round;stroke-miterlimit:4;stroke-dasharray:none;stroke-dashoffset:0;stroke-opacity:1;color-rendering:auto;image-rendering:auto;shape-rendering:auto;text-rendering:auto;enable-background:accumulate"
           d="m 458.85383,475.01046 c -3.34333,0 -6.36924,0.44023 -8.70822,1.22811 -1.16949,0.39398 -2.17323,0.8643 -2.99581,1.51942 -0.82259,0.65504 -1.55426,1.63163 -1.55426,2.85754 0,1.22584 0.73167,2.20243 1.55426,2.85755 0.82258,0.65505 1.82632,1.12544 2.99581,1.51935 2.33898,0.78788 5.36489,1.22811 8.70822,1.22811 3.34327,0 6.37048,-0.44023 8.70953,-1.22811 1.16949,-0.39391 2.17185,-0.8643 2.99444,-1.51935 0.82259,-0.65512 1.55563,-1.63171 1.55563,-2.85755 0,-1.22591 -0.73304,-2.2025 -1.55563,-2.85754 -0.82259,-0.65512 -1.82495,-1.12544 -2.99444,-1.51942 -2.33905,-0.78788 -5.36626,-1.22811 -8.70953,-1.22811 z m 0,3.43604 c 3.03052,0 5.77502,0.42916 7.61295,1.04827 0.91894,0.30952 1.60615,0.67655 1.95154,0.95164 0.34539,0.27502 0.25907,0.32148 0.25907,0.16912 0,-0.15242 0.0863,-0.10596 -0.25907,0.16913 -0.34539,0.27502 -1.0326,0.64205 -1.95154,0.95157 -1.83793,0.61911 -4.58243,1.04827 -7.61295,1.04827 -3.03051,0 -5.77371,-0.42916 -7.61165,-1.04827 -0.919,-0.30952 -1.60614,-0.67655 -1.9516,-0.95157 -0.34539,-0.27509 -0.259,-0.32155 -0.259,-0.16913 0,0.15236 -0.0864,0.1059 0.259,-0.16912 0.34546,-0.27509 1.0326,-0.64212 1.9516,-0.95164 1.83794,-0.61911 4.58107,-1.04827 7.61165,-1.04827 z"
           id="path7874-9"
           inkscape:connector-curvature="0" />
        <path
           style="color:#000000;font-style:normal;font-variant:normal;font-weight:normal;font-stretch:normal;font-size:medium;line-height:normal;font-family:sans-serif;text-indent:0;text-align:start;text-decoration:none;text-decoration-line:none;text-decoration-style:solid;text-decoration-color:#000000;letter-spacing:normal;word-spacing:normal;text-transform:none;direction:ltr;block-progression:tb;writing-mode:lr-tb;baseline-shift:baseline;text-anchor:start;white-space:normal;clip-rule:nonzero;display:inline;overflow:visible;visibility:visible;opacity:1;isolation:auto;mix-blend-mode:normal;color-interpolation:sRGB;color-interpolation-filters:linearRGB;solid-color:#000000;solid-opacity:1;fill:#404040;fill-opacity:1;fill-rule:evenodd;stroke:none;stroke-width:3;stroke-linecap:round;stroke-linejoin:round;stroke-miterlimit:4;stroke-dasharray:none;stroke-dashoffset:0;stroke-opacity:1;color-rendering:auto;image-rendering:auto;shape-rendering:auto;text-rendering:auto;enable-background:accumulate"
           d="m 447.33232,486.56682 a 1.0309143,1.0309143 0 0 0 -0.83482,1.67239 c 2.16429,2.80442 6.84871,4.11252 11.72142,4.27092 4.87278,0.15834 10.01804,-0.91336 12.99654,-4.01721 a 1.0309143,1.0309143 0 1 0 -1.48712,-1.42678 c -2.28572,2.38186 -6.94231,3.52868 -11.44365,3.38237 -4.50135,-0.14638 -8.76341,-1.66634 -10.15507,-3.46964 a 1.0309143,1.0309143 0 0 0 -0.7973,-0.41205 z"
           id="path7897-4"
           inkscape:connector-curvature="0" />
        <path
           style="color:#000000;font-style:normal;font-variant:normal;font-weight:normal;font-stretch:normal;font-size:medium;line-height:normal;font-family:sans-serif;text-indent:0;text-align:start;text-decoration:none;text-decoration-line:none;text-decoration-style:solid;text-decoration-color:#000000;letter-spacing:normal;word-spacing:normal;text-transform:none;direction:ltr;block-progression:tb;writing-mode:lr-tb;baseline-shift:baseline;text-anchor:start;white-space:normal;clip-rule:nonzero;display:inline;overflow:visible;visibility:visible;opacity:1;isolation:auto;mix-blend-mode:normal;color-interpolation:sRGB;color-interpolation-filters:linearRGB;solid-color:#000000;solid-opacity:1;fill:#404040;fill-opacity:1;fill-rule:evenodd;stroke:none;stroke-width:3;stroke-linecap:round;stroke-linejoin:round;stroke-miterlimit:4;stroke-dasharray:none;stroke-dashoffset:0;stroke-opacity:1;color-rendering:auto;image-rendering:auto;shape-rendering:auto;text-rendering:auto;enable-background:accumulate"
           d="m 447.39678,492.57858 a 1.0309143,1.0309143 0 0 0 -0.83489,1.67239 c 2.16429,2.80442 6.84871,4.11245 11.72149,4.27085 4.87271,0.1584 10.01797,-0.9133 12.99654,-4.01721 a 1.0309143,1.0309143 0 1 0 -1.48719,-1.42678 c -2.28565,2.38193 -6.94224,3.53005 -11.44358,3.38375 -4.50135,-0.14638 -8.76341,-1.66765 -10.15514,-3.47095 a 1.0309143,1.0309143 0 0 0 -0.79723,-0.41205 z"
           id="path7897-0-8"
           inkscape:connector-curvature="0" />
        <path
           style="color:#000000;font-style:normal;font-variant:normal;font-weight:normal;font-stretch:normal;font-size:medium;line-height:normal;font-family:sans-serif;text-indent:0;text-align:start;text-decoration:none;text-decoration-line:none;text-decoration-style:solid;text-decoration-color:#000000;letter-spacing:normal;word-spacing:normal;text-transform:none;direction:ltr;block-progression:tb;writing-mode:lr-tb;baseline-shift:baseline;text-anchor:start;white-space:normal;clip-rule:nonzero;display:inline;overflow:visible;visibility:visible;opacity:1;isolation:auto;mix-blend-mode:normal;color-interpolation:sRGB;color-interpolation-filters:linearRGB;solid-color:#000000;solid-opacity:1;fill:#404040;fill-opacity:1;fill-rule:evenodd;stroke:none;stroke-width:3;stroke-linecap:round;stroke-linejoin:round;stroke-miterlimit:4;stroke-dasharray:none;stroke-dashoffset:0;stroke-opacity:1;color-rendering:auto;image-rendering:auto;shape-rendering:auto;text-rendering:auto;enable-background:accumulate"
           d="m 447.46385,498.76613 a 1.0309143,1.0309143 0 0 0 -0.8362,1.67101 c 2.1643,2.80442 6.84871,4.11252 11.7215,4.27092 4.87271,0.15834 10.01797,-0.91199 12.99653,-4.0159 a 1.0309218,1.0309218 0 1 0 -1.48718,-1.42808 c -2.28566,2.38186 -6.94094,3.52997 -11.44228,3.38367 -4.50128,-0.14631 -8.76471,-1.66627 -10.15645,-3.46957 a 1.0309143,1.0309143 0 0 0 -0.79592,-0.41205 z"
           id="path7897-0-1-1"
           inkscape:connector-curvature="0" />
        <path
           style="color:#000000;font-style:normal;font-variant:normal;font-weight:normal;font-stretch:normal;font-size:medium;line-height:normal;font-family:sans-serif;text-indent:0;text-align:start;text-decoration:none;text-decoration-line:none;text-decoration-style:solid;text-decoration-color:#000000;letter-spacing:normal;word-spacing:normal;text-transform:none;direction:ltr;block-progression:tb;writing-mode:lr-tb;baseline-shift:baseline;text-anchor:start;white-space:normal;clip-rule:nonzero;display:inline;overflow:visible;visibility:visible;opacity:1;isolation:auto;mix-blend-mode:normal;color-interpolation:sRGB;color-interpolation-filters:linearRGB;solid-color:#000000;solid-opacity:1;fill:#404040;fill-opacity:1;fill-rule:evenodd;stroke:none;stroke-width:3;stroke-linecap:round;stroke-linejoin:round;stroke-miterlimit:4;stroke-dasharray:none;stroke-dashoffset:0;stroke-opacity:1;color-rendering:auto;image-rendering:auto;shape-rendering:auto;text-rendering:auto;enable-background:accumulate"
           d="m 447.53504,505.45293 a 1.0309143,1.0309143 0 0 0 -0.83619,1.67239 c 2.16422,2.80442 6.84864,4.11252 11.72142,4.27092 4.87278,0.1584 10.01935,-0.9133 12.99791,-4.01721 a 1.0309598,1.0309598 0 0 0 -1.48856,-1.42678 c -2.28565,2.38187 -6.94093,3.52868 -11.44221,3.38237 -4.50134,-0.14631 -8.76478,-1.66627 -10.15644,-3.46964 a 1.0309143,1.0309143 0 0 0 -0.79593,-0.41205 z"
           id="path7897-0-10-8"
           inkscape:connector-curvature="0" />
      </g>
      <path
         inkscape:connector-curvature="0"
         id="rect7544-6"
         d="m 602.36787,483.78681 c -9.65433,-5.2918 -21.87016,-1.727 -27.16204,7.9272 l -0.15505,0.2828 c -5.29168,9.6542 -1.72559,21.8699 7.92855,27.1616 l 20.83738,11.4216 a 4.3230289,4.3230289 0 1 0 4.15544,-7.581 l -20.83743,-11.4216 c -5.5855,-3.0616 -7.56437,-9.8398 -4.50283,-15.4251 l 0.15502,-0.2828 c 3.06165,-5.5854 9.84009,-7.5634 15.42547,-4.5017 l 25.35045,13.8956 c 2.79275,1.5307 4.64515,3.9871 5.45917,6.7759 0.81402,2.7889 0.57373,5.8559 -0.95699,8.6487 l -0.0195,0.036 -0.0195,0.036 -0.0195,0.035 -0.0195,0.036 -0.0194,0.036 -0.019,0.035 -0.0193,0.036 -0.0195,0.036 a 4.3230289,4.3230289 0 1 0 7.58096,4.1554 l 0.0195,-0.036 0.0195,-0.036 0.019,-0.035 0.0194,-0.036 0.0195,-0.036 0.0194,-0.034 0.0195,-0.036 0.0194,-0.036 c 2.64591,-4.8271 3.10806,-10.3179 1.67523,-15.2265 -1.43261,-4.9085 -4.77585,-9.2888 -9.60286,-11.9347 l -25.35043,-13.8955 z m 45.94547,25.185 a 4.3230289,4.3230289 0 1 0 -4.15553,7.581 l 20.44497,11.2067 c 5.5856,3.0617 7.56374,9.8395 4.50215,15.4249 l -0.15511,0.2828 c -3.06145,5.5854 -9.83911,7.5637 -15.42442,4.502 l -25.35064,-13.8956 c -2.79268,-1.5307 -4.64498,-3.987 -5.45917,-6.7759 -0.81402,-2.7889 -0.57363,-5.8559 0.95716,-8.6486 l 0.0194,-0.036 0.0194,-0.036 0.019,-0.035 0.0195,-0.036 0.0195,-0.036 0.0194,-0.034 0.0195,-0.036 0.019,-0.035 a 4.3230289,4.3230289 0 1 0 -7.58096,-4.1555 l -0.0195,0.034 -0.0195,0.036 -0.019,0.034 -0.0195,0.036 -0.0194,0.036 -0.019,0.035 -0.0195,0.036 -0.02,0.036 c -2.64588,4.8269 -3.10789,10.3177 -1.67513,15.2263 1.43266,4.9087 4.77575,9.2889 9.60286,11.9347 l 25.35049,13.8957 c 9.65417,5.2917 21.86929,1.7264 27.16121,-7.9277 l 0.15501,-0.2828 c 5.29168,-9.6542 1.72654,-21.8695 -7.92779,-27.1612 l -20.44502,-11.2068 z"
         style="color:#000000;font-style:normal;font-variant:normal;font-weight:normal;font-stretch:normal;font-size:medium;line-height:normal;font-family:sans-serif;text-indent:0;text-align:start;text-decoration:none;text-decoration-line:none;text-decoration-style:solid;text-decoration-color:#000000;letter-spacing:normal;word-spacing:normal;text-transform:none;direction:ltr;block-progression:tb;writing-mode:lr-tb;baseline-shift:baseline;text-anchor:start;white-space:normal;clip-rule:nonzero;display:inline;overflow:visible;visibility:visible;opacity:1;isolation:auto;mix-blend-mode:normal;color-interpolation:sRGB;color-interpolation-filters:linearRGB;solid-color:#000000;solid-opacity:1;fill:#404040;fill-opacity:1;fill-rule:nonzero;stroke:none;stroke-width:20;stroke-linecap:round;stroke-linejoin:round;stroke-miterlimit:4;stroke-dasharray:none;stroke-dashoffset:0;stroke-opacity:1;color-rendering:auto;image-rendering:auto;shape-rendering:auto;text-rendering:auto;enable-background:accumulate" />
      <path
         inkscape:connector-curvature="0"
         id="path5820-0-2-00-6-1-6-3"
         d="m 275.26283,637.23821 a 38.362356,38.362356 0 0 0 -27.68648,11.2317 38.362356,38.362356 0 0 0 0,54.2529 38.362356,38.362356 0 0 0 54.25193,0 38.362356,38.362356 0 0 0 0,-54.2529 38.362356,38.362356 0 0 0 -26.56545,-11.2317 z m -2.87067,18.1667 4.61934,0 c 1.26632,0 2.28524,1.0198 2.28524,2.2861 l 0,13.3095 13.31045,0 c 1.26632,0 2.28614,1.0199 2.28614,2.2862 l 0,4.6193 c 0,1.2664 -1.01982,2.2853 -2.28614,2.2853 l -13.31045,0 0,13.3104 c 0,1.2663 -1.01892,2.2861 -2.28524,2.2861 l -4.61934,0 c -1.26631,0 -2.28524,-1.0198 -2.28524,-2.2861 l 0,-13.3104 -13.31038,0 c -1.26632,0 -2.28613,-1.0189 -2.28613,-2.2853 l 0,-4.6193 c 0,-1.2663 1.01981,-2.2862 2.28613,-2.2862 l 13.31038,0 0,-13.3095 c 0,-1.2663 1.01893,-2.2861 2.28524,-2.2861 z"
         style="opacity:1;fill:#404040;fill-opacity:1;stroke:none;stroke-width:1;stroke-linecap:round;stroke-linejoin:round;stroke-miterlimit:4;stroke-dasharray:none;stroke-opacity:1" />
      <path
         sodipodi:nodetypes="cccccszccccsccccszccccsccccccsccccccccccccscccccccccccsccssssccccccccccccccccccccccccccccccccccccccccccccccccccccccccccccccccccccccccccccccccccccccccccccccccccccccccccccccccccccccccccccccccccccccccccc"
         inkscape:connector-curvature="0"
         id="path4551"
         d="m 112.0215,621.21031 -71.63686,0.1887 -0.33654,0.1343 c 0,0 -4.65953,2.3152 -7.3322,5.5114 -2.67247,3.1962 -5.12687,9.2149 -5.03656,17.264 0.048,4.2858 2.1831,15.1904 4.03889,26.9754 1.8557,11.7849 4.26197,24.8162 5.1861,34.4093 0.92413,9.5928 -11.0321,19.6221 -11.28729,19.8077 -1.67895,1.2584 -0.54568,4.9296 1.25804,4.8052 l 73.60141,-0.798 c 0.66649,0.058 3.25281,-0.2402 3.74774,-0.5901 0.98561,-0.6724 14.91977,-13.1325 12.46001,-27.7407 -1.17197,-6.9597 -4.07666,-19.6488 -6.70403,-31.6001 -1.05163,-5.7384 -2.38,-9.8902 -3.02522,-14.762 l 6.1269,-0.7084 c 1.48826,-0.1679 2.75261,-0.5393 3.91959,-1.1347 5.78046,-3.211 9.60174,-12.317 9.52462,-18.8094 -0.0395,-3.3102 -0.53975,-6.572 -2.05052,-9.2777 -1.51068,-2.7056 -4.17091,-4.0035 -6.92164,-3.9842 -1.83743,-0.043 -3.82138,-0.033 -5.53244,0.3093 z m 2.50063,5.3587 0,0 c 1.79524,-0.066 2.93133,0.5293 3.82345,1.4771 1.18957,1.2638 1.92697,3.5061 1.95852,6.1637 0.0631,5.3136 -2.81806,11.7692 -6.84122,13.8483 -0.0349,0.019 -0.0687,0.04 -0.10246,0.061 -0.0113,0.01 -0.0207,0.012 -0.0311,0.018 l -0.009,0 c -0.53325,0.3299 -0.86066,0.4543 -1.10596,0.4769 -0.0565,-0.014 -0.11412,-0.025 -0.17203,-0.035 -0.16234,-0.026 -0.30943,-0.065 -0.44964,-0.163 -0.36583,-0.2551 -0.90897,-1.0924 -1.10596,-2.3553 -0.39134,-2.5078 0.55152,-6.148 3.33464,-8.2052 0.63307,-0.4133 0.96679,-1.158 0.85388,-1.9057 -0.009,-0.062 -0.0217,-0.1232 -0.0367,-0.1841 l 0,0 0,0 c -0.0122,-0.045 -0.0254,-0.09 -0.0414,-0.1342 -0.0104,-0.033 -0.0226,-0.066 -0.0348,-0.098 l -0.009,-0.015 -0.009,-0.012 c -0.32091,-0.7907 -1.12263,-1.2771 -1.97209,-1.1965 l -7.92147,-0.2218 c 0.88524,-1.7747 1.95127,-3.192 3.0448,-4.2279 2.47266,-2.3422 4.79287,-2.9841 4.83298,-2.995 0.74108,-0.1735 1.40126,-0.2697 1.98715,-0.2912 z m -9.35795,0.3892 c -0.0395,0.036 -0.0782,0.056 -0.1178,0.093 -1.82368,1.7276 -3.54247,4.291 -4.72112,7.6091 -0.11497,0.5124 -0.22468,0.7919 -0.46319,1.5074 -0.57902,2.0957 -1.00257,4.3806 -0.9747,7.1067 0.016,1.5406 0.37374,3.9369 0.84946,6.6843 -0.016,0.2962 0.0377,0.592 0.15386,0.8645 0.19097,1.0669 0.33542,1.9865 0.57045,3.2019 0.92771,4.8003 2.17538,10.6017 3.49133,16.5883 2.63227,11.9734 5.54251,24.7286 6.66777,31.4115 1.9476,11.5662 -9.89525,20.4868 -11.10074,21.3655 l -63.81567,0.3591 c 4.24191,-4.2648 8.59042,-10.3537 7.23832,-20.0326 -0.95201,-6.8147 -2.89311,-21.1962 -4.74127,-32.933 -1.84816,-11.7368 -3.33916,-22.9606 -3.37683,-26.3145 -0.081,-7.23 2.11597,-11.4847 4.24003,-14.0249 1.91634,-2.292 3.48248,-2.999 3.80669,-3.1369 z m -1.84534,10.9513 5.24476,0.1464 c -1.71605,2.7289 -2.31164,5.904 -1.89054,8.6034 0.0942,0.6031 0.33476,1.1435 0.52968,1.7051 l -3.71036,-0.1568 c -0.25405,-1.705 -0.73486,-4.2262 -0.74239,-4.9719 -0.0207,-2.0465 0.21761,-3.7658 0.56885,-5.3262 z m -61.43482,0.2188 0,2.3177 46.78224,0 0,-2.3177 z m -0.90237,6.3568 0,2.3177 46.57253,0 0,-2.3177 z m 2.03856,6.5726 0,2.3177 46.36575,0 0,-2.3177 z m 43.91842,13.4454 c -0.63881,-0.011 -1.16604,0.4974 -1.17847,1.1362 l -0.0452,2.4248 -2.24516,-0.9174 c -1.07064,-0.4397 -2.05334,0.7887 -1.38977,1.7367 l 1.38977,1.9886 -2.35674,0.5765 c -1.12272,0.2749 -1.19523,1.8436 -0.10264,2.221 l 2.29347,0.7936 -1.56775,1.8514 c -0.74531,0.8816 0.11583,2.1917 1.22066,1.8574 l 2.32218,-0.7061 -0.17966,2.4187 c -0.0838,1.1507 1.38205,1.7038 2.07914,0.7846 l 1.46379,-1.9359 1.2764,2.0641 c 0.60834,0.9827 2.12269,0.5671 2.14416,-0.5884 l 0.0452,-2.4263 2.24516,0.9189 c 1.07055,0.4399 2.05354,-0.7886 1.38968,-1.7367 l -1.38968,-1.9886 2.35684,-0.5764 c 1.12253,-0.275 1.19504,-1.8437 0.10254,-2.2211 l -2.29196,-0.7921 1.56775,-1.8529 c 0.74672,-0.8821 -0.11648,-2.1941 -1.22207,-1.8574 l -2.32068,0.7061 0.17948,-2.4187 c 0.0866,-1.153 -1.38403,-1.7074 -2.08056,-0.7846 l -1.46374,1.9359 -1.27649,-2.0641 c -0.20782,-0.3348 -0.57158,-0.5413 -0.96565,-0.5478 z m -42.70832,2.2709 0,2.3177 29.31712,0 0,-2.3177 z m 43.7736,2.8427 0.0965,0.1554 c 0.42854,0.6927 1.41905,0.7389 1.91021,0.089 l 0.11168,-0.1479 -0.0141,0.1842 c -0.0603,0.8118 0.71325,1.4313 1.49227,1.1949 l 0.17665,-0.055 -0.11921,0.1419 c -0.52591,0.6214 -0.26394,1.5774 0.50547,1.8438 l 0.17505,0.061 -0.17957,0.043 c -0.79004,0.194 -1.13957,1.1204 -0.6745,1.788 l 0.10566,0.1508 -0.17054,-0.07 c -0.75416,-0.3088 -1.58332,0.2368 -1.59792,1.0517 l 0,0.1826 -0.0965,-0.1554 c -0.42855,-0.6928 -1.41915,-0.7389 -1.91022,-0.089 l -0.11008,0.1464 0.0132,-0.1826 c 0.0612,-0.8128 -0.71414,-1.4328 -1.49363,-1.195 l -0.17666,0.055 0.11912,-0.1418 c 0.5261,-0.6216 0.26404,-1.5774 -0.50538,-1.8439 l -0.17204,-0.059 0.17656,-0.044 c 0.79126,-0.1937 1.14109,-1.1218 0.67441,-1.7896 l -0.10556,-0.1508 0.17053,0.07 c 0.7536,0.3087 1.58224,-0.2359 1.59787,-1.0501 z m -42.59673,3.5142 0,2.3175 29.3157,0 0,-2.3175 z m 1.20709,6.5741 0,2.3176 29.3157,0 0,-2.3176 z m 2.64508,8.0859 0,2.3177 52.25191,0 0,-2.3177 z m 1.47103,6.9091 0,2.3176 52.2521,0 0,-2.3176 z m -1.02893,6.7642 0,2.3176 52.25182,0 0,-2.3176 z m 10.07925,14.4444 0,2.3176 4.63514,0 0,-2.3176 z m 6.95272,0 0,2.3176 4.63523,0 0,-2.3176 z m 6.9529,0 0,2.3176 4.63514,0 0,-2.3176 z m 6.95281,0 0,2.3176 4.15688,0 0,-2.3176 z"
         style="color:#000000;font-style:normal;font-variant:normal;font-weight:normal;font-stretch:normal;font-size:medium;line-height:normal;font-family:sans-serif;text-indent:0;text-align:start;text-decoration:none;text-decoration-line:none;text-decoration-style:solid;text-decoration-color:#000000;letter-spacing:normal;word-spacing:normal;text-transform:none;direction:ltr;block-progression:tb;writing-mode:lr-tb;baseline-shift:baseline;text-anchor:start;white-space:normal;clip-rule:nonzero;display:inline;overflow:visible;visibility:visible;opacity:1;isolation:auto;mix-blend-mode:normal;color-interpolation:sRGB;color-interpolation-filters:linearRGB;solid-color:#000000;solid-opacity:1;fill:#404040;fill-opacity:1;fill-rule:evenodd;stroke:none;stroke-width:5;stroke-linecap:round;stroke-linejoin:miter;stroke-miterlimit:4;stroke-dasharray:none;stroke-dashoffset:0;stroke-opacity:1;color-rendering:auto;image-rendering:auto;shape-rendering:auto;text-rendering:auto;enable-background:accumulate" />
      <path
         inkscape:connector-curvature="0"
         id="path5205"
         d="m 770.44129,328.02261 -3.64824,15.272 -14.32897,-6.7993 a 39.593368,39.593368 0 0 0 -9.60108,11.7345 l 9.86318,12.6277 -14.51859,7.0947 a 39.593368,39.593368 0 0 0 1.67259,10.5337 39.593368,39.593368 0 0 0 1.58181,4.1564 l 16.22377,0.1639 -3.52324,15.8578 a 39.593368,39.593368 0 0 0 13.55379,6.5038 l 10.22063,-12.5548 10.08298,12.4948 a 39.593368,39.593368 0 0 0 1.29504,-0.3253 39.593368,39.593368 0 0 0 12.30555,-6.3189 l -3.38834,-15.57 15.76096,-0.091 a 39.593368,39.593368 0 0 0 3.30107,-14.9151 l -14.007,-6.92 9.62234,-12.2101 a 39.593368,39.593368 0 0 0 -9.53541,-12.0193 l -14.07889,6.6061 -3.56358,-15.2067 a 39.593368,39.593368 0 0 0 -15.29037,-0.1147 z m 2.60864,24.6491 a 15.126697,15.126697 0 0 1 18.88556,10.0469 15.126697,15.126697 0 0 1 -10.04553,18.8863 15.126697,15.126697 0 0 1 -18.88666,-10.0467 15.126697,15.126697 0 0 1 10.04663,-18.8865 z"
         style="opacity:1;fill:#404040;fill-opacity:1;stroke:none;stroke-width:1;stroke-linecap:round;stroke-linejoin:round;stroke-miterlimit:4;stroke-dasharray:none;stroke-dashoffset:0;stroke-opacity:1" />
      <path
         sodipodi:nodetypes="sssssscssssccsssscc"
         inkscape:connector-curvature="0"
         id="path5820-0-2-00-6-1-6-3-9-0"
         d="m 464.58768,637.23821 c -10.36742,-0.1514 -20.35474,3.9001 -27.68649,11.2317 -14.98167,14.9815 -14.98167,39.2715 0,54.2529 14.98133,14.981 39.27061,14.981 54.25193,0 14.98168,-14.9814 14.98168,-39.2714 0,-54.2529 -7.05707,-7.0569 -16.58643,-11.0859 -26.56544,-11.2317 z m 4.0339,33.7623 13.31046,0 c 1.26631,0 2.28613,1.0199 2.28613,2.2862 l 0,4.6193 c 0,1.2664 -1.01982,2.2853 -2.28613,2.2853 l -13.31046,0 -9.18981,0 -13.31039,0 c -1.26632,0 -2.28613,-1.0189 -2.28613,-2.2853 l 0,-4.6193 c 0,-1.2663 1.01981,-2.2862 2.28613,-2.2862 l 13.31039,0 z"
         style="opacity:1;fill:#404040;fill-opacity:1;stroke:none;stroke-width:1;stroke-linecap:round;stroke-linejoin:round;stroke-miterlimit:4;stroke-dasharray:none;stroke-opacity:1" />
      <path
         inkscape:connector-curvature="0"
         id="path6757"
         d="m 579.03886,631.87011 0,87.4525 93.65882,0 0,-6.8721 -86.78674,0 0,-80.5804 -6.87208,0 z m 14.30251,14.4689 0,61.5386 17.89419,0 0,-61.5386 -17.89419,0 z m 24.79314,17.6903 0,43.8483 17.89426,0 0,-43.8483 -17.89426,0 z m 24.79451,20.0605 0,23.7878 17.89289,0 0,-23.7878 -17.89289,0 z"
         style="color:#000000;font-style:normal;font-variant:normal;font-weight:normal;font-stretch:normal;font-size:medium;line-height:normal;font-family:sans-serif;text-indent:0;text-align:start;text-decoration:none;text-decoration-line:none;text-decoration-style:solid;text-decoration-color:#000000;letter-spacing:normal;word-spacing:normal;text-transform:none;direction:ltr;block-progression:tb;writing-mode:lr-tb;baseline-shift:baseline;text-anchor:start;white-space:normal;clip-rule:nonzero;display:inline;overflow:visible;visibility:visible;opacity:1;isolation:auto;mix-blend-mode:normal;color-interpolation:sRGB;color-interpolation-filters:linearRGB;solid-color:#000000;solid-opacity:1;fill:#404040;fill-opacity:1;fill-rule:evenodd;stroke:none;stroke-width:10;stroke-linecap:butt;stroke-linejoin:miter;stroke-miterlimit:4;stroke-dasharray:none;stroke-dashoffset:0;stroke-opacity:1;color-rendering:auto;image-rendering:auto;shape-rendering:auto;text-rendering:auto;enable-background:accumulate" />
      <path
         sodipodi:nodetypes="ccccccc"
         inkscape:connector-curvature="0"
         id="path6545"
         d="m 731.68959,528.51293 8.47099,-8.47107 17.58033,17.58021 57.13567,-57.13573 8.93562,8.93569 -65.60666,65.6068 z"
         style="fill:#404040;fill-opacity:1;fill-rule:evenodd;stroke:none;stroke-width:1px;stroke-linecap:butt;stroke-linejoin:miter;stroke-opacity:1" />
      <path
         inkscape:connector-curvature="0"
         id="rect6547"
         d="m 739.47333,501.14888 0,2.81473 0,54.8874 57.70209,0 0,-57.70213 -57.70209,0 z m 5.62936,5.62953 46.4434,0 0,46.44307 -46.4434,0 0,-46.44307 z"
         style="color:#000000;font-style:normal;font-variant:normal;font-weight:normal;font-stretch:normal;font-size:medium;line-height:normal;font-family:sans-serif;text-indent:0;text-align:start;text-decoration:none;text-decoration-line:none;text-decoration-style:solid;text-decoration-color:#000000;letter-spacing:normal;word-spacing:normal;text-transform:none;direction:ltr;block-progression:tb;writing-mode:lr-tb;baseline-shift:baseline;text-anchor:start;white-space:normal;clip-rule:nonzero;display:inline;overflow:visible;visibility:visible;opacity:1;isolation:auto;mix-blend-mode:normal;color-interpolation:sRGB;color-interpolation-filters:linearRGB;solid-color:#000000;solid-opacity:1;fill:#404040;fill-opacity:1;fill-rule:nonzero;stroke:none;stroke-width:10;stroke-linecap:round;stroke-linejoin:miter;stroke-miterlimit:4;stroke-dasharray:none;stroke-dashoffset:0;stroke-opacity:1;color-rendering:auto;image-rendering:auto;shape-rendering:auto;text-rendering:auto;enable-background:accumulate" />
    </g>
  </g>
</svg>
