<?xml version="1.0" encoding="UTF-8" standalone="no"?>
<!-- Created with Inkscape (http://www.inkscape.org/) -->

<svg
   xmlns:dc="http://purl.org/dc/elements/1.1/"
   xmlns:cc="http://creativecommons.org/ns#"
   xmlns:rdf="http://www.w3.org/1999/02/22-rdf-syntax-ns#"
   xmlns:svg="http://www.w3.org/2000/svg"
   xmlns="http://www.w3.org/2000/svg"
   xmlns:xlink="http://www.w3.org/1999/xlink"
   xmlns:sodipodi="http://sodipodi.sourceforge.net/DTD/sodipodi-0.dtd"
   xmlns:inkscape="http://www.inkscape.org/namespaces/inkscape"
   width="89.420685mm"
   height="107.1803mm"
   viewBox="0 0 89.420685 107.18028"
   version="1.1"
   id="svg8"
   inkscape:version="0.92.1 r15371"
   sodipodi:docname="app_logo.svg">
  <defs
     id="defs2">
    <linearGradient
       inkscape:collect="always"
       id="linearGradient4508">
      <stop
         style="stop-color:#feaf6c;stop-opacity:1"
         offset="0"
         id="stop4504" />
      <stop
         id="stop4514"
         offset="0.48331413"
         style="stop-color:#cf90bb;stop-opacity:0.79607843;" />
      <stop
         id="stop4512"
         offset="0.64308304"
         style="stop-color:#955fff;stop-opacity:0.54901963" />
      <stop
         style="stop-color:#36bcfd;stop-opacity:0.9045226"
         offset="1"
         id="stop4506" />
    </linearGradient>
    <linearGradient
       inkscape:collect="always"
       xlink:href="#linearGradient4508"
       id="linearGradient4510"
       x1="34.132408"
       y1="59.117134"
       x2="122.88518"
       y2="189.34596"
       gradientUnits="userSpaceOnUse" />
  </defs>
  <sodipodi:namedview
     id="base"
     pagecolor="#d4d4d4"
     bordercolor="#666666"
     borderopacity="1.0"
     inkscape:pageopacity="0"
     inkscape:pageshadow="2"
     inkscape:zoom="1.4142136"
     inkscape:cx="100.77122"
     inkscape:cy="212.0966"
     inkscape:document-units="mm"
     inkscape:current-layer="layer1"
     showgrid="false"
     showborder="true"
     inkscape:snap-object-midpoints="true"
     inkscape:snap-center="true"
     inkscape:pagecheckerboard="false"
     fit-margin-top="0"
     fit-margin-left="0"
     fit-margin-right="0"
     fit-margin-bottom="0"
     inkscape:window-width="1920"
     inkscape:window-height="1017"
     inkscape:window-x="-8"
     inkscape:window-y="-8"
     inkscape:window-maximized="1" />
  <metadata
     id="metadata5">
    <rdf:RDF>
      <cc:Work
         rdf:about="">
        <dc:format>image/svg+xml</dc:format>
        <dc:type
           rdf:resource="http://purl.org/dc/dcmitype/StillImage" />
        <dc:title></dc:title>
      </cc:Work>
    </rdf:RDF>
  </metadata>
  <g
     inkscape:label="Layer 1"
     inkscape:groupmode="layer"
     id="layer1"
     transform="translate(-29.373203,-69.526491)">
    <path
       id="path4575"
       style="fill:none;stroke:url(#linearGradient4510);stroke-width:5;stroke-linecap:round;stroke-linejoin:round;stroke-miterlimit:4;stroke-dasharray:none;stroke-opacity:1"
       d="m 92.872209,131.33296 v -5.33202 m 16.536451,-1.5176 -3.77031,-3.77031 m 10.61993,-12.76614 h -5.33203 m -34.590495,-16.536452 3.770314,3.770313 m 29.302591,-3.770313 -3.77031,3.770313 M 92.872209,84.560814 v 5.332029 M 104.37816,107.94689 A 11.505953,11.505953 0 0 1 92.872208,119.45284 11.505953,11.505953 0 0 1 81.366255,107.94689 11.505953,11.505953 0 0 1 92.872208,96.440939 11.505953,11.505953 0 0 1 104.37816,107.94689 Z m -52.659418,-35.920634 -8.63153,13.992907 4.870374,-0.957589 -10.969025,17.256436 6.905635,-1.81442 -12.021254,21.66023 11.089108,-3.15008 -9.942751,18.154 19.632102,-4.49792 c 0,0 20.479315,4.30084 20.028977,3.57188 l -10.60421,-17.16486 12.13472,1.49948 -13.671847,-19.87735 6.565235,1.31681 -11.126758,-16.985752 4.108172,1.253718 z M 34.875964,173.14846 c 4.233335,-4.7625 9.389987,-9.49774 21.43125,-9.52501 12.041263,-0.0273 20.105877,10.59333 32.014585,10.58333 11.908711,-0.01 19.579161,-4.23333 25.135411,-11.11249 m -78.581249,0.5264 c 4.233334,-4.7625 9.389986,-9.49774 21.431249,-9.52501 12.041263,-0.0273 20.105877,10.59333 32.014585,10.58333 11.908705,-0.01 19.579165,-4.23333 25.135415,-11.11249 m -78.581249,0.52639 c 4.233334,-4.7625 9.389986,-9.49774 21.431249,-9.52501 12.041263,-0.0273 20.105877,10.59333 32.014584,10.58333 11.908706,-0.01 19.579166,-4.23333 25.135416,-11.11249"
       inkscape:connector-curvature="0" />
  </g>
</svg>
