<?xml version="1.0" encoding="UTF-8" standalone="no"?>
<!-- Created with Inkscape (http://www.inkscape.org/) -->

<svg
   xmlns:dc="http://purl.org/dc/elements/1.1/"
   xmlns:cc="http://creativecommons.org/ns#"
   xmlns:rdf="http://www.w3.org/1999/02/22-rdf-syntax-ns#"
   xmlns:svg="http://www.w3.org/2000/svg"
   xmlns="http://www.w3.org/2000/svg"
   xmlns:sodipodi="http://sodipodi.sourceforge.net/DTD/sodipodi-0.dtd"
   xmlns:inkscape="http://www.inkscape.org/namespaces/inkscape"
   width="9.7179317mm"
   height="8.1881971mm"
   viewBox="0 0 9.7179317 8.1881971"
   version="1.1"
   id="svg8"
   inkscape:version="0.92.1 r15371"
   sodipodi:docname="menu.svg">
  <defs
     id="defs2" />
  <sodipodi:namedview
     id="base"
     pagecolor="#cdcdcd"
     bordercolor="#666666"
     borderopacity="1.0"
     inkscape:pageopacity="0"
     inkscape:pageshadow="2"
     inkscape:zoom="1"
     inkscape:cx="-147.44055"
     inkscape:cy="-73.444172"
     inkscape:document-units="mm"
     inkscape:current-layer="layer1"
     showgrid="false"
     fit-margin-top="0"
     fit-margin-left="0"
     fit-margin-right="0"
     fit-margin-bottom="0"
     inkscape:window-width="1920"
     inkscape:window-height="1017"
     inkscape:window-x="-8"
     inkscape:window-y="-8"
     inkscape:window-maximized="1" />
  <metadata
     id="metadata5">
    <rdf:RDF>
      <cc:Work
         rdf:about="">
        <dc:format>image/svg+xml</dc:format>
        <dc:type
           rdf:resource="http://purl.org/dc/dcmitype/StillImage" />
        <dc:title />
      </cc:Work>
    </rdf:RDF>
  </metadata>
  <g
     inkscape:label="Layer 1"
     inkscape:groupmode="layer"
     id="layer1"
     transform="translate(-72.179199,-118.26338)">
    <path
       style="fill:#ffffff;fill-opacity:1;stroke:none;stroke-width:0.75254744;stroke-opacity:1"
       d="M 2.4667969 0 C 1.1000558 0 0 1.1000558 0 2.4667969 C 0 3.8335379 1.1000558 4.9335938 2.4667969 4.9335938 L 34.261719 4.9335938 C 35.62846 4.9335938 36.728516 3.8335379 36.728516 2.4667969 C 36.728516 1.1000558 35.62846 0 34.261719 0 L 2.4667969 0 z M 2.4667969 13.005859 C 1.1000558 13.005859 0 14.107868 0 15.474609 C 0 16.84135 1.1000558 17.941406 2.4667969 17.941406 L 34.261719 17.941406 C 35.62846 17.941406 36.728516 16.84135 36.728516 15.474609 C 36.728516 14.107868 35.62846 13.005859 34.261719 13.005859 L 2.4667969 13.005859 z M 2.4667969 26.013672 C 1.1000558 26.013672 0 27.113728 0 28.480469 C 0 29.84721 1.1000558 30.947266 2.4667969 30.947266 L 34.261719 30.947266 C 35.62846 30.947266 36.728516 29.84721 36.728516 28.480469 C 36.728516 27.113728 35.62846 26.013672 34.261719 26.013672 L 2.4667969 26.013672 z "
       transform="matrix(0.26458333,0,0,0.26458333,72.179199,118.26338)"
       id="rect4485" />
  </g>
</svg>
